<?xml version="1.0" encoding="UTF-8" standalone="no"?><svg xmlns="http://www.w3.org/2000/svg" xmlns:xlink="http://www.w3.org/1999/xlink" contentStyleType="text/css" height="873px" preserveAspectRatio="none" style="width:2196px;height:873px;background:#FFFFFF;" version="1.1" viewBox="0 0 2196 873" width="2196px" zoomAndPan="magnify"><defs/><g><!--MD5=[cbbcdfd2ff286cf453505908e439d9c0]
cluster logic--><g id="cluster_logic"><path d="M8.5,6 L48.5,6 A3.75,3.75 0 0 1 51,8.5 L58,28.2969 L2186.5,28.2969 A2.5,2.5 0 0 1 2189,30.7969 L2189,863.5 A2.5,2.5 0 0 1 2186.5,866 L8.5,866 A2.5,2.5 0 0 1 6,863.5 L6,8.5 A2.5,2.5 0 0 1 8.5,6 " fill="none" style="stroke:#000000;stroke-width:1.5;"/><line style="stroke:#000000;stroke-width:1.5;" x1="6" x2="58" y1="28.2969" y2="28.2969"/><text fill="#000000" font-family="sans-serif" font-size="14" font-weight="bold" lengthAdjust="spacing" textLength="39" x="10" y="20.9951">logic</text></g><!--MD5=[e4003319f18209e837f10cf867afd2c3]
cluster characters--><g id="cluster_characters"><path d="M32.5,49 L121.5,49 A3.75,3.75 0 0 1 124,51.5 L131,71.2969 L2162.5,71.2969 A2.5,2.5 0 0 1 2165,73.7969 L2165,839.5 A2.5,2.5 0 0 1 2162.5,842 L32.5,842 A2.5,2.5 0 0 1 30,839.5 L30,51.5 A2.5,2.5 0 0 1 32.5,49 " fill="none" style="stroke:#000000;stroke-width:1.5;"/><line style="stroke:#000000;stroke-width:1.5;" x1="30" x2="131" y1="71.2969" y2="71.2969"/><text fill="#000000" font-family="sans-serif" font-size="14" font-weight="bold" lengthAdjust="spacing" textLength="88" x="34" y="63.9951">characters</text></g><!--MD5=[be996cdb8e6bf2fc7cb89c555f2cd144]
class Entity--><g id="elem_Entity"><rect codeLine="3" fill="#F1F1F1" height="210.9688" id="Entity" rx="2.5" ry="2.5" style="stroke:#181818;stroke-width:0.5;" width="522" x="1047" y="230.5"/><ellipse cx="1281.75" cy="246.5" fill="#ADD1B2" rx="11" ry="11" style="stroke:#181818;stroke-width:1.0;"/><path d="M1284.0938,242.1719 C1283.1563,241.7344 1282.5625,241.5938 1281.6875,241.5938 C1279.0625,241.5938 1277.0625,243.6719 1277.0625,246.3906 L1277.0625,247.5156 C1277.0625,250.0938 1279.1719,251.9844 1282.0625,251.9844 C1283.2813,251.9844 1284.4375,251.6875 1285.1875,251.1406 C1285.7656,250.7344 1286.0938,250.2813 1286.0938,249.8906 C1286.0938,249.4375 1285.7031,249.0469 1285.2344,249.0469 C1285.0156,249.0469 1284.8125,249.125 1284.625,249.3125 C1284.1719,249.7969 1284.1719,249.7969 1283.9844,249.8906 C1283.5625,250.1563 1282.875,250.2813 1282.1094,250.2813 C1280.0625,250.2813 1278.7656,249.1875 1278.7656,247.4844 L1278.7656,246.3906 C1278.7656,244.6094 1280.0156,243.2969 1281.75,243.2969 C1282.3281,243.2969 1282.9375,243.4531 1283.4063,243.7031 C1283.8906,243.9844 1284.0625,244.2031 1284.1563,244.6094 C1284.2188,245.0156 1284.25,245.1406 1284.3906,245.2656 C1284.5313,245.4063 1284.7656,245.5156 1284.9844,245.5156 C1285.25,245.5156 1285.5156,245.375 1285.6875,245.1563 C1285.7969,245 1285.8281,244.8125 1285.8281,244.3906 L1285.8281,242.9688 C1285.8281,242.5313 1285.8125,242.4063 1285.7188,242.25 C1285.5625,241.9844 1285.2813,241.8438 1284.9844,241.8438 C1284.6875,241.8438 1284.4844,241.9375 1284.2656,242.25 L1284.0938,242.1719 Z " fill="#000000"/><text fill="#000000" font-family="sans-serif" font-size="14" lengthAdjust="spacing" textLength="44" x="1302.25" y="251.3467">Entity</text><line style="stroke:#181818;stroke-width:0.5;" x1="1048" x2="1568" y1="262.5" y2="262.5"/><ellipse cx="1058" cy="276.1484" fill="none" rx="3" ry="3" style="stroke:#038048;stroke-width:1.0;"/><text fill="#000000" font-family="sans-serif" font-size="14" lengthAdjust="spacing" textLength="119" x="1067" y="279.4951">int[] coordinates</text><ellipse cx="1058" cy="292.4453" fill="none" rx="3" ry="3" style="stroke:#038048;stroke-width:1.0;"/><text fill="#000000" font-family="sans-serif" font-size="14" lengthAdjust="spacing" textLength="128" x="1067" y="295.792">int[] boundingBox</text><ellipse cx="1058" cy="308.7422" fill="none" rx="3" ry="3" style="stroke:#038048;stroke-width:1.0;"/><text fill="#000000" font-family="sans-serif" font-size="14" lengthAdjust="spacing" textLength="143" x="1067" y="312.0889">String textureName</text><line style="stroke:#181818;stroke-width:0.5;" x1="1048" x2="1568" y1="319.3906" y2="319.3906"/><ellipse cx="1058" cy="333.0391" fill="#84BE84" rx="3" ry="3" style="stroke:#038048;stroke-width:1.0;"/><text fill="#000000" font-family="sans-serif" font-size="14" lengthAdjust="spacing" textLength="496" x="1067" y="336.3857">Entity(int xAbs, int yAbs, int xBox, int yBox, String newTextureName)</text><ellipse cx="1058" cy="349.3359" fill="#84BE84" rx="3" ry="3" style="stroke:#038048;stroke-width:1.0;"/><text fill="#000000" font-family="sans-serif" font-size="14" lengthAdjust="spacing" textLength="94" x="1067" y="352.6826">int getxAbs()</text><ellipse cx="1058" cy="365.6328" fill="#84BE84" rx="3" ry="3" style="stroke:#038048;stroke-width:1.0;"/><text fill="#000000" font-family="sans-serif" font-size="14" lengthAdjust="spacing" textLength="141" x="1067" y="368.9795">OtherGetMethods()</text><ellipse cx="1058" cy="381.9297" fill="#84BE84" rx="3" ry="3" style="stroke:#038048;stroke-width:1.0;"/><text fill="#000000" font-family="sans-serif" font-size="14" lengthAdjust="spacing" textLength="180" x="1067" y="385.2764">String getTextureName()</text><ellipse cx="1058" cy="398.2266" fill="#84BE84" rx="3" ry="3" style="stroke:#038048;stroke-width:1.0;"/><text fill="#000000" font-family="sans-serif" font-size="14" lengthAdjust="spacing" textLength="206" x="1067" y="401.5732">Rectangle getBoundingBox()</text><ellipse cx="1058" cy="414.5234" fill="#84BE84" rx="3" ry="3" style="stroke:#038048;stroke-width:1.0;"/><text fill="#000000" font-family="sans-serif" font-size="14" lengthAdjust="spacing" textLength="190" x="1067" y="417.8701">void setxAbs(int newxAbs)</text><ellipse cx="1058" cy="430.8203" fill="#84BE84" rx="3" ry="3" style="stroke:#038048;stroke-width:1.0;"/><text fill="#000000" font-family="sans-serif" font-size="14" lengthAdjust="spacing" textLength="139" x="1067" y="434.167">OtherSetMethods()</text></g><!--MD5=[c5be77fde508ca8731ffeda03e25fbf2]
class EntityGroup--><g id="elem_EntityGroup"><rect codeLine="15" fill="#F1F1F1" height="390.2344" id="EntityGroup" rx="2.5" ry="2.5" style="stroke:#181818;stroke-width:0.5;" width="313" x="688.5" y="141"/><ellipse cx="796.75" cy="157" fill="#ADD1B2" rx="11" ry="11" style="stroke:#181818;stroke-width:1.0;"/><path d="M799.0938,152.6719 C798.1563,152.2344 797.5625,152.0938 796.6875,152.0938 C794.0625,152.0938 792.0625,154.1719 792.0625,156.8906 L792.0625,158.0156 C792.0625,160.5938 794.1719,162.4844 797.0625,162.4844 C798.2813,162.4844 799.4375,162.1875 800.1875,161.6406 C800.7656,161.2344 801.0938,160.7813 801.0938,160.3906 C801.0938,159.9375 800.7031,159.5469 800.2344,159.5469 C800.0156,159.5469 799.8125,159.625 799.625,159.8125 C799.1719,160.2969 799.1719,160.2969 798.9844,160.3906 C798.5625,160.6563 797.875,160.7813 797.1094,160.7813 C795.0625,160.7813 793.7656,159.6875 793.7656,157.9844 L793.7656,156.8906 C793.7656,155.1094 795.0156,153.7969 796.75,153.7969 C797.3281,153.7969 797.9375,153.9531 798.4063,154.2031 C798.8906,154.4844 799.0625,154.7031 799.1563,155.1094 C799.2188,155.5156 799.25,155.6406 799.3906,155.7656 C799.5313,155.9063 799.7656,156.0156 799.9844,156.0156 C800.25,156.0156 800.5156,155.875 800.6875,155.6563 C800.7969,155.5 800.8281,155.3125 800.8281,154.8906 L800.8281,153.4688 C800.8281,153.0313 800.8125,152.9063 800.7188,152.75 C800.5625,152.4844 800.2813,152.3438 799.9844,152.3438 C799.6875,152.3438 799.4844,152.4375 799.2656,152.75 L799.0938,152.6719 Z " fill="#000000"/><text fill="#000000" font-family="sans-serif" font-size="14" lengthAdjust="spacing" textLength="88" x="817.25" y="161.8467">EntityGroup</text><line style="stroke:#181818;stroke-width:0.5;" x1="689.5" x2="1000.5" y1="173" y2="173"/><ellipse cx="699.5" cy="186.6484" fill="none" rx="3" ry="3" style="stroke:#038048;stroke-width:1.0;"/><text fill="#000000" font-family="sans-serif" font-size="14" lengthAdjust="spacing" textLength="244" x="708.5" y="189.9951">int[] SMALL_VEHICLE_DIMENSIONS</text><ellipse cx="699.5" cy="202.9453" fill="none" rx="3" ry="3" style="stroke:#038048;stroke-width:1.0;"/><text fill="#000000" font-family="sans-serif" font-size="14" lengthAdjust="spacing" textLength="224" x="708.5" y="206.292">int[] MID_VEHICLE_DIMENSIONS</text><ellipse cx="699.5" cy="219.2422" fill="none" rx="3" ry="3" style="stroke:#038048;stroke-width:1.0;"/><text fill="#000000" font-family="sans-serif" font-size="14" lengthAdjust="spacing" textLength="222" x="708.5" y="222.5889">int[] BIG_VEHICLE_DIMENSIONS</text><ellipse cx="699.5" cy="235.5391" fill="none" rx="3" ry="3" style="stroke:#038048;stroke-width:1.0;"/><text fill="#000000" font-family="sans-serif" font-size="14" lengthAdjust="spacing" textLength="141" x="708.5" y="238.8857">String PORSCHE_UP</text><ellipse cx="699.5" cy="251.8359" fill="none" rx="3" ry="3" style="stroke:#038048;stroke-width:1.0;"/><text fill="#000000" font-family="sans-serif" font-size="14" lengthAdjust="spacing" textLength="159" x="708.5" y="255.1826">OtherConstantStrings</text><ellipse cx="699.5" cy="268.1328" fill="none" rx="3" ry="3" style="stroke:#038048;stroke-width:1.0;"/><text fill="#000000" font-family="sans-serif" font-size="14" lengthAdjust="spacing" textLength="169" x="708.5" y="271.4795">String PORSCHE_DOWN</text><ellipse cx="699.5" cy="284.4297" fill="none" rx="3" ry="3" style="stroke:#038048;stroke-width:1.0;"/><text fill="#000000" font-family="sans-serif" font-size="14" lengthAdjust="spacing" textLength="159" x="708.5" y="287.7764">OtherConstantStrings</text><ellipse cx="699.5" cy="300.7266" fill="none" rx="3" ry="3" style="stroke:#038048;stroke-width:1.0;"/><text fill="#000000" font-family="sans-serif" font-size="14" lengthAdjust="spacing" textLength="199" x="708.5" y="304.0732">String[] VEHICLE_UP_ARRAY</text><ellipse cx="699.5" cy="317.0234" fill="none" rx="3" ry="3" style="stroke:#038048;stroke-width:1.0;"/><text fill="#000000" font-family="sans-serif" font-size="14" lengthAdjust="spacing" textLength="227" x="708.5" y="320.3701">String[] VEHICLE_DOWN_ARRAY</text><ellipse cx="699.5" cy="333.3203" fill="none" rx="3" ry="3" style="stroke:#038048;stroke-width:1.0;"/><text fill="#000000" font-family="sans-serif" font-size="14" lengthAdjust="spacing" textLength="214" x="708.5" y="336.667">LinkedList&lt;Entity&gt; entityList</text><ellipse cx="699.5" cy="349.6172" fill="none" rx="3" ry="3" style="stroke:#038048;stroke-width:1.0;"/><text fill="#000000" font-family="sans-serif" font-size="14" lengthAdjust="spacing" textLength="230" x="708.5" y="352.9639">LinkedList&lt;Vehicle&gt; vehicleList</text><ellipse cx="699.5" cy="365.9141" fill="none" rx="3" ry="3" style="stroke:#038048;stroke-width:1.0;"/><text fill="#000000" font-family="sans-serif" font-size="14" lengthAdjust="spacing" textLength="82" x="708.5" y="369.2607">int oldRand</text><ellipse cx="699.5" cy="382.2109" fill="none" rx="3" ry="3" style="stroke:#038048;stroke-width:1.0;"/><text fill="#000000" font-family="sans-serif" font-size="14" lengthAdjust="spacing" textLength="144" x="708.5" y="385.5576">int numberOfTrucks</text><ellipse cx="699.5" cy="398.5078" fill="none" rx="3" ry="3" style="stroke:#038048;stroke-width:1.0;"/><text fill="#000000" font-family="sans-serif" font-size="14" lengthAdjust="spacing" textLength="125" x="708.5" y="401.8545">int countVehicles</text><line style="stroke:#181818;stroke-width:0.5;" x1="689.5" x2="1000.5" y1="409.1563" y2="409.1563"/><ellipse cx="699.5" cy="422.8047" fill="#84BE84" rx="3" ry="3" style="stroke:#038048;stroke-width:1.0;"/><text fill="#000000" font-family="sans-serif" font-size="14" lengthAdjust="spacing" textLength="98" x="708.5" y="426.1514">EntityGroup()</text><ellipse cx="699.5" cy="439.1016" fill="#84BE84" rx="3" ry="3" style="stroke:#038048;stroke-width:1.0;"/><text fill="#000000" font-family="sans-serif" font-size="14" lengthAdjust="spacing" textLength="121" x="708.5" y="442.4482">void updateList()</text><ellipse cx="699.5" cy="455.3984" fill="#84BE84" rx="3" ry="3" style="stroke:#038048;stroke-width:1.0;"/><text fill="#000000" font-family="sans-serif" font-size="14" lengthAdjust="spacing" textLength="180" x="708.5" y="458.7451">void generateEntityList()</text><ellipse cx="699.5" cy="471.6953" fill="#84BE84" rx="3" ry="3" style="stroke:#038048;stroke-width:1.0;"/><text fill="#000000" font-family="sans-serif" font-size="14" lengthAdjust="spacing" textLength="287" x="708.5" y="475.042">Vehicle generateRandom(int[] element)</text><ellipse cx="699.5" cy="487.9922" fill="#84BE84" rx="3" ry="3" style="stroke:#038048;stroke-width:1.0;"/><text fill="#000000" font-family="sans-serif" font-size="14" lengthAdjust="spacing" textLength="182" x="708.5" y="491.3389">void fixVehiclesOverLap()</text><ellipse cx="699.5" cy="504.2891" fill="#84BE84" rx="3" ry="3" style="stroke:#038048;stroke-width:1.0;"/><text fill="#000000" font-family="sans-serif" font-size="14" lengthAdjust="spacing" textLength="249" x="708.5" y="507.6357">LinkedList&lt;Entity&gt; getEntityList()</text><ellipse cx="699.5" cy="520.5859" fill="#84BE84" rx="3" ry="3" style="stroke:#038048;stroke-width:1.0;"/><text fill="#000000" font-family="sans-serif" font-size="14" lengthAdjust="spacing" textLength="267" x="708.5" y="523.9326">LinkedList&lt;Vehicle&gt; getVehicleList()</text></g><!--MD5=[3aa0d89c6bfdcbf7f32042cedac57549]
class Vehicle--><g id="elem_Vehicle"><rect codeLine="38" fill="#F1F1F1" height="178.375" id="Vehicle" rx="2.5" ry="2.5" style="stroke:#181818;stroke-width:0.5;" width="607" x="46.5" y="648"/><ellipse cx="319.25" cy="664" fill="#ADD1B2" rx="11" ry="11" style="stroke:#181818;stroke-width:1.0;"/><path d="M321.5938,659.6719 C320.6563,659.2344 320.0625,659.0938 319.1875,659.0938 C316.5625,659.0938 314.5625,661.1719 314.5625,663.8906 L314.5625,665.0156 C314.5625,667.5938 316.6719,669.4844 319.5625,669.4844 C320.7813,669.4844 321.9375,669.1875 322.6875,668.6406 C323.2656,668.2344 323.5938,667.7813 323.5938,667.3906 C323.5938,666.9375 323.2031,666.5469 322.7344,666.5469 C322.5156,666.5469 322.3125,666.625 322.125,666.8125 C321.6719,667.2969 321.6719,667.2969 321.4844,667.3906 C321.0625,667.6563 320.375,667.7813 319.6094,667.7813 C317.5625,667.7813 316.2656,666.6875 316.2656,664.9844 L316.2656,663.8906 C316.2656,662.1094 317.5156,660.7969 319.25,660.7969 C319.8281,660.7969 320.4375,660.9531 320.9063,661.2031 C321.3906,661.4844 321.5625,661.7031 321.6563,662.1094 C321.7188,662.5156 321.75,662.6406 321.8906,662.7656 C322.0313,662.9063 322.2656,663.0156 322.4844,663.0156 C322.75,663.0156 323.0156,662.875 323.1875,662.6563 C323.2969,662.5 323.3281,662.3125 323.3281,661.8906 L323.3281,660.4688 C323.3281,660.0313 323.3125,659.9063 323.2188,659.75 C323.0625,659.4844 322.7813,659.3438 322.4844,659.3438 C322.1875,659.3438 321.9844,659.4375 321.7656,659.75 L321.5938,659.6719 Z " fill="#000000"/><text fill="#000000" font-family="sans-serif" font-size="14" lengthAdjust="spacing" textLength="53" x="339.75" y="668.8467">Vehicle</text><line style="stroke:#181818;stroke-width:0.5;" x1="47.5" x2="652.5" y1="680" y2="680"/><ellipse cx="57.5" cy="693.6484" fill="none" rx="3" ry="3" style="stroke:#038048;stroke-width:1.0;"/><text fill="#000000" font-family="sans-serif" font-size="14" lengthAdjust="spacing" textLength="86" x="66.5" y="696.9951">String TOUP</text><ellipse cx="57.5" cy="709.9453" fill="none" rx="3" ry="3" style="stroke:#038048;stroke-width:1.0;"/><text fill="#000000" font-family="sans-serif" font-size="14" lengthAdjust="spacing" textLength="159" x="66.5" y="713.292">OtherConstantStrings</text><ellipse cx="57.5" cy="726.2422" fill="none" rx="3" ry="3" style="stroke:#038048;stroke-width:1.0;"/><text fill="#000000" font-family="sans-serif" font-size="14" lengthAdjust="spacing" textLength="68" x="66.5" y="729.5889">int speed</text><ellipse cx="57.5" cy="742.5391" fill="none" rx="3" ry="3" style="stroke:#038048;stroke-width:1.0;"/><text fill="#000000" font-family="sans-serif" font-size="14" lengthAdjust="spacing" textLength="135" x="66.5" y="745.8857">void centerVehicle</text><line style="stroke:#181818;stroke-width:0.5;" x1="47.5" x2="652.5" y1="753.1875" y2="753.1875"/><ellipse cx="57.5" cy="766.8359" fill="#84BE84" rx="3" ry="3" style="stroke:#038048;stroke-width:1.0;"/><text fill="#000000" font-family="sans-serif" font-size="14" lengthAdjust="spacing" textLength="581" x="66.5" y="770.1826">Vehicle(int xAbs, int yAbs, int xBox, int yBox, String newTextureName, int speed)</text><ellipse cx="57.5" cy="783.1328" fill="#84BE84" rx="3" ry="3" style="stroke:#038048;stroke-width:1.0;"/><text fill="#000000" font-family="sans-serif" font-size="14" lengthAdjust="spacing" textLength="105" x="66.5" y="786.4795">int getSpeed()</text><ellipse cx="57.5" cy="799.4297" fill="#84BE84" rx="3" ry="3" style="stroke:#038048;stroke-width:1.0;"/><text fill="#000000" font-family="sans-serif" font-size="14" lengthAdjust="spacing" textLength="202" x="66.5" y="802.7764">int setSpeed(int newSpeed)</text><ellipse cx="57.5" cy="815.7266" fill="#84BE84" rx="3" ry="3" style="stroke:#038048;stroke-width:1.0;"/><text fill="#000000" font-family="sans-serif" font-size="14" lengthAdjust="spacing" textLength="84" x="66.5" y="819.0732">void move()</text></g><!--MD5=[1da8f80c0a6f875dfd1b47fac061377f]
class Coin--><g id="elem_Coin"><rect codeLine="48" fill="#F1F1F1" height="64.2969" id="Coin" rx="2.5" ry="2.5" style="stroke:#181818;stroke-width:0.5;" width="328" x="689" y="705"/><ellipse cx="832.75" cy="721" fill="#ADD1B2" rx="11" ry="11" style="stroke:#181818;stroke-width:1.0;"/><path d="M835.0938,716.6719 C834.1563,716.2344 833.5625,716.0938 832.6875,716.0938 C830.0625,716.0938 828.0625,718.1719 828.0625,720.8906 L828.0625,722.0156 C828.0625,724.5938 830.1719,726.4844 833.0625,726.4844 C834.2813,726.4844 835.4375,726.1875 836.1875,725.6406 C836.7656,725.2344 837.0938,724.7813 837.0938,724.3906 C837.0938,723.9375 836.7031,723.5469 836.2344,723.5469 C836.0156,723.5469 835.8125,723.625 835.625,723.8125 C835.1719,724.2969 835.1719,724.2969 834.9844,724.3906 C834.5625,724.6563 833.875,724.7813 833.1094,724.7813 C831.0625,724.7813 829.7656,723.6875 829.7656,721.9844 L829.7656,720.8906 C829.7656,719.1094 831.0156,717.7969 832.75,717.7969 C833.3281,717.7969 833.9375,717.9531 834.4063,718.2031 C834.8906,718.4844 835.0625,718.7031 835.1563,719.1094 C835.2188,719.5156 835.25,719.6406 835.3906,719.7656 C835.5313,719.9063 835.7656,720.0156 835.9844,720.0156 C836.25,720.0156 836.5156,719.875 836.6875,719.6563 C836.7969,719.5 836.8281,719.3125 836.8281,718.8906 L836.8281,717.4688 C836.8281,717.0313 836.8125,716.9063 836.7188,716.75 C836.5625,716.4844 836.2813,716.3438 835.9844,716.3438 C835.6875,716.3438 835.4844,716.4375 835.2656,716.75 L835.0938,716.6719 Z " fill="#000000"/><text fill="#000000" font-family="sans-serif" font-size="14" lengthAdjust="spacing" textLength="32" x="853.25" y="725.8467">Coin</text><line style="stroke:#181818;stroke-width:0.5;" x1="690" x2="1016" y1="737" y2="737"/><line style="stroke:#181818;stroke-width:0.5;" x1="690" x2="1016" y1="745" y2="745"/><ellipse cx="700" cy="758.6484" fill="#84BE84" rx="3" ry="3" style="stroke:#038048;stroke-width:1.0;"/><text fill="#000000" font-family="sans-serif" font-size="14" lengthAdjust="spacing" textLength="302" x="709" y="761.9951">Coin(int xAbs, int yAbs, int xBox, int yBox)</text></g><!--MD5=[babbdcee04bece8cbf7161975973616a]
class Rock--><g id="elem_Rock"><rect codeLine="51" fill="#F1F1F1" height="64.2969" id="Rock" rx="2.5" ry="2.5" style="stroke:#181818;stroke-width:0.5;" width="532" x="1052" y="705"/><ellipse cx="1295.75" cy="721" fill="#ADD1B2" rx="11" ry="11" style="stroke:#181818;stroke-width:1.0;"/><path d="M1298.0938,716.6719 C1297.1563,716.2344 1296.5625,716.0938 1295.6875,716.0938 C1293.0625,716.0938 1291.0625,718.1719 1291.0625,720.8906 L1291.0625,722.0156 C1291.0625,724.5938 1293.1719,726.4844 1296.0625,726.4844 C1297.2813,726.4844 1298.4375,726.1875 1299.1875,725.6406 C1299.7656,725.2344 1300.0938,724.7813 1300.0938,724.3906 C1300.0938,723.9375 1299.7031,723.5469 1299.2344,723.5469 C1299.0156,723.5469 1298.8125,723.625 1298.625,723.8125 C1298.1719,724.2969 1298.1719,724.2969 1297.9844,724.3906 C1297.5625,724.6563 1296.875,724.7813 1296.1094,724.7813 C1294.0625,724.7813 1292.7656,723.6875 1292.7656,721.9844 L1292.7656,720.8906 C1292.7656,719.1094 1294.0156,717.7969 1295.75,717.7969 C1296.3281,717.7969 1296.9375,717.9531 1297.4063,718.2031 C1297.8906,718.4844 1298.0625,718.7031 1298.1563,719.1094 C1298.2188,719.5156 1298.25,719.6406 1298.3906,719.7656 C1298.5313,719.9063 1298.7656,720.0156 1298.9844,720.0156 C1299.25,720.0156 1299.5156,719.875 1299.6875,719.6563 C1299.7969,719.5 1299.8281,719.3125 1299.8281,718.8906 L1299.8281,717.4688 C1299.8281,717.0313 1299.8125,716.9063 1299.7188,716.75 C1299.5625,716.4844 1299.2813,716.3438 1298.9844,716.3438 C1298.6875,716.3438 1298.4844,716.4375 1298.2656,716.75 L1298.0938,716.6719 Z " fill="#000000"/><text fill="#000000" font-family="sans-serif" font-size="14" lengthAdjust="spacing" textLength="36" x="1316.25" y="725.8467">Rock</text><line style="stroke:#181818;stroke-width:0.5;" x1="1053" x2="1583" y1="737" y2="737"/><line style="stroke:#181818;stroke-width:0.5;" x1="1053" x2="1583" y1="745" y2="745"/><ellipse cx="1063" cy="758.6484" fill="#84BE84" rx="3" ry="3" style="stroke:#038048;stroke-width:1.0;"/><text fill="#000000" font-family="sans-serif" font-size="14" lengthAdjust="spacing" textLength="506" x="1072" y="761.9951">Rock(int xAbs, int yAbs, int xBox, int yBox, int randomTextureNumber)</text></g><!--MD5=[bb7f1c801adcc1c297b2d9190618259c]
class Tree--><g id="elem_Tree"><rect codeLine="54" fill="#F1F1F1" height="80.5938" id="Tree" rx="2.5" ry="2.5" style="stroke:#181818;stroke-width:0.5;" width="529" x="1619.5" y="696.5"/><ellipse cx="1863.25" cy="712.5" fill="#ADD1B2" rx="11" ry="11" style="stroke:#181818;stroke-width:1.0;"/><path d="M1865.5938,708.1719 C1864.6563,707.7344 1864.0625,707.5938 1863.1875,707.5938 C1860.5625,707.5938 1858.5625,709.6719 1858.5625,712.3906 L1858.5625,713.5156 C1858.5625,716.0938 1860.6719,717.9844 1863.5625,717.9844 C1864.7813,717.9844 1865.9375,717.6875 1866.6875,717.1406 C1867.2656,716.7344 1867.5938,716.2813 1867.5938,715.8906 C1867.5938,715.4375 1867.2031,715.0469 1866.7344,715.0469 C1866.5156,715.0469 1866.3125,715.125 1866.125,715.3125 C1865.6719,715.7969 1865.6719,715.7969 1865.4844,715.8906 C1865.0625,716.1563 1864.375,716.2813 1863.6094,716.2813 C1861.5625,716.2813 1860.2656,715.1875 1860.2656,713.4844 L1860.2656,712.3906 C1860.2656,710.6094 1861.5156,709.2969 1863.25,709.2969 C1863.8281,709.2969 1864.4375,709.4531 1864.9063,709.7031 C1865.3906,709.9844 1865.5625,710.2031 1865.6563,710.6094 C1865.7188,711.0156 1865.75,711.1406 1865.8906,711.2656 C1866.0313,711.4063 1866.2656,711.5156 1866.4844,711.5156 C1866.75,711.5156 1867.0156,711.375 1867.1875,711.1563 C1867.2969,711 1867.3281,710.8125 1867.3281,710.3906 L1867.3281,708.9688 C1867.3281,708.5313 1867.3125,708.4063 1867.2188,708.25 C1867.0625,707.9844 1866.7813,707.8438 1866.4844,707.8438 C1866.1875,707.8438 1865.9844,707.9375 1865.7656,708.25 L1865.5938,708.1719 Z " fill="#000000"/><text fill="#000000" font-family="sans-serif" font-size="14" lengthAdjust="spacing" textLength="33" x="1883.75" y="717.3467">Tree</text><line style="stroke:#181818;stroke-width:0.5;" x1="1620.5" x2="2147.5" y1="728.5" y2="728.5"/><line style="stroke:#181818;stroke-width:0.5;" x1="1620.5" x2="2147.5" y1="736.5" y2="736.5"/><ellipse cx="1630.5" cy="750.1484" fill="#84BE84" rx="3" ry="3" style="stroke:#038048;stroke-width:1.0;"/><text fill="#000000" font-family="sans-serif" font-size="14" lengthAdjust="spacing" textLength="503" x="1639.5" y="753.4951">Tree(int xAbs, int yAbs, int xBox, int yBox, int randomTextureNumber)</text><ellipse cx="1630.5" cy="766.4453" fill="#84BE84" rx="3" ry="3" style="stroke:#038048;stroke-width:1.0;"/><text fill="#000000" font-family="sans-serif" font-size="14" lengthAdjust="spacing" textLength="206" x="1639.5" y="769.792">Rectangle getBoundingBox()</text></g><!--MD5=[34c087e67fb7928d15a650ab3d240344]
class Fox--><g id="elem_Fox"><rect codeLine="58" fill="#F1F1F1" height="504.3125" id="Fox" rx="2.5" ry="2.5" style="stroke:#181818;stroke-width:0.5;" width="550" x="84" y="84"/><ellipse cx="342.25" cy="100" fill="#ADD1B2" rx="11" ry="11" style="stroke:#181818;stroke-width:1.0;"/><path d="M344.5938,95.6719 C343.6563,95.2344 343.0625,95.0938 342.1875,95.0938 C339.5625,95.0938 337.5625,97.1719 337.5625,99.8906 L337.5625,101.0156 C337.5625,103.5938 339.6719,105.4844 342.5625,105.4844 C343.7813,105.4844 344.9375,105.1875 345.6875,104.6406 C346.2656,104.2344 346.5938,103.7813 346.5938,103.3906 C346.5938,102.9375 346.2031,102.5469 345.7344,102.5469 C345.5156,102.5469 345.3125,102.625 345.125,102.8125 C344.6719,103.2969 344.6719,103.2969 344.4844,103.3906 C344.0625,103.6563 343.375,103.7813 342.6094,103.7813 C340.5625,103.7813 339.2656,102.6875 339.2656,100.9844 L339.2656,99.8906 C339.2656,98.1094 340.5156,96.7969 342.25,96.7969 C342.8281,96.7969 343.4375,96.9531 343.9063,97.2031 C344.3906,97.4844 344.5625,97.7031 344.6563,98.1094 C344.7188,98.5156 344.75,98.6406 344.8906,98.7656 C345.0313,98.9063 345.2656,99.0156 345.4844,99.0156 C345.75,99.0156 346.0156,98.875 346.1875,98.6563 C346.2969,98.5 346.3281,98.3125 346.3281,97.8906 L346.3281,96.4688 C346.3281,96.0313 346.3125,95.9063 346.2188,95.75 C346.0625,95.4844 345.7813,95.3438 345.4844,95.3438 C345.1875,95.3438 344.9844,95.4375 344.7656,95.75 L344.5938,95.6719 Z " fill="#000000"/><text fill="#000000" font-family="sans-serif" font-size="14" lengthAdjust="spacing" textLength="25" x="362.75" y="104.8467">Fox</text><line style="stroke:#181818;stroke-width:0.5;" x1="85" x2="633" y1="116" y2="116"/><ellipse cx="95" cy="129.6484" fill="none" rx="3" ry="3" style="stroke:#038048;stroke-width:1.0;"/><text fill="#000000" font-family="sans-serif" font-size="14" lengthAdjust="spacing" textLength="150" x="104" y="132.9951">String STAYTEXTURE</text><ellipse cx="95" cy="145.9453" fill="none" rx="3" ry="3" style="stroke:#038048;stroke-width:1.0;"/><text fill="#000000" font-family="sans-serif" font-size="14" lengthAdjust="spacing" textLength="159" x="104" y="149.292">OtherConstantStrings</text><ellipse cx="95" cy="162.2422" fill="none" rx="3" ry="3" style="stroke:#038048;stroke-width:1.0;"/><text fill="#000000" font-family="sans-serif" font-size="14" lengthAdjust="spacing" textLength="129" x="104" y="165.5889">int[][] coordinates</text><ellipse cx="95" cy="178.5391" fill="none" rx="3" ry="3" style="stroke:#038048;stroke-width:1.0;"/><text fill="#000000" font-family="sans-serif" font-size="14" lengthAdjust="spacing" textLength="128" x="104" y="181.8857">int[] boundingBox</text><ellipse cx="95" cy="194.8359" fill="none" rx="3" ry="3" style="stroke:#038048;stroke-width:1.0;"/><text fill="#000000" font-family="sans-serif" font-size="14" lengthAdjust="spacing" textLength="143" x="104" y="198.1826">String textureName</text><ellipse cx="95" cy="211.1328" fill="none" rx="3" ry="3" style="stroke:#038048;stroke-width:1.0;"/><text fill="#000000" font-family="sans-serif" font-size="14" lengthAdjust="spacing" textLength="68" x="104" y="214.4795">int speed</text><ellipse cx="95" cy="227.4297" fill="none" rx="3" ry="3" style="stroke:#038048;stroke-width:1.0;"/><text fill="#000000" font-family="sans-serif" font-size="14" lengthAdjust="spacing" textLength="80" x="104" y="230.7764">boolean up</text><ellipse cx="95" cy="243.7266" fill="none" rx="3" ry="3" style="stroke:#038048;stroke-width:1.0;"/><text fill="#000000" font-family="sans-serif" font-size="14" lengthAdjust="spacing" textLength="100" x="104" y="247.0732">boolean down</text><ellipse cx="95" cy="260.0234" fill="none" rx="3" ry="3" style="stroke:#038048;stroke-width:1.0;"/><text fill="#000000" font-family="sans-serif" font-size="14" lengthAdjust="spacing" textLength="97" x="104" y="263.3701">boolean right</text><ellipse cx="95" cy="276.3203" fill="none" rx="3" ry="3" style="stroke:#038048;stroke-width:1.0;"/><text fill="#000000" font-family="sans-serif" font-size="14" lengthAdjust="spacing" textLength="88" x="104" y="279.667">boolean left</text><ellipse cx="95" cy="292.6172" fill="none" rx="3" ry="3" style="stroke:#038048;stroke-width:1.0;"/><text fill="#000000" font-family="sans-serif" font-size="14" lengthAdjust="spacing" textLength="126" x="104" y="295.9639">Timer resetTimer</text><line style="stroke:#181818;stroke-width:0.5;" x1="85" x2="633" y1="303.2656" y2="303.2656"/><ellipse cx="95" cy="316.9141" fill="#84BE84" rx="3" ry="3" style="stroke:#038048;stroke-width:1.0;"/><text fill="#000000" font-family="sans-serif" font-size="14" lengthAdjust="spacing" textLength="524" x="104" y="320.2607">Fox(int xAbs, int yAbs, int xVis, int yVis, int xBox, int yBox, int newSpeed)</text><ellipse cx="95" cy="333.2109" fill="#84BE84" rx="3" ry="3" style="stroke:#038048;stroke-width:1.0;"/><text fill="#000000" font-family="sans-serif" font-size="14" lengthAdjust="spacing" textLength="109" x="104" y="336.5576">void moveFox()</text><ellipse cx="95" cy="349.5078" fill="#84BE84" rx="3" ry="3" style="stroke:#038048;stroke-width:1.0;"/><text fill="#000000" font-family="sans-serif" font-size="14" lengthAdjust="spacing" textLength="103" x="104" y="352.8545">void moveUp()</text><ellipse cx="95" cy="365.8047" fill="#84BE84" rx="3" ry="3" style="stroke:#038048;stroke-width:1.0;"/><text fill="#000000" font-family="sans-serif" font-size="14" lengthAdjust="spacing" textLength="124" x="104" y="369.1514">void moveDown()</text><ellipse cx="95" cy="382.1016" fill="#84BE84" rx="3" ry="3" style="stroke:#038048;stroke-width:1.0;"/><text fill="#000000" font-family="sans-serif" font-size="14" lengthAdjust="spacing" textLength="123" x="104" y="385.4482">void moveRight()</text><ellipse cx="95" cy="398.3984" fill="#84BE84" rx="3" ry="3" style="stroke:#038048;stroke-width:1.0;"/><text fill="#000000" font-family="sans-serif" font-size="14" lengthAdjust="spacing" textLength="114" x="104" y="401.7451">void moveLeft()</text><ellipse cx="95" cy="414.6953" fill="#84BE84" rx="3" ry="3" style="stroke:#038048;stroke-width:1.0;"/><text fill="#000000" font-family="sans-serif" font-size="14" lengthAdjust="spacing" textLength="102" x="104" y="418.042">void stopFox()</text><ellipse cx="95" cy="430.9922" fill="#84BE84" rx="3" ry="3" style="stroke:#038048;stroke-width:1.0;"/><text fill="#000000" font-family="sans-serif" font-size="14" lengthAdjust="spacing" textLength="90" x="104" y="434.3389">void killFox()</text><ellipse cx="95" cy="447.2891" fill="#84BE84" rx="3" ry="3" style="stroke:#038048;stroke-width:1.0;"/><text fill="#000000" font-family="sans-serif" font-size="14" lengthAdjust="spacing" textLength="94" x="104" y="450.6357">int getxAbs()</text><ellipse cx="95" cy="463.5859" fill="#84BE84" rx="3" ry="3" style="stroke:#038048;stroke-width:1.0;"/><text fill="#000000" font-family="sans-serif" font-size="14" lengthAdjust="spacing" textLength="141" x="104" y="466.9326">OtherGetMethods()</text><ellipse cx="95" cy="479.8828" fill="#84BE84" rx="3" ry="3" style="stroke:#038048;stroke-width:1.0;"/><text fill="#000000" font-family="sans-serif" font-size="14" lengthAdjust="spacing" textLength="180" x="104" y="483.2295">String getTextureName()</text><ellipse cx="95" cy="496.1797" fill="#84BE84" rx="3" ry="3" style="stroke:#038048;stroke-width:1.0;"/><text fill="#000000" font-family="sans-serif" font-size="14" lengthAdjust="spacing" textLength="116" x="104" y="499.5264">boolean getUp()</text><ellipse cx="95" cy="512.4766" fill="#84BE84" rx="3" ry="3" style="stroke:#038048;stroke-width:1.0;"/><text fill="#000000" font-family="sans-serif" font-size="14" lengthAdjust="spacing" textLength="141" x="104" y="515.8232">OtherGetMethods()</text><ellipse cx="95" cy="528.7734" fill="#84BE84" rx="3" ry="3" style="stroke:#038048;stroke-width:1.0;"/><text fill="#000000" font-family="sans-serif" font-size="14" lengthAdjust="spacing" textLength="206" x="104" y="532.1201">Rectangle getBoundingBox()</text><ellipse cx="95" cy="545.0703" fill="#84BE84" rx="3" ry="3" style="stroke:#038048;stroke-width:1.0;"/><text fill="#000000" font-family="sans-serif" font-size="14" lengthAdjust="spacing" textLength="225" x="104" y="548.417">Rectangle getSurroundingBox()</text><ellipse cx="95" cy="561.3672" fill="#84BE84" rx="3" ry="3" style="stroke:#038048;stroke-width:1.0;"/><text fill="#000000" font-family="sans-serif" font-size="14" lengthAdjust="spacing" textLength="190" x="104" y="564.7139">void setxAbs(int newxAbs)</text><ellipse cx="95" cy="577.6641" fill="#84BE84" rx="3" ry="3" style="stroke:#038048;stroke-width:1.0;"/><text fill="#000000" font-family="sans-serif" font-size="14" lengthAdjust="spacing" textLength="139" x="104" y="581.0107">OtherSetMethods()</text></g><!--MD5=[5c8ec346e276236c3262ad01c2d77edb]
link Entity to Vehicle--><g id="link_Entity_Vehicle"><path codeLine="88" d="M1214.52,441.8 C1162.17,493.896 1092.7,553.038 1019,588 C877.198,655.268 824.195,613.879 671,648 C665.219,649.288 659.386,650.613 653.514,651.972 " fill="none" id="Entity-Vehicle" style="stroke:#181818;stroke-width:1.0;"/></g><!--MD5=[6f170224038b1d3b1e3d0d53309ec3e3]
link Entity to Coin--><g id="link_Entity_Coin"><path codeLine="89" d="M1188.75,441.572 C1088.7,529.312 952.215,648.996 888.491,704.877 " fill="none" id="Entity-Coin" style="stroke:#181818;stroke-width:1.0;"/></g><!--MD5=[211416e0e0f0a134158edae037089fa2]
link Entity to Rock--><g id="link_Entity_Rock"><path codeLine="90" d="M1310.62,441.572 C1312.82,529.312 1315.82,648.996 1317.22,704.877 " fill="none" id="Entity-Rock" style="stroke:#181818;stroke-width:1.0;"/></g><!--MD5=[93ec9c6920bb71f63d37f52b19ce607a]
link Entity to Tree--><g id="link_Entity_Tree"><path codeLine="91" d="M1458.96,441.572 C1579.46,525.041 1741.69,637.419 1826.65,696.273 " fill="none" id="Entity-Tree" style="stroke:#181818;stroke-width:1.0;"/></g><!--MD5=[c06bf3d0acea83d599c1bdd024019ad2]
@startuml
package logic {
  package characters {
    class Entity{
      +int[] coordinates
      +int[] boundingBox
      +String textureName
      +Entity(int xAbs, int yAbs, int xBox, int yBox, String newTextureName)
      +int getxAbs()
      +OtherGetMethods()
      +String getTextureName()
      +Rectangle getBoundingBox()
      +void setxAbs(int newxAbs)
      +OtherSetMethods()
    }
    class EntityGroup{
      +int[] SMALL_VEHICLE_DIMENSIONS
      +int[] MID_VEHICLE_DIMENSIONS
      +int[] BIG_VEHICLE_DIMENSIONS
      +String PORSCHE_UP
      +OtherConstantStrings
      +String PORSCHE_DOWN
      +OtherConstantStrings
      +String[] VEHICLE_UP_ARRAY
      +String[] VEHICLE_DOWN_ARRAY
      +LinkedList<Entity> entityList
      +LinkedList<Vehicle> vehicleList
      +int oldRand
      +int numberOfTrucks
      +int countVehicles
      +EntityGroup()
      +void updateList()
      +void generateEntityList()
      +Vehicle generateRandom(int[] element)
      +void fixVehiclesOverLap()
      +LinkedList<Entity> getEntityList()
      +LinkedList<Vehicle> getVehicleList()
    }
    class Vehicle {
      +String TOUP
      +OtherConstantStrings
      +int speed
      +Vehicle(int xAbs, int yAbs, int xBox, int yBox, String newTextureName, int speed)
      +int getSpeed()
      +int setSpeed(int newSpeed)
      +void move()
      +void centerVehicle
    }
    class Coin {
      +Coin(int xAbs, int yAbs, int xBox, int yBox)
    }
    class Rock {
      +Rock(int xAbs, int yAbs, int xBox, int yBox, int randomTextureNumber)
    }
    class Tree {
      +Tree(int xAbs, int yAbs, int xBox, int yBox, int randomTextureNumber)
      +Rectangle getBoundingBox()
    }
    class Fox {
      +String STAYTEXTURE
      +OtherConstantStrings
      +int[][] coordinates
      +int[] boundingBox
      +String textureName
      +int speed
      +boolean up
      +boolean down
      +boolean right
      +boolean left
      +Timer resetTimer
      +Fox(int xAbs, int yAbs, int xVis, int yVis, int xBox, int yBox, int newSpeed)
      +void moveFox()
      +void moveUp()
      +void moveDown()
      +void moveRight()
      +void moveLeft()
      +void stopFox()
      +void killFox()
      +int getxAbs()
      +OtherGetMethods()
      +String getTextureName()
      +boolean getUp()
      +OtherGetMethods()
      +Rectangle getBoundingBox()
      +Rectangle getSurroundingBox()
      +void setxAbs(int newxAbs)
      +OtherSetMethods() 
    }
    Entity == Vehicle
    Entity == Coin
    Entity == Rock
    Entity == Tree
  }
}
@enduml

PlantUML version 1.2022.13beta8(Unknown compile time)
(GPL source distribution)
Java Runtime: Java(TM) SE Runtime Environment
JVM: Java HotSpot(TM) 64-Bit Server VM
Default Encoding: UTF-8
Language: en
Country: US
--></g></svg>