<?xml version="1.0" encoding="UTF-8" standalone="no"?><svg xmlns="http://www.w3.org/2000/svg" xmlns:xlink="http://www.w3.org/1999/xlink" contentStyleType="text/css" height="518px" preserveAspectRatio="none" style="width:1659px;height:518px;background:#FFFFFF;" version="1.1" viewBox="0 0 1659 518" width="1659px" zoomAndPan="magnify"><defs/><g><!--MD5=[cbbcdfd2ff286cf453505908e439d9c0]
cluster logic--><g id="cluster_logic"><path d="M8.5,6 L48.5,6 A3.75,3.75 0 0 1 51,8.5 L58,28.2969 L1074.5,28.2969 A2.5,2.5 0 0 1 1077,30.7969 L1077,277.5 A2.5,2.5 0 0 1 1074.5,280 L8.5,280 A2.5,2.5 0 0 1 6,277.5 L6,8.5 A2.5,2.5 0 0 1 8.5,6 " fill="none" style="stroke:#000000;stroke-width:1.5;"/><line style="stroke:#000000;stroke-width:1.5;" x1="6" x2="58" y1="28.2969" y2="28.2969"/><text fill="#000000" font-family="sans-serif" font-size="14" font-weight="bold" lengthAdjust="spacing" textLength="39" x="10" y="20.9951">logic</text></g><!--MD5=[e4003319f18209e837f10cf867afd2c3]
cluster characters--><g id="cluster_characters"><path d="M552.5,49 L641.5,49 A3.75,3.75 0 0 1 644,51.5 L651,71.2969 L968.5,71.2969 A2.5,2.5 0 0 1 971,73.7969 L971,253.5 A2.5,2.5 0 0 1 968.5,256 L552.5,256 A2.5,2.5 0 0 1 550,253.5 L550,51.5 A2.5,2.5 0 0 1 552.5,49 " fill="none" style="stroke:#000000;stroke-width:1.5;"/><line style="stroke:#000000;stroke-width:1.5;" x1="550" x2="651" y1="71.2969" y2="71.2969"/><text fill="#000000" font-family="sans-serif" font-size="14" font-weight="bold" lengthAdjust="spacing" textLength="88" x="554" y="63.9951">characters</text></g><!--MD5=[86cbce8df1eb9d604fbbb2fa357940f8]
cluster view--><g id="cluster_view"><path d="M1149.5,49 L1186.5,49 A3.75,3.75 0 0 1 1189,51.5 L1196,71.2969 L1649.5,71.2969 A2.5,2.5 0 0 1 1652,73.7969 L1652,253.5 A2.5,2.5 0 0 1 1649.5,256 L1149.5,256 A2.5,2.5 0 0 1 1147,253.5 L1147,51.5 A2.5,2.5 0 0 1 1149.5,49 " fill="none" style="stroke:#000000;stroke-width:1.5;"/><line style="stroke:#000000;stroke-width:1.5;" x1="1147" x2="1196" y1="71.2969" y2="71.2969"/><text fill="#000000" font-family="sans-serif" font-size="14" font-weight="bold" lengthAdjust="spacing" textLength="36" x="1151" y="63.9951">view</text></g><!--MD5=[e4fd15ec1eb2c16989c5dac5bcfca7f9]
cluster utilities--><g id="cluster_utilities"><path d="M284.5,304 L349.5,304 A3.75,3.75 0 0 1 352,306.5 L359,326.2969 L829.5,326.2969 A2.5,2.5 0 0 1 832,328.7969 L832,508.5 A2.5,2.5 0 0 1 829.5,511 L284.5,511 A2.5,2.5 0 0 1 282,508.5 L282,306.5 A2.5,2.5 0 0 1 284.5,304 " fill="none" style="stroke:#000000;stroke-width:1.5;"/><line style="stroke:#000000;stroke-width:1.5;" x1="282" x2="359" y1="326.2969" y2="326.2969"/><text fill="#000000" font-family="sans-serif" font-size="14" font-weight="bold" lengthAdjust="spacing" textLength="64" x="286" y="318.9951">utilities</text></g><!--MD5=[bf56bcfcb3ef99066337db6892441063]
class ILogic--><g id="elem_ILogic"><rect codeLine="2" fill="#F1F1F1" height="48" id="ILogic" rx="2.5" ry="2.5" style="stroke:#181818;stroke-width:0.5;" width="74" x="987" y="84"/><ellipse cx="1002" cy="100" fill="#B4A7E5" rx="11" ry="11" style="stroke:#181818;stroke-width:1.0;"/><path d="M1002.9531,96.7813 L1004.6719,96.7813 C1005.0625,96.7813 1005.25,96.75 1005.375,96.6719 C1005.6406,96.5156 1005.7813,96.2344 1005.7813,95.9375 C1005.7813,95.6719 1005.6719,95.4063 1005.4375,95.2344 C1005.2656,95.125 1005.125,95.0938 1004.6719,95.0938 L999.5313,95.0938 C999.0938,95.0938 998.9688,95.1094 998.8125,95.2031 C998.5625,95.3594 998.4063,95.6563 998.4063,95.9375 C998.4063,96.2188 998.5469,96.4688 998.7656,96.6406 C998.9219,96.75 999.1094,96.7813 999.5313,96.7813 L1001.25,96.7813 L1001.25,103.2969 L999.5313,103.2969 C999.0938,103.2969 998.9688,103.3125 998.8125,103.4219 C998.5625,103.5781 998.4063,103.8594 998.4063,104.1563 C998.4063,104.4063 998.5469,104.6719 998.7656,104.8281 C998.9219,104.9531 999.125,105 999.5313,105 L1004.6719,105 C1005.4219,105 1005.7813,104.7188 1005.7813,104.1563 C1005.7813,103.875 1005.6719,103.625 1005.4375,103.4531 C1005.2656,103.3281 1005.125,103.2969 1004.6719,103.2969 L1002.9531,103.2969 L1002.9531,96.7813 Z " fill="#000000"/><text fill="#000000" font-family="sans-serif" font-size="14" font-style="italic" lengthAdjust="spacing" textLength="42" x="1016" y="104.8467">ILogic</text><line style="stroke:#181818;stroke-width:0.5;" x1="988" x2="1060" y1="116" y2="116"/><line style="stroke:#181818;stroke-width:0.5;" x1="988" x2="1060" y1="124" y2="124"/></g><!--MD5=[40d2668bbcd459976779c45dfe17221f]
class Statistics--><g id="elem_Statistics"><rect codeLine="3" fill="#F1F1F1" height="48" id="Statistics" rx="2.5" ry="2.5" style="stroke:#181818;stroke-width:0.5;" width="100" x="58" y="84"/><ellipse cx="73" cy="100" fill="#ADD1B2" rx="11" ry="11" style="stroke:#181818;stroke-width:1.0;"/><path d="M75.3438,95.6719 C74.4063,95.2344 73.8125,95.0938 72.9375,95.0938 C70.3125,95.0938 68.3125,97.1719 68.3125,99.8906 L68.3125,101.0156 C68.3125,103.5938 70.4219,105.4844 73.3125,105.4844 C74.5313,105.4844 75.6875,105.1875 76.4375,104.6406 C77.0156,104.2344 77.3438,103.7813 77.3438,103.3906 C77.3438,102.9375 76.9531,102.5469 76.4844,102.5469 C76.2656,102.5469 76.0625,102.625 75.875,102.8125 C75.4219,103.2969 75.4219,103.2969 75.2344,103.3906 C74.8125,103.6563 74.125,103.7813 73.3594,103.7813 C71.3125,103.7813 70.0156,102.6875 70.0156,100.9844 L70.0156,99.8906 C70.0156,98.1094 71.2656,96.7969 73,96.7969 C73.5781,96.7969 74.1875,96.9531 74.6563,97.2031 C75.1406,97.4844 75.3125,97.7031 75.4063,98.1094 C75.4688,98.5156 75.5,98.6406 75.6406,98.7656 C75.7813,98.9063 76.0156,99.0156 76.2344,99.0156 C76.5,99.0156 76.7656,98.875 76.9375,98.6563 C77.0469,98.5 77.0781,98.3125 77.0781,97.8906 L77.0781,96.4688 C77.0781,96.0313 77.0625,95.9063 76.9688,95.75 C76.8125,95.4844 76.5313,95.3438 76.2344,95.3438 C75.9375,95.3438 75.7344,95.4375 75.5156,95.75 L75.3438,95.6719 Z " fill="#000000"/><text fill="#000000" font-family="sans-serif" font-size="14" lengthAdjust="spacing" textLength="68" x="87" y="104.8467">Statistics</text><line style="stroke:#181818;stroke-width:0.5;" x1="59" x2="157" y1="116" y2="116"/><line style="stroke:#181818;stroke-width:0.5;" x1="59" x2="157" y1="124" y2="124"/></g><!--MD5=[42fa18dda7351a0ae87d9497de925436]
class Logic--><g id="elem_Logic"><rect codeLine="4" fill="#F1F1F1" height="48" id="Logic" rx="2.5" ry="2.5" style="stroke:#181818;stroke-width:0.5;" width="70" x="990" y="192"/><ellipse cx="1005" cy="208" fill="#ADD1B2" rx="11" ry="11" style="stroke:#181818;stroke-width:1.0;"/><path d="M1007.3438,203.6719 C1006.4063,203.2344 1005.8125,203.0938 1004.9375,203.0938 C1002.3125,203.0938 1000.3125,205.1719 1000.3125,207.8906 L1000.3125,209.0156 C1000.3125,211.5938 1002.4219,213.4844 1005.3125,213.4844 C1006.5313,213.4844 1007.6875,213.1875 1008.4375,212.6406 C1009.0156,212.2344 1009.3438,211.7813 1009.3438,211.3906 C1009.3438,210.9375 1008.9531,210.5469 1008.4844,210.5469 C1008.2656,210.5469 1008.0625,210.625 1007.875,210.8125 C1007.4219,211.2969 1007.4219,211.2969 1007.2344,211.3906 C1006.8125,211.6563 1006.125,211.7813 1005.3594,211.7813 C1003.3125,211.7813 1002.0156,210.6875 1002.0156,208.9844 L1002.0156,207.8906 C1002.0156,206.1094 1003.2656,204.7969 1005,204.7969 C1005.5781,204.7969 1006.1875,204.9531 1006.6563,205.2031 C1007.1406,205.4844 1007.3125,205.7031 1007.4063,206.1094 C1007.4688,206.5156 1007.5,206.6406 1007.6406,206.7656 C1007.7813,206.9063 1008.0156,207.0156 1008.2344,207.0156 C1008.5,207.0156 1008.7656,206.875 1008.9375,206.6563 C1009.0469,206.5 1009.0781,206.3125 1009.0781,205.8906 L1009.0781,204.4688 C1009.0781,204.0313 1009.0625,203.9063 1008.9688,203.75 C1008.8125,203.4844 1008.5313,203.3438 1008.2344,203.3438 C1007.9375,203.3438 1007.7344,203.4375 1007.5156,203.75 L1007.3438,203.6719 Z " fill="#000000"/><text fill="#000000" font-family="sans-serif" font-size="14" lengthAdjust="spacing" textLength="38" x="1019" y="212.8467">Logic</text><line style="stroke:#181818;stroke-width:0.5;" x1="991" x2="1059" y1="224" y2="224"/><line style="stroke:#181818;stroke-width:0.5;" x1="991" x2="1059" y1="232" y2="232"/></g><!--MD5=[30acffb5f763cb4ffa0301bee8de40ae]
class KeyHandler--><g id="elem_KeyHandler"><rect codeLine="5" fill="#F1F1F1" height="48" id="KeyHandler" rx="2.5" ry="2.5" style="stroke:#181818;stroke-width:0.5;" width="114" x="193" y="84"/><ellipse cx="208" cy="100" fill="#ADD1B2" rx="11" ry="11" style="stroke:#181818;stroke-width:1.0;"/><path d="M210.3438,95.6719 C209.4063,95.2344 208.8125,95.0938 207.9375,95.0938 C205.3125,95.0938 203.3125,97.1719 203.3125,99.8906 L203.3125,101.0156 C203.3125,103.5938 205.4219,105.4844 208.3125,105.4844 C209.5313,105.4844 210.6875,105.1875 211.4375,104.6406 C212.0156,104.2344 212.3438,103.7813 212.3438,103.3906 C212.3438,102.9375 211.9531,102.5469 211.4844,102.5469 C211.2656,102.5469 211.0625,102.625 210.875,102.8125 C210.4219,103.2969 210.4219,103.2969 210.2344,103.3906 C209.8125,103.6563 209.125,103.7813 208.3594,103.7813 C206.3125,103.7813 205.0156,102.6875 205.0156,100.9844 L205.0156,99.8906 C205.0156,98.1094 206.2656,96.7969 208,96.7969 C208.5781,96.7969 209.1875,96.9531 209.6563,97.2031 C210.1406,97.4844 210.3125,97.7031 210.4063,98.1094 C210.4688,98.5156 210.5,98.6406 210.6406,98.7656 C210.7813,98.9063 211.0156,99.0156 211.2344,99.0156 C211.5,99.0156 211.7656,98.875 211.9375,98.6563 C212.0469,98.5 212.0781,98.3125 212.0781,97.8906 L212.0781,96.4688 C212.0781,96.0313 212.0625,95.9063 211.9688,95.75 C211.8125,95.4844 211.5313,95.3438 211.2344,95.3438 C210.9375,95.3438 210.7344,95.4375 210.5156,95.75 L210.3438,95.6719 Z " fill="#000000"/><text fill="#000000" font-family="sans-serif" font-size="14" lengthAdjust="spacing" textLength="82" x="222" y="104.8467">KeyHandler</text><line style="stroke:#181818;stroke-width:0.5;" x1="194" x2="306" y1="116" y2="116"/><line style="stroke:#181818;stroke-width:0.5;" x1="194" x2="306" y1="124" y2="124"/></g><!--MD5=[fa42a136f72ee5ca549d69e1d8f77d2d]
class StaticSoundController--><g id="elem_StaticSoundController"><rect codeLine="6" fill="#F1F1F1" height="48" id="StaticSoundController" rx="2.5" ry="2.5" style="stroke:#181818;stroke-width:0.5;" width="192" x="342" y="84"/><ellipse cx="357" cy="100" fill="#ADD1B2" rx="11" ry="11" style="stroke:#181818;stroke-width:1.0;"/><path d="M359.3438,95.6719 C358.4063,95.2344 357.8125,95.0938 356.9375,95.0938 C354.3125,95.0938 352.3125,97.1719 352.3125,99.8906 L352.3125,101.0156 C352.3125,103.5938 354.4219,105.4844 357.3125,105.4844 C358.5313,105.4844 359.6875,105.1875 360.4375,104.6406 C361.0156,104.2344 361.3438,103.7813 361.3438,103.3906 C361.3438,102.9375 360.9531,102.5469 360.4844,102.5469 C360.2656,102.5469 360.0625,102.625 359.875,102.8125 C359.4219,103.2969 359.4219,103.2969 359.2344,103.3906 C358.8125,103.6563 358.125,103.7813 357.3594,103.7813 C355.3125,103.7813 354.0156,102.6875 354.0156,100.9844 L354.0156,99.8906 C354.0156,98.1094 355.2656,96.7969 357,96.7969 C357.5781,96.7969 358.1875,96.9531 358.6563,97.2031 C359.1406,97.4844 359.3125,97.7031 359.4063,98.1094 C359.4688,98.5156 359.5,98.6406 359.6406,98.7656 C359.7813,98.9063 360.0156,99.0156 360.2344,99.0156 C360.5,99.0156 360.7656,98.875 360.9375,98.6563 C361.0469,98.5 361.0781,98.3125 361.0781,97.8906 L361.0781,96.4688 C361.0781,96.0313 361.0625,95.9063 360.9688,95.75 C360.8125,95.4844 360.5313,95.3438 360.2344,95.3438 C359.9375,95.3438 359.7344,95.4375 359.5156,95.75 L359.3438,95.6719 Z " fill="#000000"/><text fill="#000000" font-family="sans-serif" font-size="14" lengthAdjust="spacing" textLength="160" x="371" y="104.8467">StaticSoundController</text><line style="stroke:#181818;stroke-width:0.5;" x1="343" x2="533" y1="116" y2="116"/><line style="stroke:#181818;stroke-width:0.5;" x1="343" x2="533" y1="124" y2="124"/></g><!--MD5=[a6630b1eeb254db03b9cef8006c2ecf7]
class DynamicSoundController--><g id="elem_DynamicSoundController"><rect codeLine="7" fill="#F1F1F1" height="48" id="DynamicSoundController" rx="2.5" ry="2.5" style="stroke:#181818;stroke-width:0.5;" width="211" x="22.5" y="192"/><ellipse cx="37.5" cy="208" fill="#ADD1B2" rx="11" ry="11" style="stroke:#181818;stroke-width:1.0;"/><path d="M39.8438,203.6719 C38.9063,203.2344 38.3125,203.0938 37.4375,203.0938 C34.8125,203.0938 32.8125,205.1719 32.8125,207.8906 L32.8125,209.0156 C32.8125,211.5938 34.9219,213.4844 37.8125,213.4844 C39.0313,213.4844 40.1875,213.1875 40.9375,212.6406 C41.5156,212.2344 41.8438,211.7813 41.8438,211.3906 C41.8438,210.9375 41.4531,210.5469 40.9844,210.5469 C40.7656,210.5469 40.5625,210.625 40.375,210.8125 C39.9219,211.2969 39.9219,211.2969 39.7344,211.3906 C39.3125,211.6563 38.625,211.7813 37.8594,211.7813 C35.8125,211.7813 34.5156,210.6875 34.5156,208.9844 L34.5156,207.8906 C34.5156,206.1094 35.7656,204.7969 37.5,204.7969 C38.0781,204.7969 38.6875,204.9531 39.1563,205.2031 C39.6406,205.4844 39.8125,205.7031 39.9063,206.1094 C39.9688,206.5156 40,206.6406 40.1406,206.7656 C40.2813,206.9063 40.5156,207.0156 40.7344,207.0156 C41,207.0156 41.2656,206.875 41.4375,206.6563 C41.5469,206.5 41.5781,206.3125 41.5781,205.8906 L41.5781,204.4688 C41.5781,204.0313 41.5625,203.9063 41.4688,203.75 C41.3125,203.4844 41.0313,203.3438 40.7344,203.3438 C40.4375,203.3438 40.2344,203.4375 40.0156,203.75 L39.8438,203.6719 Z " fill="#000000"/><text fill="#000000" font-family="sans-serif" font-size="14" lengthAdjust="spacing" textLength="179" x="51.5" y="212.8467">DynamicSoundController</text><line style="stroke:#181818;stroke-width:0.5;" x1="23.5" x2="232.5" y1="224" y2="224"/><line style="stroke:#181818;stroke-width:0.5;" x1="23.5" x2="232.5" y1="232" y2="232"/></g><!--MD5=[4dfc6a72b8dd60daa1b635d583ff79da]
class Map--><g id="elem_Map"><rect codeLine="8" fill="#F1F1F1" height="48" id="Map" rx="2.5" ry="2.5" style="stroke:#181818;stroke-width:0.5;" width="62" x="269" y="192"/><ellipse cx="284" cy="208" fill="#ADD1B2" rx="11" ry="11" style="stroke:#181818;stroke-width:1.0;"/><path d="M286.3438,203.6719 C285.4063,203.2344 284.8125,203.0938 283.9375,203.0938 C281.3125,203.0938 279.3125,205.1719 279.3125,207.8906 L279.3125,209.0156 C279.3125,211.5938 281.4219,213.4844 284.3125,213.4844 C285.5313,213.4844 286.6875,213.1875 287.4375,212.6406 C288.0156,212.2344 288.3438,211.7813 288.3438,211.3906 C288.3438,210.9375 287.9531,210.5469 287.4844,210.5469 C287.2656,210.5469 287.0625,210.625 286.875,210.8125 C286.4219,211.2969 286.4219,211.2969 286.2344,211.3906 C285.8125,211.6563 285.125,211.7813 284.3594,211.7813 C282.3125,211.7813 281.0156,210.6875 281.0156,208.9844 L281.0156,207.8906 C281.0156,206.1094 282.2656,204.7969 284,204.7969 C284.5781,204.7969 285.1875,204.9531 285.6563,205.2031 C286.1406,205.4844 286.3125,205.7031 286.4063,206.1094 C286.4688,206.5156 286.5,206.6406 286.6406,206.7656 C286.7813,206.9063 287.0156,207.0156 287.2344,207.0156 C287.5,207.0156 287.7656,206.875 287.9375,206.6563 C288.0469,206.5 288.0781,206.3125 288.0781,205.8906 L288.0781,204.4688 C288.0781,204.0313 288.0625,203.9063 287.9688,203.75 C287.8125,203.4844 287.5313,203.3438 287.2344,203.3438 C286.9375,203.3438 286.7344,203.4375 286.5156,203.75 L286.3438,203.6719 Z " fill="#000000"/><text fill="#000000" font-family="sans-serif" font-size="14" lengthAdjust="spacing" textLength="30" x="298" y="212.8467">Map</text><line style="stroke:#181818;stroke-width:0.5;" x1="270" x2="330" y1="224" y2="224"/><line style="stroke:#181818;stroke-width:0.5;" x1="270" x2="330" y1="232" y2="232"/></g><!--MD5=[bd7fe129fbc368b1084c5b4e44aeb899]
class CollisionController--><g id="elem_CollisionController"><rect codeLine="9" fill="#F1F1F1" height="48" id="CollisionController" rx="2.5" ry="2.5" style="stroke:#181818;stroke-width:0.5;" width="165" x="366.5" y="192"/><ellipse cx="381.5" cy="208" fill="#ADD1B2" rx="11" ry="11" style="stroke:#181818;stroke-width:1.0;"/><path d="M383.8438,203.6719 C382.9063,203.2344 382.3125,203.0938 381.4375,203.0938 C378.8125,203.0938 376.8125,205.1719 376.8125,207.8906 L376.8125,209.0156 C376.8125,211.5938 378.9219,213.4844 381.8125,213.4844 C383.0313,213.4844 384.1875,213.1875 384.9375,212.6406 C385.5156,212.2344 385.8438,211.7813 385.8438,211.3906 C385.8438,210.9375 385.4531,210.5469 384.9844,210.5469 C384.7656,210.5469 384.5625,210.625 384.375,210.8125 C383.9219,211.2969 383.9219,211.2969 383.7344,211.3906 C383.3125,211.6563 382.625,211.7813 381.8594,211.7813 C379.8125,211.7813 378.5156,210.6875 378.5156,208.9844 L378.5156,207.8906 C378.5156,206.1094 379.7656,204.7969 381.5,204.7969 C382.0781,204.7969 382.6875,204.9531 383.1563,205.2031 C383.6406,205.4844 383.8125,205.7031 383.9063,206.1094 C383.9688,206.5156 384,206.6406 384.1406,206.7656 C384.2813,206.9063 384.5156,207.0156 384.7344,207.0156 C385,207.0156 385.2656,206.875 385.4375,206.6563 C385.5469,206.5 385.5781,206.3125 385.5781,205.8906 L385.5781,204.4688 C385.5781,204.0313 385.5625,203.9063 385.4688,203.75 C385.3125,203.4844 385.0313,203.3438 384.7344,203.3438 C384.4375,203.3438 384.2344,203.4375 384.0156,203.75 L383.8438,203.6719 Z " fill="#000000"/><text fill="#000000" font-family="sans-serif" font-size="14" lengthAdjust="spacing" textLength="133" x="395.5" y="212.8467">CollisionController</text><line style="stroke:#181818;stroke-width:0.5;" x1="367.5" x2="530.5" y1="224" y2="224"/><line style="stroke:#181818;stroke-width:0.5;" x1="367.5" x2="530.5" y1="232" y2="232"/></g><!--MD5=[be996cdb8e6bf2fc7cb89c555f2cd144]
class Entity--><g id="elem_Entity"><rect codeLine="11" fill="#F1F1F1" height="48" id="Entity" rx="2.5" ry="2.5" style="stroke:#181818;stroke-width:0.5;" width="76" x="817" y="84"/><ellipse cx="832" cy="100" fill="#ADD1B2" rx="11" ry="11" style="stroke:#181818;stroke-width:1.0;"/><path d="M834.3438,95.6719 C833.4063,95.2344 832.8125,95.0938 831.9375,95.0938 C829.3125,95.0938 827.3125,97.1719 827.3125,99.8906 L827.3125,101.0156 C827.3125,103.5938 829.4219,105.4844 832.3125,105.4844 C833.5313,105.4844 834.6875,105.1875 835.4375,104.6406 C836.0156,104.2344 836.3438,103.7813 836.3438,103.3906 C836.3438,102.9375 835.9531,102.5469 835.4844,102.5469 C835.2656,102.5469 835.0625,102.625 834.875,102.8125 C834.4219,103.2969 834.4219,103.2969 834.2344,103.3906 C833.8125,103.6563 833.125,103.7813 832.3594,103.7813 C830.3125,103.7813 829.0156,102.6875 829.0156,100.9844 L829.0156,99.8906 C829.0156,98.1094 830.2656,96.7969 832,96.7969 C832.5781,96.7969 833.1875,96.9531 833.6563,97.2031 C834.1406,97.4844 834.3125,97.7031 834.4063,98.1094 C834.4688,98.5156 834.5,98.6406 834.6406,98.7656 C834.7813,98.9063 835.0156,99.0156 835.2344,99.0156 C835.5,99.0156 835.7656,98.875 835.9375,98.6563 C836.0469,98.5 836.0781,98.3125 836.0781,97.8906 L836.0781,96.4688 C836.0781,96.0313 836.0625,95.9063 835.9688,95.75 C835.8125,95.4844 835.5313,95.3438 835.2344,95.3438 C834.9375,95.3438 834.7344,95.4375 834.5156,95.75 L834.3438,95.6719 Z " fill="#000000"/><text fill="#000000" font-family="sans-serif" font-size="14" lengthAdjust="spacing" textLength="44" x="846" y="104.8467">Entity</text><line style="stroke:#181818;stroke-width:0.5;" x1="818" x2="892" y1="116" y2="116"/><line style="stroke:#181818;stroke-width:0.5;" x1="818" x2="892" y1="124" y2="124"/></g><!--MD5=[c5be77fde508ca8731ffeda03e25fbf2]
class EntityGroup--><g id="elem_EntityGroup"><rect codeLine="12" fill="#F1F1F1" height="48" id="EntityGroup" rx="2.5" ry="2.5" style="stroke:#181818;stroke-width:0.5;" width="120" x="662" y="84"/><ellipse cx="677" cy="100" fill="#ADD1B2" rx="11" ry="11" style="stroke:#181818;stroke-width:1.0;"/><path d="M679.3438,95.6719 C678.4063,95.2344 677.8125,95.0938 676.9375,95.0938 C674.3125,95.0938 672.3125,97.1719 672.3125,99.8906 L672.3125,101.0156 C672.3125,103.5938 674.4219,105.4844 677.3125,105.4844 C678.5313,105.4844 679.6875,105.1875 680.4375,104.6406 C681.0156,104.2344 681.3438,103.7813 681.3438,103.3906 C681.3438,102.9375 680.9531,102.5469 680.4844,102.5469 C680.2656,102.5469 680.0625,102.625 679.875,102.8125 C679.4219,103.2969 679.4219,103.2969 679.2344,103.3906 C678.8125,103.6563 678.125,103.7813 677.3594,103.7813 C675.3125,103.7813 674.0156,102.6875 674.0156,100.9844 L674.0156,99.8906 C674.0156,98.1094 675.2656,96.7969 677,96.7969 C677.5781,96.7969 678.1875,96.9531 678.6563,97.2031 C679.1406,97.4844 679.3125,97.7031 679.4063,98.1094 C679.4688,98.5156 679.5,98.6406 679.6406,98.7656 C679.7813,98.9063 680.0156,99.0156 680.2344,99.0156 C680.5,99.0156 680.7656,98.875 680.9375,98.6563 C681.0469,98.5 681.0781,98.3125 681.0781,97.8906 L681.0781,96.4688 C681.0781,96.0313 681.0625,95.9063 680.9688,95.75 C680.8125,95.4844 680.5313,95.3438 680.2344,95.3438 C679.9375,95.3438 679.7344,95.4375 679.5156,95.75 L679.3438,95.6719 Z " fill="#000000"/><text fill="#000000" font-family="sans-serif" font-size="14" lengthAdjust="spacing" textLength="88" x="691" y="104.8467">EntityGroup</text><line style="stroke:#181818;stroke-width:0.5;" x1="663" x2="781" y1="116" y2="116"/><line style="stroke:#181818;stroke-width:0.5;" x1="663" x2="781" y1="124" y2="124"/></g><!--MD5=[3aa0d89c6bfdcbf7f32042cedac57549]
class Vehicle--><g id="elem_Vehicle"><rect codeLine="13" fill="#F1F1F1" height="48" id="Vehicle" rx="2.5" ry="2.5" style="stroke:#181818;stroke-width:0.5;" width="85" x="566.5" y="192"/><ellipse cx="581.5" cy="208" fill="#ADD1B2" rx="11" ry="11" style="stroke:#181818;stroke-width:1.0;"/><path d="M583.8438,203.6719 C582.9063,203.2344 582.3125,203.0938 581.4375,203.0938 C578.8125,203.0938 576.8125,205.1719 576.8125,207.8906 L576.8125,209.0156 C576.8125,211.5938 578.9219,213.4844 581.8125,213.4844 C583.0313,213.4844 584.1875,213.1875 584.9375,212.6406 C585.5156,212.2344 585.8438,211.7813 585.8438,211.3906 C585.8438,210.9375 585.4531,210.5469 584.9844,210.5469 C584.7656,210.5469 584.5625,210.625 584.375,210.8125 C583.9219,211.2969 583.9219,211.2969 583.7344,211.3906 C583.3125,211.6563 582.625,211.7813 581.8594,211.7813 C579.8125,211.7813 578.5156,210.6875 578.5156,208.9844 L578.5156,207.8906 C578.5156,206.1094 579.7656,204.7969 581.5,204.7969 C582.0781,204.7969 582.6875,204.9531 583.1563,205.2031 C583.6406,205.4844 583.8125,205.7031 583.9063,206.1094 C583.9688,206.5156 584,206.6406 584.1406,206.7656 C584.2813,206.9063 584.5156,207.0156 584.7344,207.0156 C585,207.0156 585.2656,206.875 585.4375,206.6563 C585.5469,206.5 585.5781,206.3125 585.5781,205.8906 L585.5781,204.4688 C585.5781,204.0313 585.5625,203.9063 585.4688,203.75 C585.3125,203.4844 585.0313,203.3438 584.7344,203.3438 C584.4375,203.3438 584.2344,203.4375 584.0156,203.75 L583.8438,203.6719 Z " fill="#000000"/><text fill="#000000" font-family="sans-serif" font-size="14" lengthAdjust="spacing" textLength="53" x="595.5" y="212.8467">Vehicle</text><line style="stroke:#181818;stroke-width:0.5;" x1="567.5" x2="650.5" y1="224" y2="224"/><line style="stroke:#181818;stroke-width:0.5;" x1="567.5" x2="650.5" y1="232" y2="232"/></g><!--MD5=[1da8f80c0a6f875dfd1b47fac061377f]
class Coin--><g id="elem_Coin"><rect codeLine="14" fill="#F1F1F1" height="48" id="Coin" rx="2.5" ry="2.5" style="stroke:#181818;stroke-width:0.5;" width="64" x="687" y="192"/><ellipse cx="702" cy="208" fill="#ADD1B2" rx="11" ry="11" style="stroke:#181818;stroke-width:1.0;"/><path d="M704.3438,203.6719 C703.4063,203.2344 702.8125,203.0938 701.9375,203.0938 C699.3125,203.0938 697.3125,205.1719 697.3125,207.8906 L697.3125,209.0156 C697.3125,211.5938 699.4219,213.4844 702.3125,213.4844 C703.5313,213.4844 704.6875,213.1875 705.4375,212.6406 C706.0156,212.2344 706.3438,211.7813 706.3438,211.3906 C706.3438,210.9375 705.9531,210.5469 705.4844,210.5469 C705.2656,210.5469 705.0625,210.625 704.875,210.8125 C704.4219,211.2969 704.4219,211.2969 704.2344,211.3906 C703.8125,211.6563 703.125,211.7813 702.3594,211.7813 C700.3125,211.7813 699.0156,210.6875 699.0156,208.9844 L699.0156,207.8906 C699.0156,206.1094 700.2656,204.7969 702,204.7969 C702.5781,204.7969 703.1875,204.9531 703.6563,205.2031 C704.1406,205.4844 704.3125,205.7031 704.4063,206.1094 C704.4688,206.5156 704.5,206.6406 704.6406,206.7656 C704.7813,206.9063 705.0156,207.0156 705.2344,207.0156 C705.5,207.0156 705.7656,206.875 705.9375,206.6563 C706.0469,206.5 706.0781,206.3125 706.0781,205.8906 L706.0781,204.4688 C706.0781,204.0313 706.0625,203.9063 705.9688,203.75 C705.8125,203.4844 705.5313,203.3438 705.2344,203.3438 C704.9375,203.3438 704.7344,203.4375 704.5156,203.75 L704.3438,203.6719 Z " fill="#000000"/><text fill="#000000" font-family="sans-serif" font-size="14" lengthAdjust="spacing" textLength="32" x="716" y="212.8467">Coin</text><line style="stroke:#181818;stroke-width:0.5;" x1="688" x2="750" y1="224" y2="224"/><line style="stroke:#181818;stroke-width:0.5;" x1="688" x2="750" y1="232" y2="232"/></g><!--MD5=[babbdcee04bece8cbf7161975973616a]
class Rock--><g id="elem_Rock"><rect codeLine="15" fill="#F1F1F1" height="48" id="Rock" rx="2.5" ry="2.5" style="stroke:#181818;stroke-width:0.5;" width="68" x="786" y="192"/><ellipse cx="801" cy="208" fill="#ADD1B2" rx="11" ry="11" style="stroke:#181818;stroke-width:1.0;"/><path d="M803.3438,203.6719 C802.4063,203.2344 801.8125,203.0938 800.9375,203.0938 C798.3125,203.0938 796.3125,205.1719 796.3125,207.8906 L796.3125,209.0156 C796.3125,211.5938 798.4219,213.4844 801.3125,213.4844 C802.5313,213.4844 803.6875,213.1875 804.4375,212.6406 C805.0156,212.2344 805.3438,211.7813 805.3438,211.3906 C805.3438,210.9375 804.9531,210.5469 804.4844,210.5469 C804.2656,210.5469 804.0625,210.625 803.875,210.8125 C803.4219,211.2969 803.4219,211.2969 803.2344,211.3906 C802.8125,211.6563 802.125,211.7813 801.3594,211.7813 C799.3125,211.7813 798.0156,210.6875 798.0156,208.9844 L798.0156,207.8906 C798.0156,206.1094 799.2656,204.7969 801,204.7969 C801.5781,204.7969 802.1875,204.9531 802.6563,205.2031 C803.1406,205.4844 803.3125,205.7031 803.4063,206.1094 C803.4688,206.5156 803.5,206.6406 803.6406,206.7656 C803.7813,206.9063 804.0156,207.0156 804.2344,207.0156 C804.5,207.0156 804.7656,206.875 804.9375,206.6563 C805.0469,206.5 805.0781,206.3125 805.0781,205.8906 L805.0781,204.4688 C805.0781,204.0313 805.0625,203.9063 804.9688,203.75 C804.8125,203.4844 804.5313,203.3438 804.2344,203.3438 C803.9375,203.3438 803.7344,203.4375 803.5156,203.75 L803.3438,203.6719 Z " fill="#000000"/><text fill="#000000" font-family="sans-serif" font-size="14" lengthAdjust="spacing" textLength="36" x="815" y="212.8467">Rock</text><line style="stroke:#181818;stroke-width:0.5;" x1="787" x2="853" y1="224" y2="224"/><line style="stroke:#181818;stroke-width:0.5;" x1="787" x2="853" y1="232" y2="232"/></g><!--MD5=[bb7f1c801adcc1c297b2d9190618259c]
class Tree--><g id="elem_Tree"><rect codeLine="16" fill="#F1F1F1" height="48" id="Tree" rx="2.5" ry="2.5" style="stroke:#181818;stroke-width:0.5;" width="65" x="889.5" y="192"/><ellipse cx="904.5" cy="208" fill="#ADD1B2" rx="11" ry="11" style="stroke:#181818;stroke-width:1.0;"/><path d="M906.8438,203.6719 C905.9063,203.2344 905.3125,203.0938 904.4375,203.0938 C901.8125,203.0938 899.8125,205.1719 899.8125,207.8906 L899.8125,209.0156 C899.8125,211.5938 901.9219,213.4844 904.8125,213.4844 C906.0313,213.4844 907.1875,213.1875 907.9375,212.6406 C908.5156,212.2344 908.8438,211.7813 908.8438,211.3906 C908.8438,210.9375 908.4531,210.5469 907.9844,210.5469 C907.7656,210.5469 907.5625,210.625 907.375,210.8125 C906.9219,211.2969 906.9219,211.2969 906.7344,211.3906 C906.3125,211.6563 905.625,211.7813 904.8594,211.7813 C902.8125,211.7813 901.5156,210.6875 901.5156,208.9844 L901.5156,207.8906 C901.5156,206.1094 902.7656,204.7969 904.5,204.7969 C905.0781,204.7969 905.6875,204.9531 906.1563,205.2031 C906.6406,205.4844 906.8125,205.7031 906.9063,206.1094 C906.9688,206.5156 907,206.6406 907.1406,206.7656 C907.2813,206.9063 907.5156,207.0156 907.7344,207.0156 C908,207.0156 908.2656,206.875 908.4375,206.6563 C908.5469,206.5 908.5781,206.3125 908.5781,205.8906 L908.5781,204.4688 C908.5781,204.0313 908.5625,203.9063 908.4688,203.75 C908.3125,203.4844 908.0313,203.3438 907.7344,203.3438 C907.4375,203.3438 907.2344,203.4375 907.0156,203.75 L906.8438,203.6719 Z " fill="#000000"/><text fill="#000000" font-family="sans-serif" font-size="14" lengthAdjust="spacing" textLength="33" x="918.5" y="212.8467">Tree</text><line style="stroke:#181818;stroke-width:0.5;" x1="890.5" x2="953.5" y1="224" y2="224"/><line style="stroke:#181818;stroke-width:0.5;" x1="890.5" x2="953.5" y1="232" y2="232"/></g><!--MD5=[34c087e67fb7928d15a650ab3d240344]
class Fox--><g id="elem_Fox"><rect codeLine="17" fill="#F1F1F1" height="48" id="Fox" rx="2.5" ry="2.5" style="stroke:#181818;stroke-width:0.5;" width="57" x="569.5" y="84"/><ellipse cx="584.5" cy="100" fill="#ADD1B2" rx="11" ry="11" style="stroke:#181818;stroke-width:1.0;"/><path d="M586.8438,95.6719 C585.9063,95.2344 585.3125,95.0938 584.4375,95.0938 C581.8125,95.0938 579.8125,97.1719 579.8125,99.8906 L579.8125,101.0156 C579.8125,103.5938 581.9219,105.4844 584.8125,105.4844 C586.0313,105.4844 587.1875,105.1875 587.9375,104.6406 C588.5156,104.2344 588.8438,103.7813 588.8438,103.3906 C588.8438,102.9375 588.4531,102.5469 587.9844,102.5469 C587.7656,102.5469 587.5625,102.625 587.375,102.8125 C586.9219,103.2969 586.9219,103.2969 586.7344,103.3906 C586.3125,103.6563 585.625,103.7813 584.8594,103.7813 C582.8125,103.7813 581.5156,102.6875 581.5156,100.9844 L581.5156,99.8906 C581.5156,98.1094 582.7656,96.7969 584.5,96.7969 C585.0781,96.7969 585.6875,96.9531 586.1563,97.2031 C586.6406,97.4844 586.8125,97.7031 586.9063,98.1094 C586.9688,98.5156 587,98.6406 587.1406,98.7656 C587.2813,98.9063 587.5156,99.0156 587.7344,99.0156 C588,99.0156 588.2656,98.875 588.4375,98.6563 C588.5469,98.5 588.5781,98.3125 588.5781,97.8906 L588.5781,96.4688 C588.5781,96.0313 588.5625,95.9063 588.4688,95.75 C588.3125,95.4844 588.0313,95.3438 587.7344,95.3438 C587.4375,95.3438 587.2344,95.4375 587.0156,95.75 L586.8438,95.6719 Z " fill="#000000"/><text fill="#000000" font-family="sans-serif" font-size="14" lengthAdjust="spacing" textLength="25" x="598.5" y="104.8467">Fox</text><line style="stroke:#181818;stroke-width:0.5;" x1="570.5" x2="625.5" y1="116" y2="116"/><line style="stroke:#181818;stroke-width:0.5;" x1="570.5" x2="625.5" y1="124" y2="124"/></g><!--MD5=[874877035222f5bcc888af269290427c]
class IView--><g id="elem_IView"><rect codeLine="26" fill="#F1F1F1" height="48" id="IView" rx="2.5" ry="2.5" style="stroke:#181818;stroke-width:0.5;" width="70" x="1566" y="84"/><ellipse cx="1581" cy="100" fill="#B4A7E5" rx="11" ry="11" style="stroke:#181818;stroke-width:1.0;"/><path d="M1581.9531,96.7813 L1583.6719,96.7813 C1584.0625,96.7813 1584.25,96.75 1584.375,96.6719 C1584.6406,96.5156 1584.7813,96.2344 1584.7813,95.9375 C1584.7813,95.6719 1584.6719,95.4063 1584.4375,95.2344 C1584.2656,95.125 1584.125,95.0938 1583.6719,95.0938 L1578.5313,95.0938 C1578.0938,95.0938 1577.9688,95.1094 1577.8125,95.2031 C1577.5625,95.3594 1577.4063,95.6563 1577.4063,95.9375 C1577.4063,96.2188 1577.5469,96.4688 1577.7656,96.6406 C1577.9219,96.75 1578.1094,96.7813 1578.5313,96.7813 L1580.25,96.7813 L1580.25,103.2969 L1578.5313,103.2969 C1578.0938,103.2969 1577.9688,103.3125 1577.8125,103.4219 C1577.5625,103.5781 1577.4063,103.8594 1577.4063,104.1563 C1577.4063,104.4063 1577.5469,104.6719 1577.7656,104.8281 C1577.9219,104.9531 1578.125,105 1578.5313,105 L1583.6719,105 C1584.4219,105 1584.7813,104.7188 1584.7813,104.1563 C1584.7813,103.875 1584.6719,103.625 1584.4375,103.4531 C1584.2656,103.3281 1584.125,103.2969 1583.6719,103.2969 L1581.9531,103.2969 L1581.9531,96.7813 Z " fill="#000000"/><text fill="#000000" font-family="sans-serif" font-size="14" font-style="italic" lengthAdjust="spacing" textLength="38" x="1595" y="104.8467">IView</text><line style="stroke:#181818;stroke-width:0.5;" x1="1567" x2="1635" y1="116" y2="116"/><line style="stroke:#181818;stroke-width:0.5;" x1="1567" x2="1635" y1="124" y2="124"/></g><!--MD5=[60c954521a55b8f4de8658faab37847f]
class StatGUI--><g id="elem_StatGUI"><rect codeLine="27" fill="#F1F1F1" height="48" id="StatGUI" rx="2.5" ry="2.5" style="stroke:#181818;stroke-width:0.5;" width="87" x="1163.5" y="84"/><ellipse cx="1178.5" cy="100" fill="#ADD1B2" rx="11" ry="11" style="stroke:#181818;stroke-width:1.0;"/><path d="M1180.8438,95.6719 C1179.9063,95.2344 1179.3125,95.0938 1178.4375,95.0938 C1175.8125,95.0938 1173.8125,97.1719 1173.8125,99.8906 L1173.8125,101.0156 C1173.8125,103.5938 1175.9219,105.4844 1178.8125,105.4844 C1180.0313,105.4844 1181.1875,105.1875 1181.9375,104.6406 C1182.5156,104.2344 1182.8438,103.7813 1182.8438,103.3906 C1182.8438,102.9375 1182.4531,102.5469 1181.9844,102.5469 C1181.7656,102.5469 1181.5625,102.625 1181.375,102.8125 C1180.9219,103.2969 1180.9219,103.2969 1180.7344,103.3906 C1180.3125,103.6563 1179.625,103.7813 1178.8594,103.7813 C1176.8125,103.7813 1175.5156,102.6875 1175.5156,100.9844 L1175.5156,99.8906 C1175.5156,98.1094 1176.7656,96.7969 1178.5,96.7969 C1179.0781,96.7969 1179.6875,96.9531 1180.1563,97.2031 C1180.6406,97.4844 1180.8125,97.7031 1180.9063,98.1094 C1180.9688,98.5156 1181,98.6406 1181.1406,98.7656 C1181.2813,98.9063 1181.5156,99.0156 1181.7344,99.0156 C1182,99.0156 1182.2656,98.875 1182.4375,98.6563 C1182.5469,98.5 1182.5781,98.3125 1182.5781,97.8906 L1182.5781,96.4688 C1182.5781,96.0313 1182.5625,95.9063 1182.4688,95.75 C1182.3125,95.4844 1182.0313,95.3438 1181.7344,95.3438 C1181.4375,95.3438 1181.2344,95.4375 1181.0156,95.75 L1180.8438,95.6719 Z " fill="#000000"/><text fill="#000000" font-family="sans-serif" font-size="14" lengthAdjust="spacing" textLength="55" x="1192.5" y="104.8467">StatGUI</text><line style="stroke:#181818;stroke-width:0.5;" x1="1164.5" x2="1249.5" y1="116" y2="116"/><line style="stroke:#181818;stroke-width:0.5;" x1="1164.5" x2="1249.5" y1="124" y2="124"/></g><!--MD5=[c045e12321b83266d36d22b9096c24ea]
class View--><g id="elem_View"><rect codeLine="28" fill="#F1F1F1" height="48" id="View" rx="2.5" ry="2.5" style="stroke:#181818;stroke-width:0.5;" width="66" x="1498" y="192"/><ellipse cx="1513" cy="208" fill="#ADD1B2" rx="11" ry="11" style="stroke:#181818;stroke-width:1.0;"/><path d="M1515.3438,203.6719 C1514.4063,203.2344 1513.8125,203.0938 1512.9375,203.0938 C1510.3125,203.0938 1508.3125,205.1719 1508.3125,207.8906 L1508.3125,209.0156 C1508.3125,211.5938 1510.4219,213.4844 1513.3125,213.4844 C1514.5313,213.4844 1515.6875,213.1875 1516.4375,212.6406 C1517.0156,212.2344 1517.3438,211.7813 1517.3438,211.3906 C1517.3438,210.9375 1516.9531,210.5469 1516.4844,210.5469 C1516.2656,210.5469 1516.0625,210.625 1515.875,210.8125 C1515.4219,211.2969 1515.4219,211.2969 1515.2344,211.3906 C1514.8125,211.6563 1514.125,211.7813 1513.3594,211.7813 C1511.3125,211.7813 1510.0156,210.6875 1510.0156,208.9844 L1510.0156,207.8906 C1510.0156,206.1094 1511.2656,204.7969 1513,204.7969 C1513.5781,204.7969 1514.1875,204.9531 1514.6563,205.2031 C1515.1406,205.4844 1515.3125,205.7031 1515.4063,206.1094 C1515.4688,206.5156 1515.5,206.6406 1515.6406,206.7656 C1515.7813,206.9063 1516.0156,207.0156 1516.2344,207.0156 C1516.5,207.0156 1516.7656,206.875 1516.9375,206.6563 C1517.0469,206.5 1517.0781,206.3125 1517.0781,205.8906 L1517.0781,204.4688 C1517.0781,204.0313 1517.0625,203.9063 1516.9688,203.75 C1516.8125,203.4844 1516.5313,203.3438 1516.2344,203.3438 C1515.9375,203.3438 1515.7344,203.4375 1515.5156,203.75 L1515.3438,203.6719 Z " fill="#000000"/><text fill="#000000" font-family="sans-serif" font-size="14" lengthAdjust="spacing" textLength="34" x="1527" y="212.8467">View</text><line style="stroke:#181818;stroke-width:0.5;" x1="1499" x2="1563" y1="224" y2="224"/><line style="stroke:#181818;stroke-width:0.5;" x1="1499" x2="1563" y1="232" y2="232"/></g><!--MD5=[e38b17d196f165252812d500b61d38fc]
class GeneralGUI--><g id="elem_GeneralGUI"><rect codeLine="29" fill="#F1F1F1" height="48" id="GeneralGUI" rx="2.5" ry="2.5" style="stroke:#181818;stroke-width:0.5;" width="112" x="1286" y="84"/><ellipse cx="1301" cy="100" fill="#ADD1B2" rx="11" ry="11" style="stroke:#181818;stroke-width:1.0;"/><path d="M1303.3438,95.6719 C1302.4063,95.2344 1301.8125,95.0938 1300.9375,95.0938 C1298.3125,95.0938 1296.3125,97.1719 1296.3125,99.8906 L1296.3125,101.0156 C1296.3125,103.5938 1298.4219,105.4844 1301.3125,105.4844 C1302.5313,105.4844 1303.6875,105.1875 1304.4375,104.6406 C1305.0156,104.2344 1305.3438,103.7813 1305.3438,103.3906 C1305.3438,102.9375 1304.9531,102.5469 1304.4844,102.5469 C1304.2656,102.5469 1304.0625,102.625 1303.875,102.8125 C1303.4219,103.2969 1303.4219,103.2969 1303.2344,103.3906 C1302.8125,103.6563 1302.125,103.7813 1301.3594,103.7813 C1299.3125,103.7813 1298.0156,102.6875 1298.0156,100.9844 L1298.0156,99.8906 C1298.0156,98.1094 1299.2656,96.7969 1301,96.7969 C1301.5781,96.7969 1302.1875,96.9531 1302.6563,97.2031 C1303.1406,97.4844 1303.3125,97.7031 1303.4063,98.1094 C1303.4688,98.5156 1303.5,98.6406 1303.6406,98.7656 C1303.7813,98.9063 1304.0156,99.0156 1304.2344,99.0156 C1304.5,99.0156 1304.7656,98.875 1304.9375,98.6563 C1305.0469,98.5 1305.0781,98.3125 1305.0781,97.8906 L1305.0781,96.4688 C1305.0781,96.0313 1305.0625,95.9063 1304.9688,95.75 C1304.8125,95.4844 1304.5313,95.3438 1304.2344,95.3438 C1303.9375,95.3438 1303.7344,95.4375 1303.5156,95.75 L1303.3438,95.6719 Z " fill="#000000"/><text fill="#000000" font-family="sans-serif" font-size="14" lengthAdjust="spacing" textLength="80" x="1315" y="104.8467">GeneralGUI</text><line style="stroke:#181818;stroke-width:0.5;" x1="1287" x2="1397" y1="116" y2="116"/><line style="stroke:#181818;stroke-width:0.5;" x1="1287" x2="1397" y1="124" y2="124"/></g><!--MD5=[c5fcb541aa6533668a14cc3743bb76b5]
class GameGUI--><g id="elem_GameGUI"><rect codeLine="30" fill="#F1F1F1" height="48" id="GameGUI" rx="2.5" ry="2.5" style="stroke:#181818;stroke-width:0.5;" width="98" x="1433" y="84"/><ellipse cx="1448" cy="100" fill="#ADD1B2" rx="11" ry="11" style="stroke:#181818;stroke-width:1.0;"/><path d="M1450.3438,95.6719 C1449.4063,95.2344 1448.8125,95.0938 1447.9375,95.0938 C1445.3125,95.0938 1443.3125,97.1719 1443.3125,99.8906 L1443.3125,101.0156 C1443.3125,103.5938 1445.4219,105.4844 1448.3125,105.4844 C1449.5313,105.4844 1450.6875,105.1875 1451.4375,104.6406 C1452.0156,104.2344 1452.3438,103.7813 1452.3438,103.3906 C1452.3438,102.9375 1451.9531,102.5469 1451.4844,102.5469 C1451.2656,102.5469 1451.0625,102.625 1450.875,102.8125 C1450.4219,103.2969 1450.4219,103.2969 1450.2344,103.3906 C1449.8125,103.6563 1449.125,103.7813 1448.3594,103.7813 C1446.3125,103.7813 1445.0156,102.6875 1445.0156,100.9844 L1445.0156,99.8906 C1445.0156,98.1094 1446.2656,96.7969 1448,96.7969 C1448.5781,96.7969 1449.1875,96.9531 1449.6563,97.2031 C1450.1406,97.4844 1450.3125,97.7031 1450.4063,98.1094 C1450.4688,98.5156 1450.5,98.6406 1450.6406,98.7656 C1450.7813,98.9063 1451.0156,99.0156 1451.2344,99.0156 C1451.5,99.0156 1451.7656,98.875 1451.9375,98.6563 C1452.0469,98.5 1452.0781,98.3125 1452.0781,97.8906 L1452.0781,96.4688 C1452.0781,96.0313 1452.0625,95.9063 1451.9688,95.75 C1451.8125,95.4844 1451.5313,95.3438 1451.2344,95.3438 C1450.9375,95.3438 1450.7344,95.4375 1450.5156,95.75 L1450.3438,95.6719 Z " fill="#000000"/><text fill="#000000" font-family="sans-serif" font-size="14" lengthAdjust="spacing" textLength="66" x="1462" y="104.8467">GameGUI</text><line style="stroke:#181818;stroke-width:0.5;" x1="1434" x2="1530" y1="116" y2="116"/><line style="stroke:#181818;stroke-width:0.5;" x1="1434" x2="1530" y1="124" y2="124"/></g><!--MD5=[82293557b6ae4b5590a3320913e3334d]
class HighScoresGUI--><g id="elem_HighScoresGUI"><rect codeLine="31" fill="#F1F1F1" height="48" id="HighScoresGUI" rx="2.5" ry="2.5" style="stroke:#181818;stroke-width:0.5;" width="136" x="1166" y="192"/><ellipse cx="1181" cy="208" fill="#ADD1B2" rx="11" ry="11" style="stroke:#181818;stroke-width:1.0;"/><path d="M1183.3438,203.6719 C1182.4063,203.2344 1181.8125,203.0938 1180.9375,203.0938 C1178.3125,203.0938 1176.3125,205.1719 1176.3125,207.8906 L1176.3125,209.0156 C1176.3125,211.5938 1178.4219,213.4844 1181.3125,213.4844 C1182.5313,213.4844 1183.6875,213.1875 1184.4375,212.6406 C1185.0156,212.2344 1185.3438,211.7813 1185.3438,211.3906 C1185.3438,210.9375 1184.9531,210.5469 1184.4844,210.5469 C1184.2656,210.5469 1184.0625,210.625 1183.875,210.8125 C1183.4219,211.2969 1183.4219,211.2969 1183.2344,211.3906 C1182.8125,211.6563 1182.125,211.7813 1181.3594,211.7813 C1179.3125,211.7813 1178.0156,210.6875 1178.0156,208.9844 L1178.0156,207.8906 C1178.0156,206.1094 1179.2656,204.7969 1181,204.7969 C1181.5781,204.7969 1182.1875,204.9531 1182.6563,205.2031 C1183.1406,205.4844 1183.3125,205.7031 1183.4063,206.1094 C1183.4688,206.5156 1183.5,206.6406 1183.6406,206.7656 C1183.7813,206.9063 1184.0156,207.0156 1184.2344,207.0156 C1184.5,207.0156 1184.7656,206.875 1184.9375,206.6563 C1185.0469,206.5 1185.0781,206.3125 1185.0781,205.8906 L1185.0781,204.4688 C1185.0781,204.0313 1185.0625,203.9063 1184.9688,203.75 C1184.8125,203.4844 1184.5313,203.3438 1184.2344,203.3438 C1183.9375,203.3438 1183.7344,203.4375 1183.5156,203.75 L1183.3438,203.6719 Z " fill="#000000"/><text fill="#000000" font-family="sans-serif" font-size="14" lengthAdjust="spacing" textLength="104" x="1195" y="212.8467">HighScoresGUI</text><line style="stroke:#181818;stroke-width:0.5;" x1="1167" x2="1301" y1="224" y2="224"/><line style="stroke:#181818;stroke-width:0.5;" x1="1167" x2="1301" y1="232" y2="232"/></g><!--MD5=[921e977f1705bf10a2a72382eb00841d]
class MapGraphics--><g id="elem_MapGraphics"><rect codeLine="32" fill="#F1F1F1" height="48" id="MapGraphics" rx="2.5" ry="2.5" style="stroke:#181818;stroke-width:0.5;" width="125" x="1337.5" y="192"/><ellipse cx="1352.5" cy="208" fill="#ADD1B2" rx="11" ry="11" style="stroke:#181818;stroke-width:1.0;"/><path d="M1354.8438,203.6719 C1353.9063,203.2344 1353.3125,203.0938 1352.4375,203.0938 C1349.8125,203.0938 1347.8125,205.1719 1347.8125,207.8906 L1347.8125,209.0156 C1347.8125,211.5938 1349.9219,213.4844 1352.8125,213.4844 C1354.0313,213.4844 1355.1875,213.1875 1355.9375,212.6406 C1356.5156,212.2344 1356.8438,211.7813 1356.8438,211.3906 C1356.8438,210.9375 1356.4531,210.5469 1355.9844,210.5469 C1355.7656,210.5469 1355.5625,210.625 1355.375,210.8125 C1354.9219,211.2969 1354.9219,211.2969 1354.7344,211.3906 C1354.3125,211.6563 1353.625,211.7813 1352.8594,211.7813 C1350.8125,211.7813 1349.5156,210.6875 1349.5156,208.9844 L1349.5156,207.8906 C1349.5156,206.1094 1350.7656,204.7969 1352.5,204.7969 C1353.0781,204.7969 1353.6875,204.9531 1354.1563,205.2031 C1354.6406,205.4844 1354.8125,205.7031 1354.9063,206.1094 C1354.9688,206.5156 1355,206.6406 1355.1406,206.7656 C1355.2813,206.9063 1355.5156,207.0156 1355.7344,207.0156 C1356,207.0156 1356.2656,206.875 1356.4375,206.6563 C1356.5469,206.5 1356.5781,206.3125 1356.5781,205.8906 L1356.5781,204.4688 C1356.5781,204.0313 1356.5625,203.9063 1356.4688,203.75 C1356.3125,203.4844 1356.0313,203.3438 1355.7344,203.3438 C1355.4375,203.3438 1355.2344,203.4375 1355.0156,203.75 L1354.8438,203.6719 Z " fill="#000000"/><text fill="#000000" font-family="sans-serif" font-size="14" lengthAdjust="spacing" textLength="93" x="1366.5" y="212.8467">MapGraphics</text><line style="stroke:#181818;stroke-width:0.5;" x1="1338.5" x2="1461.5" y1="224" y2="224"/><line style="stroke:#181818;stroke-width:0.5;" x1="1338.5" x2="1461.5" y1="232" y2="232"/></g><!--MD5=[4886ed3083e56ebb40a19b2a73f2e0f3]
class IUtilities--><g id="elem_IUtilities"><rect codeLine="36" fill="#F1F1F1" height="48" id="IUtilities" rx="2.5" ry="2.5" style="stroke:#181818;stroke-width:0.5;" width="88" x="728" y="339"/><ellipse cx="743" cy="355" fill="#B4A7E5" rx="11" ry="11" style="stroke:#181818;stroke-width:1.0;"/><path d="M743.9531,351.7813 L745.6719,351.7813 C746.0625,351.7813 746.25,351.75 746.375,351.6719 C746.6406,351.5156 746.7813,351.2344 746.7813,350.9375 C746.7813,350.6719 746.6719,350.4063 746.4375,350.2344 C746.2656,350.125 746.125,350.0938 745.6719,350.0938 L740.5313,350.0938 C740.0938,350.0938 739.9688,350.1094 739.8125,350.2031 C739.5625,350.3594 739.4063,350.6563 739.4063,350.9375 C739.4063,351.2188 739.5469,351.4688 739.7656,351.6406 C739.9219,351.75 740.1094,351.7813 740.5313,351.7813 L742.25,351.7813 L742.25,358.2969 L740.5313,358.2969 C740.0938,358.2969 739.9688,358.3125 739.8125,358.4219 C739.5625,358.5781 739.4063,358.8594 739.4063,359.1563 C739.4063,359.4063 739.5469,359.6719 739.7656,359.8281 C739.9219,359.9531 740.125,360 740.5313,360 L745.6719,360 C746.4219,360 746.7813,359.7188 746.7813,359.1563 C746.7813,358.875 746.6719,358.625 746.4375,358.4531 C746.2656,358.3281 746.125,358.2969 745.6719,358.2969 L743.9531,358.2969 L743.9531,351.7813 Z " fill="#000000"/><text fill="#000000" font-family="sans-serif" font-size="14" font-style="italic" lengthAdjust="spacing" textLength="56" x="757" y="359.8467">IUtilities</text><line style="stroke:#181818;stroke-width:0.5;" x1="729" x2="815" y1="371" y2="371"/><line style="stroke:#181818;stroke-width:0.5;" x1="729" x2="815" y1="379" y2="379"/></g><!--MD5=[5fc9b60f5d5c64ad0df8704dae8d48bb]
class Utilities--><g id="elem_Utilities"><rect codeLine="37" fill="#F1F1F1" height="48" id="Utilities" rx="2.5" ry="2.5" style="stroke:#181818;stroke-width:0.5;" width="87" x="728.5" y="447"/><ellipse cx="743.5" cy="463" fill="#ADD1B2" rx="11" ry="11" style="stroke:#181818;stroke-width:1.0;"/><path d="M745.8438,458.6719 C744.9063,458.2344 744.3125,458.0938 743.4375,458.0938 C740.8125,458.0938 738.8125,460.1719 738.8125,462.8906 L738.8125,464.0156 C738.8125,466.5938 740.9219,468.4844 743.8125,468.4844 C745.0313,468.4844 746.1875,468.1875 746.9375,467.6406 C747.5156,467.2344 747.8438,466.7813 747.8438,466.3906 C747.8438,465.9375 747.4531,465.5469 746.9844,465.5469 C746.7656,465.5469 746.5625,465.625 746.375,465.8125 C745.9219,466.2969 745.9219,466.2969 745.7344,466.3906 C745.3125,466.6563 744.625,466.7813 743.8594,466.7813 C741.8125,466.7813 740.5156,465.6875 740.5156,463.9844 L740.5156,462.8906 C740.5156,461.1094 741.7656,459.7969 743.5,459.7969 C744.0781,459.7969 744.6875,459.9531 745.1563,460.2031 C745.6406,460.4844 745.8125,460.7031 745.9063,461.1094 C745.9688,461.5156 746,461.6406 746.1406,461.7656 C746.2813,461.9063 746.5156,462.0156 746.7344,462.0156 C747,462.0156 747.2656,461.875 747.4375,461.6563 C747.5469,461.5 747.5781,461.3125 747.5781,460.8906 L747.5781,459.4688 C747.5781,459.0313 747.5625,458.9063 747.4688,458.75 C747.3125,458.4844 747.0313,458.3438 746.7344,458.3438 C746.4375,458.3438 746.2344,458.4375 746.0156,458.75 L745.8438,458.6719 Z " fill="#000000"/><text fill="#000000" font-family="sans-serif" font-size="14" lengthAdjust="spacing" textLength="55" x="757.5" y="467.8467">Utilities</text><line style="stroke:#181818;stroke-width:0.5;" x1="729.5" x2="814.5" y1="479" y2="479"/><line style="stroke:#181818;stroke-width:0.5;" x1="729.5" x2="814.5" y1="487" y2="487"/></g><!--MD5=[a3895e38cb849fd2862bdc79bb3ee34d]
class AudioPlayer--><g id="elem_AudioPlayer"><rect codeLine="38" fill="#F1F1F1" height="48" id="AudioPlayer" rx="2.5" ry="2.5" style="stroke:#181818;stroke-width:0.5;" width="116" x="298" y="339"/><ellipse cx="313" cy="355" fill="#ADD1B2" rx="11" ry="11" style="stroke:#181818;stroke-width:1.0;"/><path d="M315.3438,350.6719 C314.4063,350.2344 313.8125,350.0938 312.9375,350.0938 C310.3125,350.0938 308.3125,352.1719 308.3125,354.8906 L308.3125,356.0156 C308.3125,358.5938 310.4219,360.4844 313.3125,360.4844 C314.5313,360.4844 315.6875,360.1875 316.4375,359.6406 C317.0156,359.2344 317.3438,358.7813 317.3438,358.3906 C317.3438,357.9375 316.9531,357.5469 316.4844,357.5469 C316.2656,357.5469 316.0625,357.625 315.875,357.8125 C315.4219,358.2969 315.4219,358.2969 315.2344,358.3906 C314.8125,358.6563 314.125,358.7813 313.3594,358.7813 C311.3125,358.7813 310.0156,357.6875 310.0156,355.9844 L310.0156,354.8906 C310.0156,353.1094 311.2656,351.7969 313,351.7969 C313.5781,351.7969 314.1875,351.9531 314.6563,352.2031 C315.1406,352.4844 315.3125,352.7031 315.4063,353.1094 C315.4688,353.5156 315.5,353.6406 315.6406,353.7656 C315.7813,353.9063 316.0156,354.0156 316.2344,354.0156 C316.5,354.0156 316.7656,353.875 316.9375,353.6563 C317.0469,353.5 317.0781,353.3125 317.0781,352.8906 L317.0781,351.4688 C317.0781,351.0313 317.0625,350.9063 316.9688,350.75 C316.8125,350.4844 316.5313,350.3438 316.2344,350.3438 C315.9375,350.3438 315.7344,350.4375 315.5156,350.75 L315.3438,350.6719 Z " fill="#000000"/><text fill="#000000" font-family="sans-serif" font-size="14" lengthAdjust="spacing" textLength="84" x="327" y="359.8467">AudioPlayer</text><line style="stroke:#181818;stroke-width:0.5;" x1="299" x2="413" y1="371" y2="371"/><line style="stroke:#181818;stroke-width:0.5;" x1="299" x2="413" y1="379" y2="379"/></g><!--MD5=[d72eabb60cccae11d38a40b9214dd64d]
class Assets--><g id="elem_Assets"><rect codeLine="39" fill="#F1F1F1" height="48" id="Assets" rx="2.5" ry="2.5" style="stroke:#181818;stroke-width:0.5;" width="79" x="449.5" y="339"/><ellipse cx="464.5" cy="355" fill="#ADD1B2" rx="11" ry="11" style="stroke:#181818;stroke-width:1.0;"/><path d="M466.8438,350.6719 C465.9063,350.2344 465.3125,350.0938 464.4375,350.0938 C461.8125,350.0938 459.8125,352.1719 459.8125,354.8906 L459.8125,356.0156 C459.8125,358.5938 461.9219,360.4844 464.8125,360.4844 C466.0313,360.4844 467.1875,360.1875 467.9375,359.6406 C468.5156,359.2344 468.8438,358.7813 468.8438,358.3906 C468.8438,357.9375 468.4531,357.5469 467.9844,357.5469 C467.7656,357.5469 467.5625,357.625 467.375,357.8125 C466.9219,358.2969 466.9219,358.2969 466.7344,358.3906 C466.3125,358.6563 465.625,358.7813 464.8594,358.7813 C462.8125,358.7813 461.5156,357.6875 461.5156,355.9844 L461.5156,354.8906 C461.5156,353.1094 462.7656,351.7969 464.5,351.7969 C465.0781,351.7969 465.6875,351.9531 466.1563,352.2031 C466.6406,352.4844 466.8125,352.7031 466.9063,353.1094 C466.9688,353.5156 467,353.6406 467.1406,353.7656 C467.2813,353.9063 467.5156,354.0156 467.7344,354.0156 C468,354.0156 468.2656,353.875 468.4375,353.6563 C468.5469,353.5 468.5781,353.3125 468.5781,352.8906 L468.5781,351.4688 C468.5781,351.0313 468.5625,350.9063 468.4688,350.75 C468.3125,350.4844 468.0313,350.3438 467.7344,350.3438 C467.4375,350.3438 467.2344,350.4375 467.0156,350.75 L466.8438,350.6719 Z " fill="#000000"/><text fill="#000000" font-family="sans-serif" font-size="14" lengthAdjust="spacing" textLength="47" x="478.5" y="359.8467">Assets</text><line style="stroke:#181818;stroke-width:0.5;" x1="450.5" x2="527.5" y1="371" y2="371"/><line style="stroke:#181818;stroke-width:0.5;" x1="450.5" x2="527.5" y1="379" y2="379"/></g><!--MD5=[f7a180dde56999bbc683201728567324]
class AbsolutePath--><g id="elem_AbsolutePath"><rect codeLine="40" fill="#F1F1F1" height="48" id="AbsolutePath" rx="2.5" ry="2.5" style="stroke:#181818;stroke-width:0.5;" width="129" x="563.5" y="339"/><ellipse cx="578.5" cy="355" fill="#ADD1B2" rx="11" ry="11" style="stroke:#181818;stroke-width:1.0;"/><path d="M580.8438,350.6719 C579.9063,350.2344 579.3125,350.0938 578.4375,350.0938 C575.8125,350.0938 573.8125,352.1719 573.8125,354.8906 L573.8125,356.0156 C573.8125,358.5938 575.9219,360.4844 578.8125,360.4844 C580.0313,360.4844 581.1875,360.1875 581.9375,359.6406 C582.5156,359.2344 582.8438,358.7813 582.8438,358.3906 C582.8438,357.9375 582.4531,357.5469 581.9844,357.5469 C581.7656,357.5469 581.5625,357.625 581.375,357.8125 C580.9219,358.2969 580.9219,358.2969 580.7344,358.3906 C580.3125,358.6563 579.625,358.7813 578.8594,358.7813 C576.8125,358.7813 575.5156,357.6875 575.5156,355.9844 L575.5156,354.8906 C575.5156,353.1094 576.7656,351.7969 578.5,351.7969 C579.0781,351.7969 579.6875,351.9531 580.1563,352.2031 C580.6406,352.4844 580.8125,352.7031 580.9063,353.1094 C580.9688,353.5156 581,353.6406 581.1406,353.7656 C581.2813,353.9063 581.5156,354.0156 581.7344,354.0156 C582,354.0156 582.2656,353.875 582.4375,353.6563 C582.5469,353.5 582.5781,353.3125 582.5781,352.8906 L582.5781,351.4688 C582.5781,351.0313 582.5625,350.9063 582.4688,350.75 C582.3125,350.4844 582.0313,350.3438 581.7344,350.3438 C581.4375,350.3438 581.2344,350.4375 581.0156,350.75 L580.8438,350.6719 Z " fill="#000000"/><text fill="#000000" font-family="sans-serif" font-size="14" lengthAdjust="spacing" textLength="97" x="592.5" y="359.8467">AbsolutePath</text><line style="stroke:#181818;stroke-width:0.5;" x1="564.5" x2="691.5" y1="371" y2="371"/><line style="stroke:#181818;stroke-width:0.5;" x1="564.5" x2="691.5" y1="379" y2="379"/></g><!--MD5=[a308c5e202159af8fbd714b534b7c814]
class ReadTextFile--><g id="elem_ReadTextFile"><rect codeLine="41" fill="#F1F1F1" height="48" id="ReadTextFile" rx="2.5" ry="2.5" style="stroke:#181818;stroke-width:0.5;" width="126" x="298" y="447"/><ellipse cx="313" cy="463" fill="#ADD1B2" rx="11" ry="11" style="stroke:#181818;stroke-width:1.0;"/><path d="M315.3438,458.6719 C314.4063,458.2344 313.8125,458.0938 312.9375,458.0938 C310.3125,458.0938 308.3125,460.1719 308.3125,462.8906 L308.3125,464.0156 C308.3125,466.5938 310.4219,468.4844 313.3125,468.4844 C314.5313,468.4844 315.6875,468.1875 316.4375,467.6406 C317.0156,467.2344 317.3438,466.7813 317.3438,466.3906 C317.3438,465.9375 316.9531,465.5469 316.4844,465.5469 C316.2656,465.5469 316.0625,465.625 315.875,465.8125 C315.4219,466.2969 315.4219,466.2969 315.2344,466.3906 C314.8125,466.6563 314.125,466.7813 313.3594,466.7813 C311.3125,466.7813 310.0156,465.6875 310.0156,463.9844 L310.0156,462.8906 C310.0156,461.1094 311.2656,459.7969 313,459.7969 C313.5781,459.7969 314.1875,459.9531 314.6563,460.2031 C315.1406,460.4844 315.3125,460.7031 315.4063,461.1094 C315.4688,461.5156 315.5,461.6406 315.6406,461.7656 C315.7813,461.9063 316.0156,462.0156 316.2344,462.0156 C316.5,462.0156 316.7656,461.875 316.9375,461.6563 C317.0469,461.5 317.0781,461.3125 317.0781,460.8906 L317.0781,459.4688 C317.0781,459.0313 317.0625,458.9063 316.9688,458.75 C316.8125,458.4844 316.5313,458.3438 316.2344,458.3438 C315.9375,458.3438 315.7344,458.4375 315.5156,458.75 L315.3438,458.6719 Z " fill="#000000"/><text fill="#000000" font-family="sans-serif" font-size="14" lengthAdjust="spacing" textLength="94" x="327" y="467.8467">ReadTextFile</text><line style="stroke:#181818;stroke-width:0.5;" x1="299" x2="423" y1="479" y2="479"/><line style="stroke:#181818;stroke-width:0.5;" x1="299" x2="423" y1="487" y2="487"/></g><!--MD5=[7ec0b8d68da8915e2e556e62bbabc591]
class WriteTextFile--><g id="elem_WriteTextFile"><rect codeLine="42" fill="#F1F1F1" height="48" id="WriteTextFile" rx="2.5" ry="2.5" style="stroke:#181818;stroke-width:0.5;" width="130" x="459" y="447"/><ellipse cx="474" cy="463" fill="#ADD1B2" rx="11" ry="11" style="stroke:#181818;stroke-width:1.0;"/><path d="M476.3438,458.6719 C475.4063,458.2344 474.8125,458.0938 473.9375,458.0938 C471.3125,458.0938 469.3125,460.1719 469.3125,462.8906 L469.3125,464.0156 C469.3125,466.5938 471.4219,468.4844 474.3125,468.4844 C475.5313,468.4844 476.6875,468.1875 477.4375,467.6406 C478.0156,467.2344 478.3438,466.7813 478.3438,466.3906 C478.3438,465.9375 477.9531,465.5469 477.4844,465.5469 C477.2656,465.5469 477.0625,465.625 476.875,465.8125 C476.4219,466.2969 476.4219,466.2969 476.2344,466.3906 C475.8125,466.6563 475.125,466.7813 474.3594,466.7813 C472.3125,466.7813 471.0156,465.6875 471.0156,463.9844 L471.0156,462.8906 C471.0156,461.1094 472.2656,459.7969 474,459.7969 C474.5781,459.7969 475.1875,459.9531 475.6563,460.2031 C476.1406,460.4844 476.3125,460.7031 476.4063,461.1094 C476.4688,461.5156 476.5,461.6406 476.6406,461.7656 C476.7813,461.9063 477.0156,462.0156 477.2344,462.0156 C477.5,462.0156 477.7656,461.875 477.9375,461.6563 C478.0469,461.5 478.0781,461.3125 478.0781,460.8906 L478.0781,459.4688 C478.0781,459.0313 478.0625,458.9063 477.9688,458.75 C477.8125,458.4844 477.5313,458.3438 477.2344,458.3438 C476.9375,458.3438 476.7344,458.4375 476.5156,458.75 L476.3438,458.6719 Z " fill="#000000"/><text fill="#000000" font-family="sans-serif" font-size="14" lengthAdjust="spacing" textLength="98" x="488" y="467.8467">WriteTextFile</text><line style="stroke:#181818;stroke-width:0.5;" x1="460" x2="588" y1="479" y2="479"/><line style="stroke:#181818;stroke-width:0.5;" x1="460" x2="588" y1="487" y2="487"/></g><!--MD5=[84718776d214be480e4c259efcb737fc]
class Main--><g id="elem_Main"><rect codeLine="46" fill="#F1F1F1" height="48" id="Main" rx="2.5" ry="2.5" style="stroke:#181818;stroke-width:0.5;" width="65" x="1080.5" y="339"/><ellipse cx="1095.5" cy="355" fill="#ADD1B2" rx="11" ry="11" style="stroke:#181818;stroke-width:1.0;"/><path d="M1097.8438,350.6719 C1096.9063,350.2344 1096.3125,350.0938 1095.4375,350.0938 C1092.8125,350.0938 1090.8125,352.1719 1090.8125,354.8906 L1090.8125,356.0156 C1090.8125,358.5938 1092.9219,360.4844 1095.8125,360.4844 C1097.0313,360.4844 1098.1875,360.1875 1098.9375,359.6406 C1099.5156,359.2344 1099.8438,358.7813 1099.8438,358.3906 C1099.8438,357.9375 1099.4531,357.5469 1098.9844,357.5469 C1098.7656,357.5469 1098.5625,357.625 1098.375,357.8125 C1097.9219,358.2969 1097.9219,358.2969 1097.7344,358.3906 C1097.3125,358.6563 1096.625,358.7813 1095.8594,358.7813 C1093.8125,358.7813 1092.5156,357.6875 1092.5156,355.9844 L1092.5156,354.8906 C1092.5156,353.1094 1093.7656,351.7969 1095.5,351.7969 C1096.0781,351.7969 1096.6875,351.9531 1097.1563,352.2031 C1097.6406,352.4844 1097.8125,352.7031 1097.9063,353.1094 C1097.9688,353.5156 1098,353.6406 1098.1406,353.7656 C1098.2813,353.9063 1098.5156,354.0156 1098.7344,354.0156 C1099,354.0156 1099.2656,353.875 1099.4375,353.6563 C1099.5469,353.5 1099.5781,353.3125 1099.5781,352.8906 L1099.5781,351.4688 C1099.5781,351.0313 1099.5625,350.9063 1099.4688,350.75 C1099.3125,350.4844 1099.0313,350.3438 1098.7344,350.3438 C1098.4375,350.3438 1098.2344,350.4375 1098.0156,350.75 L1097.8438,350.6719 Z " fill="#000000"/><text fill="#000000" font-family="sans-serif" font-size="14" lengthAdjust="spacing" textLength="33" x="1109.5" y="359.8467">Main</text><line style="stroke:#181818;stroke-width:0.5;" x1="1081.5" x2="1144.5" y1="371" y2="371"/><line style="stroke:#181818;stroke-width:0.5;" x1="1081.5" x2="1144.5" y1="379" y2="379"/></g><!--MD5=[5c8ec346e276236c3262ad01c2d77edb]
link Entity to Vehicle--><g id="link_Entity_Vehicle"><path codeLine="18" d="M816.832,125.446 C772.162,144.694 698.387,176.483 651.809,196.554 " fill="none" id="Entity-Vehicle" style="stroke:#181818;stroke-width:1.0;"/></g><!--MD5=[6f170224038b1d3b1e3d0d53309ec3e3]
link Entity to Coin--><g id="link_Entity_Coin"><path codeLine="19" d="M825.49,132 C802.835,149.658 771.68,173.941 748.922,191.678 " fill="none" id="Entity-Coin" style="stroke:#181818;stroke-width:1.0;"/></g><!--MD5=[211416e0e0f0a134158edae037089fa2]
link Entity to Rock--><g id="link_Entity_Rock"><path codeLine="20" d="M847.406,132 C841.575,149.658 833.557,173.941 827.701,191.678 " fill="none" id="Entity-Rock" style="stroke:#181818;stroke-width:1.0;"/></g><!--MD5=[93ec9c6920bb71f63d37f52b19ce607a]
link Entity to Tree--><g id="link_Entity_Tree"><path codeLine="21" d="M869.538,132 C880.699,149.658 896.047,173.941 907.259,191.678 " fill="none" id="Entity-Tree" style="stroke:#181818;stroke-width:1.0;"/></g><!--MD5=[81ed64998f66a291794240710bf4e640]
link ILogic to Logic--><g id="link_ILogic_Logic"><path codeLine="23" d="M1024.22,132 C1024.38,149.658 1024.61,173.941 1024.78,191.678 " fill="none" id="ILogic-Logic" style="stroke:#181818;stroke-width:1.0;"/><path d="M1031.5005,154.6721 A10,10 0 0 0 1017.359 154.8051" fill="none" style="stroke:#181818;stroke-width:1.5;"/><ellipse cx="1024.4963" cy="161.8094" fill="#FFFFFF" rx="6" ry="6" style="stroke:#181818;stroke-width:1.5;"/></g><!--MD5=[e13f419059df30e1bf13564bc870fc1f]
link IView to View--><g id="link_IView_View"><path codeLine="33" d="M1585.81,132 C1574.15,149.658 1558.11,173.941 1546.4,191.678 " fill="none" id="IView-View" style="stroke:#181818;stroke-width:1.0;"/><path d="M1575.921,159.8057 A10,10 0 0 0 1564.1201 152.0122" fill="none" style="stroke:#181818;stroke-width:1.5;"/><ellipse cx="1566.1238" cy="161.8094" fill="#FFFFFF" rx="6" ry="6" style="stroke:#181818;stroke-width:1.5;"/></g><!--MD5=[e7404197ff79fd7cf7e0314e73c38c80]
link IUtilities to Utilities--><g id="link_IUtilities_Utilities"><path codeLine="43" d="M772,387 C772,404.658 772,428.9408 772,446.6784 " fill="none" id="IUtilities-Utilities" style="stroke:#181818;stroke-width:1.0;"/><path d="M779.0711,409.7383 A10,10 0 0 0 764.9289 409.7383" fill="none" style="stroke:#181818;stroke-width:1.5;"/><ellipse cx="772" cy="416.8094" fill="#FFFFFF" rx="6" ry="6" style="stroke:#181818;stroke-width:1.5;"/></g><!--MD5=[24094064decbcaad606922272a91539c]
link ILogic to Main--><g id="link_ILogic_Main"><path codeLine="48" d="M1041.96,132.078 C1053.57,148.076 1068.13,170.323 1077,192 C1096.47,239.572 1105.97,299.126 1110.15,333.638 " fill="none" id="ILogic-to-Main" style="stroke:#181818;stroke-width:1.0;"/><polygon fill="#181818" points="1110.77,338.957,1113.6948,329.5524,1110.1878,333.991,1105.7492,330.484,1110.77,338.957" style="stroke:#181818;stroke-width:1.0;"/></g><!--MD5=[4d20fc84297f911bbe646c0975125d1e]
link IView to Main--><g id="link_IView_Main"><path codeLine="49" d="M1606.29,132.092 C1613.49,170.104 1621.29,245.834 1581,288 C1522.1,349.644 1251.74,359.977 1150.98,361.677 " fill="none" id="IView-to-Main" style="stroke:#181818;stroke-width:1.0;"/><polygon fill="#181818" points="1145.74,361.761,1154.8072,365.6061,1150.7393,361.6753,1154.6701,357.6073,1145.74,361.761" style="stroke:#181818;stroke-width:1.0;"/></g><!--MD5=[45e0e89844b20ef0658cce31bea51d8a]
link IUtilities to Main--><g id="link_IUtilities_Main"><path codeLine="50" d="M816.29,363 C902.561,363 988.831,363 1075.1,363 " fill="none" id="IUtilities-to-Main" style="stroke:#181818;stroke-width:1.0;"/><polygon fill="#181818" points="1080.26,363,1071.26,359,1075.26,363,1071.26,367,1080.26,363" style="stroke:#181818;stroke-width:1.0;"/></g><!--MD5=[7ff5eac9868a80a6361c69fbba9a981c]
@startuml
package logic {
  interface ILogic
  class Statistics
  class Logic
  class KeyHandler
  class StaticSoundController
  class DynamicSoundController
  class Map
  class CollisionController
  package characters{
    class  Entity
    class EntityGroup
    class Vehicle
    class Coin
    class Rock
    class Tree
    class Fox
    Entity == Vehicle
    Entity == Coin
    Entity == Rock
    Entity == Tree
  }
  ILogic -(0-Logic
}
package view {
  interface IView
  class StatGUI
  class View
  class GeneralGUI
  class GameGUI
  class HighScoresGUI
  class MapGraphics
  IView -(0-View
}
package utilities {
  interface IUtilities
  class Utilities
  class AudioPlayer
  class Assets
  class AbsolutePath
  class ReadTextFile
  class WriteTextFile
  IUtilities -(0-Utilities
}

class Main

ILogic->Main
IView->Main
IUtilities->Main
@enduml

PlantUML version 1.2022.13beta8(Unknown compile time)
(GPL source distribution)
Java Runtime: Java(TM) SE Runtime Environment
JVM: Java HotSpot(TM) 64-Bit Server VM
Default Encoding: UTF-8
Language: en
Country: US
--></g></svg>