<?xml version="1.0" encoding="UTF-8" standalone="no"?><svg xmlns="http://www.w3.org/2000/svg" xmlns:xlink="http://www.w3.org/1999/xlink" contentStyleType="text/css" height="562px" preserveAspectRatio="none" style="width:1646px;height:562px;background:#FFFFFF;" version="1.1" viewBox="0 0 1646 562" width="1646px" zoomAndPan="magnify"><defs/><g><!--MD5=[cbbcdfd2ff286cf453505908e439d9c0]
cluster logic--><g id="cluster_logic"><path d="M8.5,6 L48.5,6 A3.75,3.75 0 0 1 51,8.5 L58,28.2969 L1636.5,28.2969 A2.5,2.5 0 0 1 1639,30.7969 L1639,552.5 A2.5,2.5 0 0 1 1636.5,555 L8.5,555 A2.5,2.5 0 0 1 6,552.5 L6,8.5 A2.5,2.5 0 0 1 8.5,6 " fill="none" style="stroke:#000000;stroke-width:1.5;"/><line style="stroke:#000000;stroke-width:1.5;" x1="6" x2="58" y1="28.2969" y2="28.2969"/><text fill="#000000" font-family="sans-serif" font-size="14" font-weight="bold" lengthAdjust="spacing" textLength="39" x="10" y="20.9951">logic</text></g><!--MD5=[bf56bcfcb3ef99066337db6892441063]
class ILogic--><g id="elem_ILogic"><rect codeLine="2" fill="#F1F1F1" height="145.7813" id="ILogic" rx="2.5" ry="2.5" style="stroke:#181818;stroke-width:0.5;" width="303" x="153.5" y="57"/><ellipse cx="279.75" cy="73" fill="#B4A7E5" rx="11" ry="11" style="stroke:#181818;stroke-width:1.0;"/><path d="M280.7031,69.7813 L282.4219,69.7813 C282.8125,69.7813 283,69.75 283.125,69.6719 C283.3906,69.5156 283.5313,69.2344 283.5313,68.9375 C283.5313,68.6719 283.4219,68.4063 283.1875,68.2344 C283.0156,68.125 282.875,68.0938 282.4219,68.0938 L277.2813,68.0938 C276.8438,68.0938 276.7188,68.1094 276.5625,68.2031 C276.3125,68.3594 276.1563,68.6563 276.1563,68.9375 C276.1563,69.2188 276.2969,69.4688 276.5156,69.6406 C276.6719,69.75 276.8594,69.7813 277.2813,69.7813 L279,69.7813 L279,76.2969 L277.2813,76.2969 C276.8438,76.2969 276.7188,76.3125 276.5625,76.4219 C276.3125,76.5781 276.1563,76.8594 276.1563,77.1563 C276.1563,77.4063 276.2969,77.6719 276.5156,77.8281 C276.6719,77.9531 276.875,78 277.2813,78 L282.4219,78 C283.1719,78 283.5313,77.7188 283.5313,77.1563 C283.5313,76.875 283.4219,76.625 283.1875,76.4531 C283.0156,76.3281 282.875,76.2969 282.4219,76.2969 L280.7031,76.2969 L280.7031,69.7813 Z " fill="#000000"/><text fill="#000000" font-family="sans-serif" font-size="14" font-style="italic" lengthAdjust="spacing" textLength="42" x="300.25" y="77.8467">ILogic</text><line style="stroke:#181818;stroke-width:0.5;" x1="154.5" x2="455.5" y1="89" y2="89"/><line style="stroke:#181818;stroke-width:0.5;" x1="154.5" x2="455.5" y1="97" y2="97"/><ellipse cx="164.5" cy="110.6484" fill="#84BE84" rx="3" ry="3" style="stroke:#038048;stroke-width:1.0;"/><text fill="#000000" font-family="sans-serif" font-size="14" lengthAdjust="spacing" textLength="97" x="173.5" y="113.9951">int getLevel()</text><ellipse cx="164.5" cy="126.9453" fill="#84BE84" rx="3" ry="3" style="stroke:#038048;stroke-width:1.0;"/><text fill="#000000" font-family="sans-serif" font-size="14" lengthAdjust="spacing" textLength="141" x="173.5" y="130.292">OtherGetMethods()</text><ellipse cx="164.5" cy="143.2422" fill="#84BE84" rx="3" ry="3" style="stroke:#038048;stroke-width:1.0;"/><text fill="#000000" font-family="sans-serif" font-size="14" lengthAdjust="spacing" textLength="158" x="173.5" y="146.5889">boolean getIsPaused()</text><ellipse cx="164.5" cy="159.5391" fill="#84BE84" rx="3" ry="3" style="stroke:#038048;stroke-width:1.0;"/><text fill="#000000" font-family="sans-serif" font-size="14" lengthAdjust="spacing" textLength="103" x="173.5" y="162.8857">void setLives()</text><ellipse cx="164.5" cy="175.8359" fill="#84BE84" rx="3" ry="3" style="stroke:#038048;stroke-width:1.0;"/><text fill="#000000" font-family="sans-serif" font-size="14" lengthAdjust="spacing" textLength="259" x="173.5" y="179.1826">void setIsPaused(boolean newState)</text><ellipse cx="164.5" cy="192.1328" fill="#84BE84" rx="3" ry="3" style="stroke:#038048;stroke-width:1.0;"/><text fill="#000000" font-family="sans-serif" font-size="14" lengthAdjust="spacing" textLength="277" x="173.5" y="195.4795">void setStoricHighScore(int newScore)</text></g><!--MD5=[42fa18dda7351a0ae87d9497de925436]
class Logic--><g id="elem_Logic"><rect codeLine="10" fill="#F1F1F1" height="129.4844" id="Logic" rx="2.5" ry="2.5" style="stroke:#181818;stroke-width:0.5;" width="303" x="22.5" y="344.5"/><ellipse cx="150.75" cy="360.5" fill="#ADD1B2" rx="11" ry="11" style="stroke:#181818;stroke-width:1.0;"/><path d="M153.0938,356.1719 C152.1563,355.7344 151.5625,355.5938 150.6875,355.5938 C148.0625,355.5938 146.0625,357.6719 146.0625,360.3906 L146.0625,361.5156 C146.0625,364.0938 148.1719,365.9844 151.0625,365.9844 C152.2813,365.9844 153.4375,365.6875 154.1875,365.1406 C154.7656,364.7344 155.0938,364.2813 155.0938,363.8906 C155.0938,363.4375 154.7031,363.0469 154.2344,363.0469 C154.0156,363.0469 153.8125,363.125 153.625,363.3125 C153.1719,363.7969 153.1719,363.7969 152.9844,363.8906 C152.5625,364.1563 151.875,364.2813 151.1094,364.2813 C149.0625,364.2813 147.7656,363.1875 147.7656,361.4844 L147.7656,360.3906 C147.7656,358.6094 149.0156,357.2969 150.75,357.2969 C151.3281,357.2969 151.9375,357.4531 152.4063,357.7031 C152.8906,357.9844 153.0625,358.2031 153.1563,358.6094 C153.2188,359.0156 153.25,359.1406 153.3906,359.2656 C153.5313,359.4063 153.7656,359.5156 153.9844,359.5156 C154.25,359.5156 154.5156,359.375 154.6875,359.1563 C154.7969,359 154.8281,358.8125 154.8281,358.3906 L154.8281,356.9688 C154.8281,356.5313 154.8125,356.4063 154.7188,356.25 C154.5625,355.9844 154.2813,355.8438 153.9844,355.8438 C153.6875,355.8438 153.4844,355.9375 153.2656,356.25 L153.0938,356.1719 Z " fill="#000000"/><text fill="#000000" font-family="sans-serif" font-size="14" lengthAdjust="spacing" textLength="38" x="171.25" y="365.3467">Logic</text><line style="stroke:#181818;stroke-width:0.5;" x1="23.5" x2="324.5" y1="376.5" y2="376.5"/><line style="stroke:#181818;stroke-width:0.5;" x1="23.5" x2="324.5" y1="384.5" y2="384.5"/><ellipse cx="33.5" cy="398.1484" fill="#84BE84" rx="3" ry="3" style="stroke:#038048;stroke-width:1.0;"/><text fill="#000000" font-family="sans-serif" font-size="14" lengthAdjust="spacing" textLength="97" x="42.5" y="401.4951">int getLevel()</text><ellipse cx="33.5" cy="414.4453" fill="#84BE84" rx="3" ry="3" style="stroke:#038048;stroke-width:1.0;"/><text fill="#000000" font-family="sans-serif" font-size="14" lengthAdjust="spacing" textLength="141" x="42.5" y="417.792">OtherGetMethods()</text><ellipse cx="33.5" cy="430.7422" fill="#84BE84" rx="3" ry="3" style="stroke:#038048;stroke-width:1.0;"/><text fill="#000000" font-family="sans-serif" font-size="14" lengthAdjust="spacing" textLength="103" x="42.5" y="434.0889">void setLives()</text><ellipse cx="33.5" cy="447.0391" fill="#84BE84" rx="3" ry="3" style="stroke:#038048;stroke-width:1.0;"/><text fill="#000000" font-family="sans-serif" font-size="14" lengthAdjust="spacing" textLength="259" x="42.5" y="450.3857">void setIsPaused(boolean newState)</text><ellipse cx="33.5" cy="463.3359" fill="#84BE84" rx="3" ry="3" style="stroke:#038048;stroke-width:1.0;"/><text fill="#000000" font-family="sans-serif" font-size="14" lengthAdjust="spacing" textLength="277" x="42.5" y="466.6826">void setStoricHighScore(int newScore)</text></g><!--MD5=[40d2668bbcd459976779c45dfe17221f]
class Statistics--><g id="elem_Statistics"><rect codeLine="17" fill="#F1F1F1" height="178.375" id="Statistics" rx="2.5" ry="2.5" style="stroke:#181818;stroke-width:0.5;" width="182" x="492" y="41"/><ellipse cx="544.75" cy="57" fill="#ADD1B2" rx="11" ry="11" style="stroke:#181818;stroke-width:1.0;"/><path d="M547.0938,52.6719 C546.1563,52.2344 545.5625,52.0938 544.6875,52.0938 C542.0625,52.0938 540.0625,54.1719 540.0625,56.8906 L540.0625,58.0156 C540.0625,60.5938 542.1719,62.4844 545.0625,62.4844 C546.2813,62.4844 547.4375,62.1875 548.1875,61.6406 C548.7656,61.2344 549.0938,60.7813 549.0938,60.3906 C549.0938,59.9375 548.7031,59.5469 548.2344,59.5469 C548.0156,59.5469 547.8125,59.625 547.625,59.8125 C547.1719,60.2969 547.1719,60.2969 546.9844,60.3906 C546.5625,60.6563 545.875,60.7813 545.1094,60.7813 C543.0625,60.7813 541.7656,59.6875 541.7656,57.9844 L541.7656,56.8906 C541.7656,55.1094 543.0156,53.7969 544.75,53.7969 C545.3281,53.7969 545.9375,53.9531 546.4063,54.2031 C546.8906,54.4844 547.0625,54.7031 547.1563,55.1094 C547.2188,55.5156 547.25,55.6406 547.3906,55.7656 C547.5313,55.9063 547.7656,56.0156 547.9844,56.0156 C548.25,56.0156 548.5156,55.875 548.6875,55.6563 C548.7969,55.5 548.8281,55.3125 548.8281,54.8906 L548.8281,53.4688 C548.8281,53.0313 548.8125,52.9063 548.7188,52.75 C548.5625,52.4844 548.2813,52.3438 547.9844,52.3438 C547.6875,52.3438 547.4844,52.4375 547.2656,52.75 L547.0938,52.6719 Z " fill="#000000"/><text fill="#000000" font-family="sans-serif" font-size="14" lengthAdjust="spacing" textLength="68" x="565.25" y="61.8467">Statistics</text><line style="stroke:#181818;stroke-width:0.5;" x1="493" x2="673" y1="73" y2="73"/><ellipse cx="503" cy="86.6484" fill="none" rx="3" ry="3" style="stroke:#038048;stroke-width:1.0;"/><text fill="#000000" font-family="sans-serif" font-size="14" lengthAdjust="spacing" textLength="156" x="512" y="89.9951">int NUMBEROFLEVELS</text><ellipse cx="503" cy="102.9453" fill="none" rx="3" ry="3" style="stroke:#038048;stroke-width:1.0;"/><text fill="#000000" font-family="sans-serif" font-size="14" lengthAdjust="spacing" textLength="141" x="512" y="106.292">int levelPercentage</text><ellipse cx="503" cy="119.2422" fill="none" rx="3" ry="3" style="stroke:#038048;stroke-width:1.0;"/><text fill="#000000" font-family="sans-serif" font-size="14" lengthAdjust="spacing" textLength="108" x="512" y="122.5889">OtherVariables</text><ellipse cx="503" cy="135.5391" fill="none" rx="3" ry="3" style="stroke:#038048;stroke-width:1.0;"/><text fill="#000000" font-family="sans-serif" font-size="14" lengthAdjust="spacing" textLength="123" x="512" y="138.8857">boolean isPaused</text><line style="stroke:#181818;stroke-width:0.5;" x1="493" x2="673" y1="146.1875" y2="146.1875"/><ellipse cx="503" cy="159.8359" fill="#84BE84" rx="3" ry="3" style="stroke:#038048;stroke-width:1.0;"/><text fill="#000000" font-family="sans-serif" font-size="14" lengthAdjust="spacing" textLength="97" x="512" y="163.1826">int getLevel()</text><ellipse cx="503" cy="176.1328" fill="#84BE84" rx="3" ry="3" style="stroke:#038048;stroke-width:1.0;"/><text fill="#000000" font-family="sans-serif" font-size="14" lengthAdjust="spacing" textLength="141" x="512" y="179.4795">OtherGetMethods()</text><ellipse cx="503" cy="192.4297" fill="#84BE84" rx="3" ry="3" style="stroke:#038048;stroke-width:1.0;"/><text fill="#000000" font-family="sans-serif" font-size="14" lengthAdjust="spacing" textLength="150" x="512" y="195.7764">void setPercentage()</text><ellipse cx="503" cy="208.7266" fill="#84BE84" rx="3" ry="3" style="stroke:#038048;stroke-width:1.0;"/><text fill="#000000" font-family="sans-serif" font-size="14" lengthAdjust="spacing" textLength="139" x="512" y="212.0732">OtherSetMethods()</text></g><!--MD5=[30acffb5f763cb4ffa0301bee8de40ae]
class KeyHandler--><g id="elem_KeyHandler"><rect codeLine="28" fill="#F1F1F1" height="80.5938" id="KeyHandler" rx="2.5" ry="2.5" style="stroke:#181818;stroke-width:0.5;" width="235" x="709.5" y="89.5"/><ellipse cx="781.75" cy="105.5" fill="#ADD1B2" rx="11" ry="11" style="stroke:#181818;stroke-width:1.0;"/><path d="M784.0938,101.1719 C783.1563,100.7344 782.5625,100.5938 781.6875,100.5938 C779.0625,100.5938 777.0625,102.6719 777.0625,105.3906 L777.0625,106.5156 C777.0625,109.0938 779.1719,110.9844 782.0625,110.9844 C783.2813,110.9844 784.4375,110.6875 785.1875,110.1406 C785.7656,109.7344 786.0938,109.2813 786.0938,108.8906 C786.0938,108.4375 785.7031,108.0469 785.2344,108.0469 C785.0156,108.0469 784.8125,108.125 784.625,108.3125 C784.1719,108.7969 784.1719,108.7969 783.9844,108.8906 C783.5625,109.1563 782.875,109.2813 782.1094,109.2813 C780.0625,109.2813 778.7656,108.1875 778.7656,106.4844 L778.7656,105.3906 C778.7656,103.6094 780.0156,102.2969 781.75,102.2969 C782.3281,102.2969 782.9375,102.4531 783.4063,102.7031 C783.8906,102.9844 784.0625,103.2031 784.1563,103.6094 C784.2188,104.0156 784.25,104.1406 784.3906,104.2656 C784.5313,104.4063 784.7656,104.5156 784.9844,104.5156 C785.25,104.5156 785.5156,104.375 785.6875,104.1563 C785.7969,104 785.8281,103.8125 785.8281,103.3906 L785.8281,101.9688 C785.8281,101.5313 785.8125,101.4063 785.7188,101.25 C785.5625,100.9844 785.2813,100.8438 784.9844,100.8438 C784.6875,100.8438 784.4844,100.9375 784.2656,101.25 L784.0938,101.1719 Z " fill="#000000"/><text fill="#000000" font-family="sans-serif" font-size="14" lengthAdjust="spacing" textLength="82" x="802.25" y="110.3467">KeyHandler</text><line style="stroke:#181818;stroke-width:0.5;" x1="710.5" x2="943.5" y1="121.5" y2="121.5"/><line style="stroke:#181818;stroke-width:0.5;" x1="710.5" x2="943.5" y1="129.5" y2="129.5"/><ellipse cx="720.5" cy="143.1484" fill="#84BE84" rx="3" ry="3" style="stroke:#038048;stroke-width:1.0;"/><text fill="#000000" font-family="sans-serif" font-size="14" lengthAdjust="spacing" textLength="200" x="729.5" y="146.4951">void inputPressed(int input)</text><ellipse cx="720.5" cy="159.4453" fill="#84BE84" rx="3" ry="3" style="stroke:#038048;stroke-width:1.0;"/><text fill="#000000" font-family="sans-serif" font-size="14" lengthAdjust="spacing" textLength="209" x="729.5" y="162.792">void InputReleased(int input)</text></g><!--MD5=[fa42a136f72ee5ca549d69e1d8f77d2d]
class StaticSoundController--><g id="elem_StaticSoundController"><rect codeLine="32" fill="#F1F1F1" height="64.2969" id="StaticSoundController" rx="2.5" ry="2.5" style="stroke:#181818;stroke-width:0.5;" width="306" x="980" y="98"/><ellipse cx="1048.75" cy="114" fill="#ADD1B2" rx="11" ry="11" style="stroke:#181818;stroke-width:1.0;"/><path d="M1051.0938,109.6719 C1050.1563,109.2344 1049.5625,109.0938 1048.6875,109.0938 C1046.0625,109.0938 1044.0625,111.1719 1044.0625,113.8906 L1044.0625,115.0156 C1044.0625,117.5938 1046.1719,119.4844 1049.0625,119.4844 C1050.2813,119.4844 1051.4375,119.1875 1052.1875,118.6406 C1052.7656,118.2344 1053.0938,117.7813 1053.0938,117.3906 C1053.0938,116.9375 1052.7031,116.5469 1052.2344,116.5469 C1052.0156,116.5469 1051.8125,116.625 1051.625,116.8125 C1051.1719,117.2969 1051.1719,117.2969 1050.9844,117.3906 C1050.5625,117.6563 1049.875,117.7813 1049.1094,117.7813 C1047.0625,117.7813 1045.7656,116.6875 1045.7656,114.9844 L1045.7656,113.8906 C1045.7656,112.1094 1047.0156,110.7969 1048.75,110.7969 C1049.3281,110.7969 1049.9375,110.9531 1050.4063,111.2031 C1050.8906,111.4844 1051.0625,111.7031 1051.1563,112.1094 C1051.2188,112.5156 1051.25,112.6406 1051.3906,112.7656 C1051.5313,112.9063 1051.7656,113.0156 1051.9844,113.0156 C1052.25,113.0156 1052.5156,112.875 1052.6875,112.6563 C1052.7969,112.5 1052.8281,112.3125 1052.8281,111.8906 L1052.8281,110.4688 C1052.8281,110.0313 1052.8125,109.9063 1052.7188,109.75 C1052.5625,109.4844 1052.2813,109.3438 1051.9844,109.3438 C1051.6875,109.3438 1051.4844,109.4375 1051.2656,109.75 L1051.0938,109.6719 Z " fill="#000000"/><text fill="#000000" font-family="sans-serif" font-size="14" lengthAdjust="spacing" textLength="160" x="1069.25" y="118.8467">StaticSoundController</text><line style="stroke:#181818;stroke-width:0.5;" x1="981" x2="1285" y1="130" y2="130"/><line style="stroke:#181818;stroke-width:0.5;" x1="981" x2="1285" y1="138" y2="138"/><ellipse cx="991" cy="151.6484" fill="#84BE84" rx="3" ry="3" style="stroke:#038048;stroke-width:1.0;"/><text fill="#000000" font-family="sans-serif" font-size="14" lengthAdjust="spacing" textLength="280" x="1000" y="154.9951">void playStaticSound(String command)</text></g><!--MD5=[a6630b1eeb254db03b9cef8006c2ecf7]
class DynamicSoundController--><g id="elem_DynamicSoundController"><rect codeLine="35" fill="#F1F1F1" height="145.7813" id="DynamicSoundController" rx="2.5" ry="2.5" style="stroke:#181818;stroke-width:0.5;" width="266" x="361" y="336"/><ellipse cx="400.75" cy="352" fill="#ADD1B2" rx="11" ry="11" style="stroke:#181818;stroke-width:1.0;"/><path d="M403.0938,347.6719 C402.1563,347.2344 401.5625,347.0938 400.6875,347.0938 C398.0625,347.0938 396.0625,349.1719 396.0625,351.8906 L396.0625,353.0156 C396.0625,355.5938 398.1719,357.4844 401.0625,357.4844 C402.2813,357.4844 403.4375,357.1875 404.1875,356.6406 C404.7656,356.2344 405.0938,355.7813 405.0938,355.3906 C405.0938,354.9375 404.7031,354.5469 404.2344,354.5469 C404.0156,354.5469 403.8125,354.625 403.625,354.8125 C403.1719,355.2969 403.1719,355.2969 402.9844,355.3906 C402.5625,355.6563 401.875,355.7813 401.1094,355.7813 C399.0625,355.7813 397.7656,354.6875 397.7656,352.9844 L397.7656,351.8906 C397.7656,350.1094 399.0156,348.7969 400.75,348.7969 C401.3281,348.7969 401.9375,348.9531 402.4063,349.2031 C402.8906,349.4844 403.0625,349.7031 403.1563,350.1094 C403.2188,350.5156 403.25,350.6406 403.3906,350.7656 C403.5313,350.9063 403.7656,351.0156 403.9844,351.0156 C404.25,351.0156 404.5156,350.875 404.6875,350.6563 C404.7969,350.5 404.8281,350.3125 404.8281,349.8906 L404.8281,348.4688 C404.8281,348.0313 404.8125,347.9063 404.7188,347.75 C404.5625,347.4844 404.2813,347.3438 403.9844,347.3438 C403.6875,347.3438 403.4844,347.4375 403.2656,347.75 L403.0938,347.6719 Z " fill="#000000"/><text fill="#000000" font-family="sans-serif" font-size="14" lengthAdjust="spacing" textLength="179" x="420.25" y="356.8467">DynamicSoundController</text><line style="stroke:#181818;stroke-width:0.5;" x1="362" x2="626" y1="368" y2="368"/><ellipse cx="372" cy="381.6484" fill="none" rx="3" ry="3" style="stroke:#038048;stroke-width:1.0;"/><text fill="#000000" font-family="sans-serif" font-size="14" lengthAdjust="spacing" textLength="132" x="381" y="384.9951">Clip CLIPCARRERA</text><ellipse cx="372" cy="397.9453" fill="none" rx="3" ry="3" style="stroke:#038048;stroke-width:1.0;"/><text fill="#000000" font-family="sans-serif" font-size="14" lengthAdjust="spacing" textLength="143" x="381" y="401.292">OtherConstantClips</text><ellipse cx="372" cy="414.2422" fill="none" rx="3" ry="3" style="stroke:#038048;stroke-width:1.0;"/><text fill="#000000" font-family="sans-serif" font-size="14" lengthAdjust="spacing" textLength="147" x="381" y="417.5889">Boolean carreraLock</text><ellipse cx="372" cy="430.5391" fill="none" rx="3" ry="3" style="stroke:#038048;stroke-width:1.0;"/><text fill="#000000" font-family="sans-serif" font-size="14" lengthAdjust="spacing" textLength="141" x="381" y="433.8857">OtherBooleanLocks</text><line style="stroke:#181818;stroke-width:0.5;" x1="362" x2="626" y1="441.1875" y2="441.1875"/><ellipse cx="372" cy="454.8359" fill="#84BE84" rx="3" ry="3" style="stroke:#038048;stroke-width:1.0;"/><text fill="#000000" font-family="sans-serif" font-size="14" lengthAdjust="spacing" textLength="237" x="381" y="458.1826">void playSound(String command)</text><ellipse cx="372" cy="471.1328" fill="#84BE84" rx="3" ry="3" style="stroke:#038048;stroke-width:1.0;"/><text fill="#000000" font-family="sans-serif" font-size="14" lengthAdjust="spacing" textLength="240" x="381" y="474.4795">void stopSound(String command)</text></g><!--MD5=[4dfc6a72b8dd60daa1b635d583ff79da]
class Map--><g id="elem_Map"><rect codeLine="43" fill="#F1F1F1" height="162.0781" id="Map" rx="2.5" ry="2.5" style="stroke:#181818;stroke-width:0.5;" width="420" x="662" y="328"/><ellipse cx="852.75" cy="344" fill="#ADD1B2" rx="11" ry="11" style="stroke:#181818;stroke-width:1.0;"/><path d="M855.0938,339.6719 C854.1563,339.2344 853.5625,339.0938 852.6875,339.0938 C850.0625,339.0938 848.0625,341.1719 848.0625,343.8906 L848.0625,345.0156 C848.0625,347.5938 850.1719,349.4844 853.0625,349.4844 C854.2813,349.4844 855.4375,349.1875 856.1875,348.6406 C856.7656,348.2344 857.0938,347.7813 857.0938,347.3906 C857.0938,346.9375 856.7031,346.5469 856.2344,346.5469 C856.0156,346.5469 855.8125,346.625 855.625,346.8125 C855.1719,347.2969 855.1719,347.2969 854.9844,347.3906 C854.5625,347.6563 853.875,347.7813 853.1094,347.7813 C851.0625,347.7813 849.7656,346.6875 849.7656,344.9844 L849.7656,343.8906 C849.7656,342.1094 851.0156,340.7969 852.75,340.7969 C853.3281,340.7969 853.9375,340.9531 854.4063,341.2031 C854.8906,341.4844 855.0625,341.7031 855.1563,342.1094 C855.2188,342.5156 855.25,342.6406 855.3906,342.7656 C855.5313,342.9063 855.7656,343.0156 855.9844,343.0156 C856.25,343.0156 856.5156,342.875 856.6875,342.6563 C856.7969,342.5 856.8281,342.3125 856.8281,341.8906 L856.8281,340.4688 C856.8281,340.0313 856.8125,339.9063 856.7188,339.75 C856.5625,339.4844 856.2813,339.3438 855.9844,339.3438 C855.6875,339.3438 855.4844,339.4375 855.2656,339.75 L855.0938,339.6719 Z " fill="#000000"/><text fill="#000000" font-family="sans-serif" font-size="14" lengthAdjust="spacing" textLength="30" x="873.25" y="348.8467">Map</text><line style="stroke:#181818;stroke-width:0.5;" x1="663" x2="1081" y1="360" y2="360"/><ellipse cx="673" cy="373.6484" fill="none" rx="3" ry="3" style="stroke:#038048;stroke-width:1.0;"/><text fill="#000000" font-family="sans-serif" font-size="14" lengthAdjust="spacing" textLength="134" x="682" y="376.9951">Char[][] mapMatrix</text><line style="stroke:#181818;stroke-width:0.5;" x1="663" x2="1081" y1="384.2969" y2="384.2969"/><ellipse cx="673" cy="397.9453" fill="#84BE84" rx="3" ry="3" style="stroke:#038048;stroke-width:1.0;"/><text fill="#000000" font-family="sans-serif" font-size="14" lengthAdjust="spacing" textLength="98" x="682" y="401.292">Map(int level)</text><ellipse cx="673" cy="414.2422" fill="#84BE84" rx="3" ry="3" style="stroke:#038048;stroke-width:1.0;"/><text fill="#000000" font-family="sans-serif" font-size="14" lengthAdjust="spacing" textLength="394" x="682" y="417.5889">void generateMapMatrix(Char[][] mapMatrixReference)</text><ellipse cx="673" cy="430.5391" fill="#84BE84" rx="3" ry="3" style="stroke:#038048;stroke-width:1.0;"/><text fill="#000000" font-family="sans-serif" font-size="14" lengthAdjust="spacing" textLength="296" x="682" y="433.8857">LinkedList&lt;int[]&gt; getEntityCoordinates()</text><ellipse cx="673" cy="446.8359" fill="#84BE84" rx="3" ry="3" style="stroke:#038048;stroke-width:1.0;"/><text fill="#000000" font-family="sans-serif" font-size="14" lengthAdjust="spacing" textLength="141" x="682" y="450.1826">OtherGetMethods()</text><ellipse cx="673" cy="463.1328" fill="#84BE84" rx="3" ry="3" style="stroke:#038048;stroke-width:1.0;"/><text fill="#000000" font-family="sans-serif" font-size="14" lengthAdjust="spacing" textLength="165" x="682" y="466.4795">char[][] getMapMatrix()</text><ellipse cx="673" cy="479.4297" fill="#84BE84" rx="3" ry="3" style="stroke:#038048;stroke-width:1.0;"/><text fill="#000000" font-family="sans-serif" font-size="14" lengthAdjust="spacing" textLength="196" x="682" y="482.7764">void setLevel(int newLevel)</text></g><!--MD5=[bd7fe129fbc368b1084c5b4e44aeb899]
class CollisionController--><g id="elem_CollisionController"><rect codeLine="52" fill="#F1F1F1" height="259.8594" id="CollisionController" rx="2.5" ry="2.5" style="stroke:#181818;stroke-width:0.5;" width="505" x="1117.5" y="279"/><ellipse cx="1299.25" cy="295" fill="#ADD1B2" rx="11" ry="11" style="stroke:#181818;stroke-width:1.0;"/><path d="M1301.5938,290.6719 C1300.6563,290.2344 1300.0625,290.0938 1299.1875,290.0938 C1296.5625,290.0938 1294.5625,292.1719 1294.5625,294.8906 L1294.5625,296.0156 C1294.5625,298.5938 1296.6719,300.4844 1299.5625,300.4844 C1300.7813,300.4844 1301.9375,300.1875 1302.6875,299.6406 C1303.2656,299.2344 1303.5938,298.7813 1303.5938,298.3906 C1303.5938,297.9375 1303.2031,297.5469 1302.7344,297.5469 C1302.5156,297.5469 1302.3125,297.625 1302.125,297.8125 C1301.6719,298.2969 1301.6719,298.2969 1301.4844,298.3906 C1301.0625,298.6563 1300.375,298.7813 1299.6094,298.7813 C1297.5625,298.7813 1296.2656,297.6875 1296.2656,295.9844 L1296.2656,294.8906 C1296.2656,293.1094 1297.5156,291.7969 1299.25,291.7969 C1299.8281,291.7969 1300.4375,291.9531 1300.9063,292.2031 C1301.3906,292.4844 1301.5625,292.7031 1301.6563,293.1094 C1301.7188,293.5156 1301.75,293.6406 1301.8906,293.7656 C1302.0313,293.9063 1302.2656,294.0156 1302.4844,294.0156 C1302.75,294.0156 1303.0156,293.875 1303.1875,293.6563 C1303.2969,293.5 1303.3281,293.3125 1303.3281,292.8906 L1303.3281,291.4688 C1303.3281,291.0313 1303.3125,290.9063 1303.2188,290.75 C1303.0625,290.4844 1302.7813,290.3438 1302.4844,290.3438 C1302.1875,290.3438 1301.9844,290.4375 1301.7656,290.75 L1301.5938,290.6719 Z " fill="#000000"/><text fill="#000000" font-family="sans-serif" font-size="14" lengthAdjust="spacing" textLength="133" x="1319.75" y="299.8467">CollisionController</text><line style="stroke:#181818;stroke-width:0.5;" x1="1118.5" x2="1621.5" y1="311" y2="311"/><ellipse cx="1128.5" cy="324.6484" fill="none" rx="3" ry="3" style="stroke:#038048;stroke-width:1.0;"/><text fill="#000000" font-family="sans-serif" font-size="14" lengthAdjust="spacing" textLength="108" x="1137.5" y="327.9951">String VEHICLE</text><ellipse cx="1128.5" cy="340.9453" fill="none" rx="3" ry="3" style="stroke:#038048;stroke-width:1.0;"/><text fill="#000000" font-family="sans-serif" font-size="14" lengthAdjust="spacing" textLength="85" x="1137.5" y="344.292">String TREE</text><ellipse cx="1128.5" cy="357.2422" fill="none" rx="3" ry="3" style="stroke:#038048;stroke-width:1.0;"/><text fill="#000000" font-family="sans-serif" font-size="14" lengthAdjust="spacing" textLength="159" x="1137.5" y="360.5889">OtherConstantStrings</text><ellipse cx="1128.5" cy="373.5391" fill="none" rx="3" ry="3" style="stroke:#038048;stroke-width:1.0;"/><text fill="#000000" font-family="sans-serif" font-size="14" lengthAdjust="spacing" textLength="199" x="1137.5" y="376.8857">Boolean collisionRegistered</text><ellipse cx="1128.5" cy="389.8359" fill="none" rx="3" ry="3" style="stroke:#038048;stroke-width:1.0;"/><text fill="#000000" font-family="sans-serif" font-size="14" lengthAdjust="spacing" textLength="214" x="1137.5" y="393.1826">LinkedList&lt;Entity&gt; entityList</text><ellipse cx="1128.5" cy="406.1328" fill="none" rx="3" ry="3" style="stroke:#038048;stroke-width:1.0;"/><text fill="#000000" font-family="sans-serif" font-size="14" lengthAdjust="spacing" textLength="282" x="1137.5" y="409.4795">LinkedList&lt;Entity&gt; entiitiesWithSound</text><ellipse cx="1128.5" cy="422.4297" fill="none" rx="3" ry="3" style="stroke:#038048;stroke-width:1.0;"/><text fill="#000000" font-family="sans-serif" font-size="14" lengthAdjust="spacing" textLength="113" x="1137.5" y="425.7764">int currentTime</text><line style="stroke:#181818;stroke-width:0.5;" x1="1118.5" x2="1621.5" y1="433.0781" y2="433.0781"/><ellipse cx="1128.5" cy="446.7266" fill="#84BE84" rx="3" ry="3" style="stroke:#038048;stroke-width:1.0;"/><text fill="#000000" font-family="sans-serif" font-size="14" lengthAdjust="spacing" textLength="147" x="1137.5" y="450.0732">void checkCollision()</text><ellipse cx="1128.5" cy="463.0234" fill="#84BE84" rx="3" ry="3" style="stroke:#038048;stroke-width:1.0;"/><text fill="#000000" font-family="sans-serif" font-size="14" lengthAdjust="spacing" textLength="106" x="1137.5" y="466.3701">void stopPlay()</text><ellipse cx="1128.5" cy="479.3203" fill="#84BE84" rx="3" ry="3" style="stroke:#038048;stroke-width:1.0;"/><text fill="#000000" font-family="sans-serif" font-size="14" lengthAdjust="spacing" textLength="479" x="1137.5" y="482.667">void dynamicSoundManager(Entity entityToCheck, boolean toPlay)</text><ellipse cx="1128.5" cy="495.6172" fill="#84BE84" rx="3" ry="3" style="stroke:#038048;stroke-width:1.0;"/><text fill="#000000" font-family="sans-serif" font-size="14" lengthAdjust="spacing" textLength="293" x="1137.5" y="498.9639">void collisionType(Entity entityToCheck)</text><ellipse cx="1128.5" cy="511.9141" fill="#84BE84" rx="3" ry="3" style="stroke:#038048;stroke-width:1.0;"/><text fill="#000000" font-family="sans-serif" font-size="14" lengthAdjust="spacing" textLength="386" x="1137.5" y="515.2607">void setCollisionRegistered(boolean newRegistration)</text><ellipse cx="1128.5" cy="528.2109" fill="#84BE84" rx="3" ry="3" style="stroke:#038048;stroke-width:1.0;"/><text fill="#000000" font-family="sans-serif" font-size="14" lengthAdjust="spacing" textLength="121" x="1137.5" y="531.5576">void updateList()</text></g><path d="M24.5,103.5 L101.5,103.5 A3.75,3.75 0 0 1 104,106 L111,125.7969 L115.5,125.7969 A2.5,2.5 0 0 1 118,128.2969 L118,153.5938 A2.5,2.5 0 0 1 115.5,156.0938 L24.5,156.0938 A2.5,2.5 0 0 1 22,153.5938 L22,106 A2.5,2.5 0 0 1 24.5,103.5 " fill="#F1F1F1" style="stroke:#181818;stroke-width:0.5;"/><line style="stroke:#181818;stroke-width:0.5;" x1="22" x2="111" y1="125.7969" y2="125.7969"/><text fill="#000000" font-family="sans-serif" font-size="14" lengthAdjust="spacing" textLength="76" x="26" y="118.4951">characters</text><!--MD5=[81ed64998f66a291794240710bf4e640]
link ILogic to Logic--><g id="link_ILogic_Logic"><path codeLine="68" d="M270.923,203.055 C250.227,246.817 224.046,302.178 204.112,344.327 " fill="none" id="ILogic-Logic" style="stroke:#181818;stroke-width:1.0;"/><path d="M246.6471,270.9266 A10,10 0 0 0 233.8625 264.8806" fill="none" style="stroke:#181818;stroke-width:1.5;"/><ellipse cx="237.2318" cy="274.2959" fill="#FFFFFF" rx="6" ry="6" style="stroke:#181818;stroke-width:1.5;"/></g><!--MD5=[32dcdad0f8965914c931ed04d417c38c]
@startuml
package logic {
  interface ILogic {
    +int getLevel()
    +OtherGetMethods()
    +boolean getIsPaused()
    +void setLives()
    +void setIsPaused(boolean newState)
    +void setStoricHighScore(int newScore)
  }
  class Logic {
    +int getLevel()
    +OtherGetMethods()
    +void setLives()
    +void setIsPaused(boolean newState)
    +void setStoricHighScore(int newScore)
  }
  class Statistics {
    +int NUMBEROFLEVELS
    +int levelPercentage
    +OtherVariables
    +boolean isPaused
    +int getLevel()
    +OtherGetMethods()
    +void setPercentage()
    +OtherSetMethods()
  }
  
  class KeyHandler {
    +void inputPressed(int input)
    +void InputReleased(int input)
  }
  class StaticSoundController {
    +void playStaticSound(String command)
  }
  class DynamicSoundController {
    +Clip CLIPCARRERA
    +OtherConstantClips
    +Boolean carreraLock
    +OtherBooleanLocks
    +void playSound(String command)
    +void stopSound(String command)
  }
  class Map {
    +Char[][] mapMatrix
    +Map(int level)
    +void generateMapMatrix(Char[][] mapMatrixReference)
    +LinkedList<int[]> getEntityCoordinates()
    +OtherGetMethods()
    +char[][] getMapMatrix()
    +void setLevel(int newLevel)
  }
  class CollisionController {
    +String VEHICLE
    +String TREE
    +OtherConstantStrings
    +Boolean collisionRegistered
    +LinkedList<Entity> entityList
    +LinkedList<Entity> entiitiesWithSound
    +int currentTime
    +void checkCollision()
    +void stopPlay()
    +void dynamicSoundManager(Entity entityToCheck, boolean toPlay)
    +void collisionType(Entity entityToCheck)
    +void setCollisionRegistered(boolean newRegistration)
    +void updateList()
  }
  package characters{}
  ILogic -(0-Logic
}
@enduml

PlantUML version 1.2022.13beta8(Unknown compile time)
(GPL source distribution)
Java Runtime: Java(TM) SE Runtime Environment
JVM: Java HotSpot(TM) 64-Bit Server VM
Default Encoding: UTF-8
Language: en
Country: US
--></g></svg>