<?xml version="1.0" encoding="UTF-8" standalone="no"?><svg xmlns="http://www.w3.org/2000/svg" xmlns:xlink="http://www.w3.org/1999/xlink" contentStyleType="text/css" height="741px" preserveAspectRatio="none" style="width:1457px;height:741px;background:#FFFFFF;" version="1.1" viewBox="0 0 1457 741" width="1457px" zoomAndPan="magnify"><defs/><g><!--MD5=[e4fd15ec1eb2c16989c5dac5bcfca7f9]
cluster utilities--><g id="cluster_utilities"><path d="M8.5,6 L73.5,6 A3.75,3.75 0 0 1 76,8.5 L83,28.2969 L1447.5,28.2969 A2.5,2.5 0 0 1 1450,30.7969 L1450,731.5 A2.5,2.5 0 0 1 1447.5,734 L8.5,734 A2.5,2.5 0 0 1 6,731.5 L6,8.5 A2.5,2.5 0 0 1 8.5,6 " fill="none" style="stroke:#000000;stroke-width:1.5;"/><line style="stroke:#000000;stroke-width:1.5;" x1="6" x2="83" y1="28.2969" y2="28.2969"/><text fill="#000000" font-family="sans-serif" font-size="14" font-weight="bold" lengthAdjust="spacing" textLength="64" x="10" y="20.9951">utilities</text></g><!--MD5=[4886ed3083e56ebb40a19b2a73f2e0f3]
class IUtilities--><g id="elem_IUtilities"><rect codeLine="3" fill="#F1F1F1" height="292.4531" id="IUtilities" rx="2.5" ry="2.5" style="stroke:#181818;stroke-width:0.5;" width="413" x="22.5" y="41"/><ellipse cx="196.75" cy="57" fill="#B4A7E5" rx="11" ry="11" style="stroke:#181818;stroke-width:1.0;"/><path d="M197.7031,53.7813 L199.4219,53.7813 C199.8125,53.7813 200,53.75 200.125,53.6719 C200.3906,53.5156 200.5313,53.2344 200.5313,52.9375 C200.5313,52.6719 200.4219,52.4063 200.1875,52.2344 C200.0156,52.125 199.875,52.0938 199.4219,52.0938 L194.2813,52.0938 C193.8438,52.0938 193.7188,52.1094 193.5625,52.2031 C193.3125,52.3594 193.1563,52.6563 193.1563,52.9375 C193.1563,53.2188 193.2969,53.4688 193.5156,53.6406 C193.6719,53.75 193.8594,53.7813 194.2813,53.7813 L196,53.7813 L196,60.2969 L194.2813,60.2969 C193.8438,60.2969 193.7188,60.3125 193.5625,60.4219 C193.3125,60.5781 193.1563,60.8594 193.1563,61.1563 C193.1563,61.4063 193.2969,61.6719 193.5156,61.8281 C193.6719,61.9531 193.875,62 194.2813,62 L199.4219,62 C200.1719,62 200.5313,61.7188 200.5313,61.1563 C200.5313,60.875 200.4219,60.625 200.1875,60.4531 C200.0156,60.3281 199.875,60.2969 199.4219,60.2969 L197.7031,60.2969 L197.7031,53.7813 Z " fill="#000000"/><text fill="#000000" font-family="sans-serif" font-size="14" font-style="italic" lengthAdjust="spacing" textLength="56" x="217.25" y="61.8467">IUtilities</text><line style="stroke:#181818;stroke-width:0.5;" x1="23.5" x2="434.5" y1="73" y2="73"/><line style="stroke:#181818;stroke-width:0.5;" x1="23.5" x2="434.5" y1="81" y2="81"/><ellipse cx="33.5" cy="94.6484" fill="#84BE84" rx="3" ry="3" style="stroke:#038048;stroke-width:1.0;"/><text fill="#000000" font-family="sans-serif" font-size="14" lengthAdjust="spacing" textLength="336" x="42.5" y="97.9951">void retrieveLogicView(ILogic logic, IView view)</text><ellipse cx="33.5" cy="110.9453" fill="#84BE84" rx="3" ry="3" style="stroke:#038048;stroke-width:1.0;"/><text fill="#000000" font-family="sans-serif" font-size="14" lengthAdjust="spacing" textLength="387" x="42.5" y="114.292">String getElementsAssetsLocation(String assetName)</text><ellipse cx="33.5" cy="127.2422" fill="#84BE84" rx="3" ry="3" style="stroke:#038048;stroke-width:1.0;"/><text fill="#000000" font-family="sans-serif" font-size="14" lengthAdjust="spacing" textLength="113" x="42.5" y="130.5889">String getIcon()</text><ellipse cx="33.5" cy="143.5391" fill="#84BE84" rx="3" ry="3" style="stroke:#038048;stroke-width:1.0;"/><text fill="#000000" font-family="sans-serif" font-size="14" lengthAdjust="spacing" textLength="328" x="42.5" y="146.8857">String getLevelMapLocation(int levelNumber)</text><ellipse cx="33.5" cy="159.8359" fill="#84BE84" rx="3" ry="3" style="stroke:#038048;stroke-width:1.0;"/><text fill="#000000" font-family="sans-serif" font-size="14" lengthAdjust="spacing" textLength="196" x="42.5" y="163.1826">String getLevelMapFolder()</text><ellipse cx="33.5" cy="176.1328" fill="#84BE84" rx="3" ry="3" style="stroke:#038048;stroke-width:1.0;"/><text fill="#000000" font-family="sans-serif" font-size="14" lengthAdjust="spacing" textLength="188" x="42.5" y="179.4795">String getHighScoresFile()</text><ellipse cx="33.5" cy="192.4297" fill="#84BE84" rx="3" ry="3" style="stroke:#038048;stroke-width:1.0;"/><text fill="#000000" font-family="sans-serif" font-size="14" lengthAdjust="spacing" textLength="335" x="42.5" y="195.7764">String getTexturesLocation(String assetName)</text><ellipse cx="33.5" cy="208.7266" fill="#84BE84" rx="3" ry="3" style="stroke:#038048;stroke-width:1.0;"/><text fill="#000000" font-family="sans-serif" font-size="14" lengthAdjust="spacing" textLength="359" x="42.5" y="212.0732">String getAudioAssetsLocation(String assetName)</text><ellipse cx="33.5" cy="225.0234" fill="#84BE84" rx="3" ry="3" style="stroke:#038048;stroke-width:1.0;"/><text fill="#000000" font-family="sans-serif" font-size="14" lengthAdjust="spacing" textLength="247" x="42.5" y="228.3701">void playFileLoop(String fileName)</text><ellipse cx="33.5" cy="241.3203" fill="#84BE84" rx="3" ry="3" style="stroke:#038048;stroke-width:1.0;"/><text fill="#000000" font-family="sans-serif" font-size="14" lengthAdjust="spacing" textLength="211" x="42.5" y="244.667">void playFile(String fileName)</text><ellipse cx="33.5" cy="257.6172" fill="#84BE84" rx="3" ry="3" style="stroke:#038048;stroke-width:1.0;"/><text fill="#000000" font-family="sans-serif" font-size="14" lengthAdjust="spacing" textLength="201" x="42.5" y="260.9639">void releaseAudioResorces()</text><ellipse cx="33.5" cy="273.9141" fill="#84BE84" rx="3" ry="3" style="stroke:#038048;stroke-width:1.0;"/><text fill="#000000" font-family="sans-serif" font-size="14" lengthAdjust="spacing" textLength="207" x="42.5" y="277.2607">Clip getClip(String fileName)</text><ellipse cx="33.5" cy="290.2109" fill="#84BE84" rx="3" ry="3" style="stroke:#038048;stroke-width:1.0;"/><text fill="#000000" font-family="sans-serif" font-size="14" lengthAdjust="spacing" textLength="218" x="42.5" y="293.5576">List&lt;String&gt; readHighScores()</text><ellipse cx="33.5" cy="306.5078" fill="#84BE84" rx="3" ry="3" style="stroke:#038048;stroke-width:1.0;"/><text fill="#000000" font-family="sans-serif" font-size="14" lengthAdjust="spacing" textLength="185" x="42.5" y="309.8545">char[][] readMap(int level)</text><ellipse cx="33.5" cy="322.8047" fill="#84BE84" rx="3" ry="3" style="stroke:#038048;stroke-width:1.0;"/><text fill="#000000" font-family="sans-serif" font-size="14" lengthAdjust="spacing" textLength="249" x="42.5" y="326.1514">void writeHighScores(String name)</text></g><!--MD5=[5fc9b60f5d5c64ad0df8704dae8d48bb]
class Utilities--><g id="elem_Utilities"><rect codeLine="21" fill="#F1F1F1" height="325.0469" id="Utilities" rx="2.5" ry="2.5" style="stroke:#181818;stroke-width:0.5;" width="413" x="22.5" y="393"/><ellipse cx="197.25" cy="409" fill="#ADD1B2" rx="11" ry="11" style="stroke:#181818;stroke-width:1.0;"/><path d="M199.5938,404.6719 C198.6563,404.2344 198.0625,404.0938 197.1875,404.0938 C194.5625,404.0938 192.5625,406.1719 192.5625,408.8906 L192.5625,410.0156 C192.5625,412.5938 194.6719,414.4844 197.5625,414.4844 C198.7813,414.4844 199.9375,414.1875 200.6875,413.6406 C201.2656,413.2344 201.5938,412.7813 201.5938,412.3906 C201.5938,411.9375 201.2031,411.5469 200.7344,411.5469 C200.5156,411.5469 200.3125,411.625 200.125,411.8125 C199.6719,412.2969 199.6719,412.2969 199.4844,412.3906 C199.0625,412.6563 198.375,412.7813 197.6094,412.7813 C195.5625,412.7813 194.2656,411.6875 194.2656,409.9844 L194.2656,408.8906 C194.2656,407.1094 195.5156,405.7969 197.25,405.7969 C197.8281,405.7969 198.4375,405.9531 198.9063,406.2031 C199.3906,406.4844 199.5625,406.7031 199.6563,407.1094 C199.7188,407.5156 199.75,407.6406 199.8906,407.7656 C200.0313,407.9063 200.2656,408.0156 200.4844,408.0156 C200.75,408.0156 201.0156,407.875 201.1875,407.6563 C201.2969,407.5 201.3281,407.3125 201.3281,406.8906 L201.3281,405.4688 C201.3281,405.0313 201.3125,404.9063 201.2188,404.75 C201.0625,404.4844 200.7813,404.3438 200.4844,404.3438 C200.1875,404.3438 199.9844,404.4375 199.7656,404.75 L199.5938,404.6719 Z " fill="#000000"/><text fill="#000000" font-family="sans-serif" font-size="14" lengthAdjust="spacing" textLength="55" x="217.75" y="413.8467">Utilities</text><line style="stroke:#181818;stroke-width:0.5;" x1="23.5" x2="434.5" y1="425" y2="425"/><line style="stroke:#181818;stroke-width:0.5;" x1="23.5" x2="434.5" y1="433" y2="433"/><ellipse cx="33.5" cy="446.6484" fill="#84BE84" rx="3" ry="3" style="stroke:#038048;stroke-width:1.0;"/><text fill="#000000" font-family="sans-serif" font-size="14" lengthAdjust="spacing" textLength="336" x="42.5" y="449.9951">void retrieveLogicView(ILogic logic, IView view)</text><ellipse cx="33.5" cy="462.9453" fill="#84BE84" rx="3" ry="3" style="stroke:#038048;stroke-width:1.0;"/><text fill="#000000" font-family="sans-serif" font-size="14" lengthAdjust="spacing" textLength="119" x="42.5" y="466.292">ILogic getLogic()</text><ellipse cx="33.5" cy="479.2422" fill="#84BE84" rx="3" ry="3" style="stroke:#038048;stroke-width:1.0;"/><text fill="#000000" font-family="sans-serif" font-size="14" lengthAdjust="spacing" textLength="111" x="42.5" y="482.5889">IView getView()</text><ellipse cx="33.5" cy="495.5391" fill="#84BE84" rx="3" ry="3" style="stroke:#038048;stroke-width:1.0;"/><text fill="#000000" font-family="sans-serif" font-size="14" lengthAdjust="spacing" textLength="387" x="42.5" y="498.8857">String getElementsAssetsLocation(String assetName)</text><ellipse cx="33.5" cy="511.8359" fill="#84BE84" rx="3" ry="3" style="stroke:#038048;stroke-width:1.0;"/><text fill="#000000" font-family="sans-serif" font-size="14" lengthAdjust="spacing" textLength="113" x="42.5" y="515.1826">String getIcon()</text><ellipse cx="33.5" cy="528.1328" fill="#84BE84" rx="3" ry="3" style="stroke:#038048;stroke-width:1.0;"/><text fill="#000000" font-family="sans-serif" font-size="14" lengthAdjust="spacing" textLength="328" x="42.5" y="531.4795">String getLevelMapLocation(int levelNumber)</text><ellipse cx="33.5" cy="544.4297" fill="#84BE84" rx="3" ry="3" style="stroke:#038048;stroke-width:1.0;"/><text fill="#000000" font-family="sans-serif" font-size="14" lengthAdjust="spacing" textLength="196" x="42.5" y="547.7764">String getLevelMapFolder()</text><ellipse cx="33.5" cy="560.7266" fill="#84BE84" rx="3" ry="3" style="stroke:#038048;stroke-width:1.0;"/><text fill="#000000" font-family="sans-serif" font-size="14" lengthAdjust="spacing" textLength="188" x="42.5" y="564.0732">String getHighScoresFile()</text><ellipse cx="33.5" cy="577.0234" fill="#84BE84" rx="3" ry="3" style="stroke:#038048;stroke-width:1.0;"/><text fill="#000000" font-family="sans-serif" font-size="14" lengthAdjust="spacing" textLength="335" x="42.5" y="580.3701">String getTexturesLocation(String assetName)</text><ellipse cx="33.5" cy="593.3203" fill="#84BE84" rx="3" ry="3" style="stroke:#038048;stroke-width:1.0;"/><text fill="#000000" font-family="sans-serif" font-size="14" lengthAdjust="spacing" textLength="359" x="42.5" y="596.667">String getAudioAssetsLocation(String assetName)</text><ellipse cx="33.5" cy="609.6172" fill="#84BE84" rx="3" ry="3" style="stroke:#038048;stroke-width:1.0;"/><text fill="#000000" font-family="sans-serif" font-size="14" lengthAdjust="spacing" textLength="247" x="42.5" y="612.9639">void playFileLoop(String fileName)</text><ellipse cx="33.5" cy="625.9141" fill="#84BE84" rx="3" ry="3" style="stroke:#038048;stroke-width:1.0;"/><text fill="#000000" font-family="sans-serif" font-size="14" lengthAdjust="spacing" textLength="211" x="42.5" y="629.2607">void playFile(String fileName)</text><ellipse cx="33.5" cy="642.2109" fill="#84BE84" rx="3" ry="3" style="stroke:#038048;stroke-width:1.0;"/><text fill="#000000" font-family="sans-serif" font-size="14" lengthAdjust="spacing" textLength="201" x="42.5" y="645.5576">void releaseAudioResorces()</text><ellipse cx="33.5" cy="658.5078" fill="#84BE84" rx="3" ry="3" style="stroke:#038048;stroke-width:1.0;"/><text fill="#000000" font-family="sans-serif" font-size="14" lengthAdjust="spacing" textLength="207" x="42.5" y="661.8545">Clip getClip(String fileName)</text><ellipse cx="33.5" cy="674.8047" fill="#84BE84" rx="3" ry="3" style="stroke:#038048;stroke-width:1.0;"/><text fill="#000000" font-family="sans-serif" font-size="14" lengthAdjust="spacing" textLength="218" x="42.5" y="678.1514">List&lt;String&gt; readHighScores()</text><ellipse cx="33.5" cy="691.1016" fill="#84BE84" rx="3" ry="3" style="stroke:#038048;stroke-width:1.0;"/><text fill="#000000" font-family="sans-serif" font-size="14" lengthAdjust="spacing" textLength="185" x="42.5" y="694.4482">char[][] readMap(int level)</text><ellipse cx="33.5" cy="707.3984" fill="#84BE84" rx="3" ry="3" style="stroke:#038048;stroke-width:1.0;"/><text fill="#000000" font-family="sans-serif" font-size="14" lengthAdjust="spacing" textLength="249" x="42.5" y="710.7451">void writeHighScores(String name)</text></g><!--MD5=[f7a180dde56999bbc683201728567324]
class AbsolutePath--><g id="elem_AbsolutePath"><rect codeLine="41" fill="#F1F1F1" height="80.5938" id="AbsolutePath" rx="2.5" ry="2.5" style="stroke:#181818;stroke-width:0.5;" width="206" x="471" y="146.5"/><ellipse cx="521.25" cy="162.5" fill="#ADD1B2" rx="11" ry="11" style="stroke:#181818;stroke-width:1.0;"/><path d="M523.5938,158.1719 C522.6563,157.7344 522.0625,157.5938 521.1875,157.5938 C518.5625,157.5938 516.5625,159.6719 516.5625,162.3906 L516.5625,163.5156 C516.5625,166.0938 518.6719,167.9844 521.5625,167.9844 C522.7813,167.9844 523.9375,167.6875 524.6875,167.1406 C525.2656,166.7344 525.5938,166.2813 525.5938,165.8906 C525.5938,165.4375 525.2031,165.0469 524.7344,165.0469 C524.5156,165.0469 524.3125,165.125 524.125,165.3125 C523.6719,165.7969 523.6719,165.7969 523.4844,165.8906 C523.0625,166.1563 522.375,166.2813 521.6094,166.2813 C519.5625,166.2813 518.2656,165.1875 518.2656,163.4844 L518.2656,162.3906 C518.2656,160.6094 519.5156,159.2969 521.25,159.2969 C521.8281,159.2969 522.4375,159.4531 522.9063,159.7031 C523.3906,159.9844 523.5625,160.2031 523.6563,160.6094 C523.7188,161.0156 523.75,161.1406 523.8906,161.2656 C524.0313,161.4063 524.2656,161.5156 524.4844,161.5156 C524.75,161.5156 525.0156,161.375 525.1875,161.1563 C525.2969,161 525.3281,160.8125 525.3281,160.3906 L525.3281,158.9688 C525.3281,158.5313 525.3125,158.4063 525.2188,158.25 C525.0625,157.9844 524.7813,157.8438 524.4844,157.8438 C524.1875,157.8438 523.9844,157.9375 523.7656,158.25 L523.5938,158.1719 Z " fill="#000000"/><text fill="#000000" font-family="sans-serif" font-size="14" lengthAdjust="spacing" textLength="97" x="541.75" y="167.3467">AbsolutePath</text><line style="stroke:#181818;stroke-width:0.5;" x1="472" x2="676" y1="178.5" y2="178.5"/><ellipse cx="482" cy="192.1484" fill="none" rx="3" ry="3" style="stroke:#038048;stroke-width:1.0;"/><text fill="#000000" font-family="sans-serif" font-size="14" lengthAdjust="spacing" textLength="137" x="491" y="195.4951">String THISFOLDER</text><line style="stroke:#181818;stroke-width:0.5;" x1="472" x2="676" y1="202.7969" y2="202.7969"/><ellipse cx="482" cy="216.4453" fill="#84BE84" rx="3" ry="3" style="stroke:#038048;stroke-width:1.0;"/><text fill="#000000" font-family="sans-serif" font-size="14" lengthAdjust="spacing" textLength="180" x="491" y="219.792">String getAbsolutePath()</text></g><!--MD5=[d72eabb60cccae11d38a40b9214dd64d]
class Assets--><g id="elem_Assets"><rect codeLine="46" fill="#F1F1F1" height="162.0781" id="Assets" rx="2.5" ry="2.5" style="stroke:#181818;stroke-width:0.5;" width="413" x="712.5" y="106"/><ellipse cx="891.25" cy="122" fill="#ADD1B2" rx="11" ry="11" style="stroke:#181818;stroke-width:1.0;"/><path d="M893.5938,117.6719 C892.6563,117.2344 892.0625,117.0938 891.1875,117.0938 C888.5625,117.0938 886.5625,119.1719 886.5625,121.8906 L886.5625,123.0156 C886.5625,125.5938 888.6719,127.4844 891.5625,127.4844 C892.7813,127.4844 893.9375,127.1875 894.6875,126.6406 C895.2656,126.2344 895.5938,125.7813 895.5938,125.3906 C895.5938,124.9375 895.2031,124.5469 894.7344,124.5469 C894.5156,124.5469 894.3125,124.625 894.125,124.8125 C893.6719,125.2969 893.6719,125.2969 893.4844,125.3906 C893.0625,125.6563 892.375,125.7813 891.6094,125.7813 C889.5625,125.7813 888.2656,124.6875 888.2656,122.9844 L888.2656,121.8906 C888.2656,120.1094 889.5156,118.7969 891.25,118.7969 C891.8281,118.7969 892.4375,118.9531 892.9063,119.2031 C893.3906,119.4844 893.5625,119.7031 893.6563,120.1094 C893.7188,120.5156 893.75,120.6406 893.8906,120.7656 C894.0313,120.9063 894.2656,121.0156 894.4844,121.0156 C894.75,121.0156 895.0156,120.875 895.1875,120.6563 C895.2969,120.5 895.3281,120.3125 895.3281,119.8906 L895.3281,118.4688 C895.3281,118.0313 895.3125,117.9063 895.2188,117.75 C895.0625,117.4844 894.7813,117.3438 894.4844,117.3438 C894.1875,117.3438 893.9844,117.4375 893.7656,117.75 L893.5938,117.6719 Z " fill="#000000"/><text fill="#000000" font-family="sans-serif" font-size="14" lengthAdjust="spacing" textLength="47" x="911.75" y="126.8467">Assets</text><line style="stroke:#181818;stroke-width:0.5;" x1="713.5" x2="1124.5" y1="138" y2="138"/><ellipse cx="723.5" cy="151.6484" fill="none" rx="3" ry="3" style="stroke:#038048;stroke-width:1.0;"/><text fill="#000000" font-family="sans-serif" font-size="14" lengthAdjust="spacing" textLength="119" x="732.5" y="154.9951">String assetPath</text><line style="stroke:#181818;stroke-width:0.5;" x1="713.5" x2="1124.5" y1="162.2969" y2="162.2969"/><ellipse cx="723.5" cy="175.9453" fill="#84BE84" rx="3" ry="3" style="stroke:#038048;stroke-width:1.0;"/><text fill="#000000" font-family="sans-serif" font-size="14" lengthAdjust="spacing" textLength="387" x="732.5" y="179.292">String getElementsAssetsLocation(String assetName)</text><ellipse cx="723.5" cy="192.2422" fill="#84BE84" rx="3" ry="3" style="stroke:#038048;stroke-width:1.0;"/><text fill="#000000" font-family="sans-serif" font-size="14" lengthAdjust="spacing" textLength="113" x="732.5" y="195.5889">String getIcon()</text><ellipse cx="723.5" cy="208.5391" fill="#84BE84" rx="3" ry="3" style="stroke:#038048;stroke-width:1.0;"/><text fill="#000000" font-family="sans-serif" font-size="14" lengthAdjust="spacing" textLength="328" x="732.5" y="211.8857">String getLevelMapLocation(int levelNumber)</text><ellipse cx="723.5" cy="224.8359" fill="#84BE84" rx="3" ry="3" style="stroke:#038048;stroke-width:1.0;"/><text fill="#000000" font-family="sans-serif" font-size="14" lengthAdjust="spacing" textLength="188" x="732.5" y="228.1826">String getHighScoresFile()</text><ellipse cx="723.5" cy="241.1328" fill="#84BE84" rx="3" ry="3" style="stroke:#038048;stroke-width:1.0;"/><text fill="#000000" font-family="sans-serif" font-size="14" lengthAdjust="spacing" textLength="335" x="732.5" y="244.4795">String getTexturesLocation(String assetName)</text><ellipse cx="723.5" cy="257.4297" fill="#84BE84" rx="3" ry="3" style="stroke:#038048;stroke-width:1.0;"/><text fill="#000000" font-family="sans-serif" font-size="14" lengthAdjust="spacing" textLength="359" x="732.5" y="260.7764">String getAudioAssetsLocation(String assetName)</text></g><!--MD5=[a3895e38cb849fd2862bdc79bb3ee34d]
class AudioPlayer--><g id="elem_AudioPlayer"><rect codeLine="56" fill="#F1F1F1" height="178.375" id="AudioPlayer" rx="2.5" ry="2.5" style="stroke:#181818;stroke-width:0.5;" width="273" x="1160.5" y="98"/><ellipse cx="1250.75" cy="114" fill="#ADD1B2" rx="11" ry="11" style="stroke:#181818;stroke-width:1.0;"/><path d="M1253.0938,109.6719 C1252.1563,109.2344 1251.5625,109.0938 1250.6875,109.0938 C1248.0625,109.0938 1246.0625,111.1719 1246.0625,113.8906 L1246.0625,115.0156 C1246.0625,117.5938 1248.1719,119.4844 1251.0625,119.4844 C1252.2813,119.4844 1253.4375,119.1875 1254.1875,118.6406 C1254.7656,118.2344 1255.0938,117.7813 1255.0938,117.3906 C1255.0938,116.9375 1254.7031,116.5469 1254.2344,116.5469 C1254.0156,116.5469 1253.8125,116.625 1253.625,116.8125 C1253.1719,117.2969 1253.1719,117.2969 1252.9844,117.3906 C1252.5625,117.6563 1251.875,117.7813 1251.1094,117.7813 C1249.0625,117.7813 1247.7656,116.6875 1247.7656,114.9844 L1247.7656,113.8906 C1247.7656,112.1094 1249.0156,110.7969 1250.75,110.7969 C1251.3281,110.7969 1251.9375,110.9531 1252.4063,111.2031 C1252.8906,111.4844 1253.0625,111.7031 1253.1563,112.1094 C1253.2188,112.5156 1253.25,112.6406 1253.3906,112.7656 C1253.5313,112.9063 1253.7656,113.0156 1253.9844,113.0156 C1254.25,113.0156 1254.5156,112.875 1254.6875,112.6563 C1254.7969,112.5 1254.8281,112.3125 1254.8281,111.8906 L1254.8281,110.4688 C1254.8281,110.0313 1254.8125,109.9063 1254.7188,109.75 C1254.5625,109.4844 1254.2813,109.3438 1253.9844,109.3438 C1253.6875,109.3438 1253.4844,109.4375 1253.2656,109.75 L1253.0938,109.6719 Z " fill="#000000"/><text fill="#000000" font-family="sans-serif" font-size="14" lengthAdjust="spacing" textLength="84" x="1271.25" y="118.8467">AudioPlayer</text><line style="stroke:#181818;stroke-width:0.5;" x1="1161.5" x2="1432.5" y1="130" y2="130"/><ellipse cx="1171.5" cy="143.6484" fill="none" rx="3" ry="3" style="stroke:#038048;stroke-width:1.0;"/><text fill="#000000" font-family="sans-serif" font-size="14" lengthAdjust="spacing" textLength="98" x="1180.5" y="146.9951">String ERROR</text><ellipse cx="1171.5" cy="159.9453" fill="none" rx="3" ry="3" style="stroke:#038048;stroke-width:1.0;"/><text fill="#000000" font-family="sans-serif" font-size="14" lengthAdjust="spacing" textLength="76" x="1180.5" y="163.292">String ATT</text><ellipse cx="1171.5" cy="176.2422" fill="none" rx="3" ry="3" style="stroke:#038048;stroke-width:1.0;"/><text fill="#000000" font-family="sans-serif" font-size="14" lengthAdjust="spacing" textLength="58" x="1180.5" y="179.5889">Clip clip</text><ellipse cx="1171.5" cy="192.5391" fill="none" rx="3" ry="3" style="stroke:#038048;stroke-width:1.0;"/><text fill="#000000" font-family="sans-serif" font-size="14" lengthAdjust="spacing" textLength="129" x="1180.5" y="195.8857">DataLine.Info info</text><line style="stroke:#181818;stroke-width:0.5;" x1="1161.5" x2="1432.5" y1="203.1875" y2="203.1875"/><ellipse cx="1171.5" cy="216.8359" fill="#84BE84" rx="3" ry="3" style="stroke:#038048;stroke-width:1.0;"/><text fill="#000000" font-family="sans-serif" font-size="14" lengthAdjust="spacing" textLength="247" x="1180.5" y="220.1826">void playFileLoop(String fileName)</text><ellipse cx="1171.5" cy="233.1328" fill="#84BE84" rx="3" ry="3" style="stroke:#038048;stroke-width:1.0;"/><text fill="#000000" font-family="sans-serif" font-size="14" lengthAdjust="spacing" textLength="211" x="1180.5" y="236.4795">void playFile(String fileName)</text><ellipse cx="1171.5" cy="249.4297" fill="#84BE84" rx="3" ry="3" style="stroke:#038048;stroke-width:1.0;"/><text fill="#000000" font-family="sans-serif" font-size="14" lengthAdjust="spacing" textLength="207" x="1180.5" y="252.7764">Clip getClip(String fileName)</text><ellipse cx="1171.5" cy="265.7266" fill="#84BE84" rx="3" ry="3" style="stroke:#038048;stroke-width:1.0;"/><text fill="#000000" font-family="sans-serif" font-size="14" lengthAdjust="spacing" textLength="209" x="1180.5" y="269.0732">void releaseAudioResources()</text></g><!--MD5=[a308c5e202159af8fbd714b534b7c814]
class ReadTextFile--><g id="elem_ReadTextFile"><rect codeLine="67" fill="#F1F1F1" height="96.8906" id="ReadTextFile" rx="2.5" ry="2.5" style="stroke:#181818;stroke-width:0.5;" width="244" x="471" y="507"/><ellipse cx="541.75" cy="523" fill="#ADD1B2" rx="11" ry="11" style="stroke:#181818;stroke-width:1.0;"/><path d="M544.0938,518.6719 C543.1563,518.2344 542.5625,518.0938 541.6875,518.0938 C539.0625,518.0938 537.0625,520.1719 537.0625,522.8906 L537.0625,524.0156 C537.0625,526.5938 539.1719,528.4844 542.0625,528.4844 C543.2813,528.4844 544.4375,528.1875 545.1875,527.6406 C545.7656,527.2344 546.0938,526.7813 546.0938,526.3906 C546.0938,525.9375 545.7031,525.5469 545.2344,525.5469 C545.0156,525.5469 544.8125,525.625 544.625,525.8125 C544.1719,526.2969 544.1719,526.2969 543.9844,526.3906 C543.5625,526.6563 542.875,526.7813 542.1094,526.7813 C540.0625,526.7813 538.7656,525.6875 538.7656,523.9844 L538.7656,522.8906 C538.7656,521.1094 540.0156,519.7969 541.75,519.7969 C542.3281,519.7969 542.9375,519.9531 543.4063,520.2031 C543.8906,520.4844 544.0625,520.7031 544.1563,521.1094 C544.2188,521.5156 544.25,521.6406 544.3906,521.7656 C544.5313,521.9063 544.7656,522.0156 544.9844,522.0156 C545.25,522.0156 545.5156,521.875 545.6875,521.6563 C545.7969,521.5 545.8281,521.3125 545.8281,520.8906 L545.8281,519.4688 C545.8281,519.0313 545.8125,518.9063 545.7188,518.75 C545.5625,518.4844 545.2813,518.3438 544.9844,518.3438 C544.6875,518.3438 544.4844,518.4375 544.2656,518.75 L544.0938,518.6719 Z " fill="#000000"/><text fill="#000000" font-family="sans-serif" font-size="14" lengthAdjust="spacing" textLength="94" x="562.25" y="527.8467">ReadTextFile</text><line style="stroke:#181818;stroke-width:0.5;" x1="472" x2="714" y1="539" y2="539"/><ellipse cx="482" cy="552.6484" fill="none" rx="3" ry="3" style="stroke:#038048;stroke-width:1.0;"/><text fill="#000000" font-family="sans-serif" font-size="14" lengthAdjust="spacing" textLength="76" x="491" y="555.9951">String ATT</text><line style="stroke:#181818;stroke-width:0.5;" x1="472" x2="714" y1="563.2969" y2="563.2969"/><ellipse cx="482" cy="576.9453" fill="#84BE84" rx="3" ry="3" style="stroke:#038048;stroke-width:1.0;"/><text fill="#000000" font-family="sans-serif" font-size="14" lengthAdjust="spacing" textLength="218" x="491" y="580.292">List&lt;String&gt; readHighScores()</text><ellipse cx="482" cy="593.2422" fill="#84BE84" rx="3" ry="3" style="stroke:#038048;stroke-width:1.0;"/><text fill="#000000" font-family="sans-serif" font-size="14" lengthAdjust="spacing" textLength="185" x="491" y="596.5889">char[][] readMap(int level)</text></g><!--MD5=[7ec0b8d68da8915e2e556e62bbabc591]
class WriteTextFile--><g id="elem_WriteTextFile"><rect codeLine="73" fill="#F1F1F1" height="64.2969" id="WriteTextFile" rx="2.5" ry="2.5" style="stroke:#181818;stroke-width:0.5;" width="275" x="750.5" y="523.5"/><ellipse cx="834.75" cy="539.5" fill="#ADD1B2" rx="11" ry="11" style="stroke:#181818;stroke-width:1.0;"/><path d="M837.0938,535.1719 C836.1563,534.7344 835.5625,534.5938 834.6875,534.5938 C832.0625,534.5938 830.0625,536.6719 830.0625,539.3906 L830.0625,540.5156 C830.0625,543.0938 832.1719,544.9844 835.0625,544.9844 C836.2813,544.9844 837.4375,544.6875 838.1875,544.1406 C838.7656,543.7344 839.0938,543.2813 839.0938,542.8906 C839.0938,542.4375 838.7031,542.0469 838.2344,542.0469 C838.0156,542.0469 837.8125,542.125 837.625,542.3125 C837.1719,542.7969 837.1719,542.7969 836.9844,542.8906 C836.5625,543.1563 835.875,543.2813 835.1094,543.2813 C833.0625,543.2813 831.7656,542.1875 831.7656,540.4844 L831.7656,539.3906 C831.7656,537.6094 833.0156,536.2969 834.75,536.2969 C835.3281,536.2969 835.9375,536.4531 836.4063,536.7031 C836.8906,536.9844 837.0625,537.2031 837.1563,537.6094 C837.2188,538.0156 837.25,538.1406 837.3906,538.2656 C837.5313,538.4063 837.7656,538.5156 837.9844,538.5156 C838.25,538.5156 838.5156,538.375 838.6875,538.1563 C838.7969,538 838.8281,537.8125 838.8281,537.3906 L838.8281,535.9688 C838.8281,535.5313 838.8125,535.4063 838.7188,535.25 C838.5625,534.9844 838.2813,534.8438 837.9844,534.8438 C837.6875,534.8438 837.4844,534.9375 837.2656,535.25 L837.0938,535.1719 Z " fill="#000000"/><text fill="#000000" font-family="sans-serif" font-size="14" lengthAdjust="spacing" textLength="98" x="855.25" y="544.3467">WriteTextFile</text><line style="stroke:#181818;stroke-width:0.5;" x1="751.5" x2="1024.5" y1="555.5" y2="555.5"/><line style="stroke:#181818;stroke-width:0.5;" x1="751.5" x2="1024.5" y1="563.5" y2="563.5"/><ellipse cx="761.5" cy="577.1484" fill="#84BE84" rx="3" ry="3" style="stroke:#038048;stroke-width:1.0;"/><text fill="#000000" font-family="sans-serif" font-size="14" lengthAdjust="spacing" textLength="249" x="770.5" y="580.4951">void writeHighScores(String name)</text></g><!--MD5=[e7404197ff79fd7cf7e0314e73c38c80]
link IUtilities to Utilities--><g id="link_IUtilities_Utilities"><path codeLine="77" d="M229,333.114 C229,352.711 229,372.916 229,392.78 " fill="none" id="IUtilities-Utilities" style="stroke:#181818;stroke-width:1.0;"/><path d="M236.0711,355.7758 A10,10 0 0 0 221.9289 355.7758" fill="none" style="stroke:#181818;stroke-width:1.5;"/><ellipse cx="229" cy="362.8469" fill="#FFFFFF" rx="6" ry="6" style="stroke:#181818;stroke-width:1.5;"/></g><!--MD5=[01295b246d588336fcf8410d7adfc513]
@startuml
package utilities {

  interface IUtilities {
    +void retrieveLogicView(ILogic logic, IView view)
    +String getElementsAssetsLocation(String assetName)
    +String getIcon()
    +String getLevelMapLocation(int levelNumber)
    +String getLevelMapFolder()
    +String getHighScoresFile()
    +String getTexturesLocation(String assetName)
    +String getAudioAssetsLocation(String assetName)
    +void playFileLoop(String fileName)
    +void playFile(String fileName)
    +void releaseAudioResorces()
    +Clip getClip(String fileName)
    +List<String> readHighScores()
    +char[][] readMap(int level)
    +void writeHighScores(String name)
  }
  
  class Utilities {
    +void retrieveLogicView(ILogic logic, IView view)
    +ILogic getLogic()
    +IView getView()
    +String getElementsAssetsLocation(String assetName)
    +String getIcon()
    +String getLevelMapLocation(int levelNumber)
    +String getLevelMapFolder()
    +String getHighScoresFile()
    +String getTexturesLocation(String assetName)
    +String getAudioAssetsLocation(String assetName)
    +void playFileLoop(String fileName)
    +void playFile(String fileName)
    +void releaseAudioResorces()
    +Clip getClip(String fileName)
    +List<String> readHighScores()
    +char[][] readMap(int level)
    +void writeHighScores(String name)
  }
  
  class AbsolutePath {
    +String THISFOLDER
    +String getAbsolutePath()
  }
  
  class Assets {
    +String assetPath
    +String getElementsAssetsLocation(String assetName)
    +String getIcon()
    +String getLevelMapLocation(int levelNumber)
    +String getHighScoresFile()
    +String getTexturesLocation(String assetName)
    +String getAudioAssetsLocation(String assetName)
  }
  
  class AudioPlayer {
    +String ERROR
    +String ATT
    +Clip clip
    +DataLine.Info info
    +void playFileLoop(String fileName)
    +void playFile(String fileName)
    +Clip getClip(String fileName)
    +void releaseAudioResources()
  }
  
  class ReadTextFile {
    +String ATT
    +List<String> readHighScores()
    +char[][] readMap(int level)
  }
  
  class WriteTextFile {
    +void writeHighScores(String name)
  }
  
  IUtilities -(0- Utilities
}
@enduml

PlantUML version 1.2022.13beta8(Unknown compile time)
(GPL source distribution)
Java Runtime: Java(TM) SE Runtime Environment
JVM: Java HotSpot(TM) 64-Bit Server VM
Default Encoding: UTF-8
Language: en
Country: US
--></g></svg>