<?xml version="1.0" encoding="UTF-8" standalone="no"?><svg xmlns="http://www.w3.org/2000/svg" xmlns:xlink="http://www.w3.org/1999/xlink" contentStyleType="text/css" height="693px" preserveAspectRatio="none" style="width:1348px;height:693px;background:#FFFFFF;" version="1.1" viewBox="0 0 1348 693" width="1348px" zoomAndPan="magnify"><defs/><g><!--MD5=[86cbce8df1eb9d604fbbb2fa357940f8]
cluster view--><g id="cluster_view"><path d="M8.5,6 L45.5,6 A3.75,3.75 0 0 1 48,8.5 L55,28.2969 L1338.5,28.2969 A2.5,2.5 0 0 1 1341,30.7969 L1341,683.5 A2.5,2.5 0 0 1 1338.5,686 L8.5,686 A2.5,2.5 0 0 1 6,683.5 L6,8.5 A2.5,2.5 0 0 1 8.5,6 " fill="none" style="stroke:#000000;stroke-width:1.5;"/><line style="stroke:#000000;stroke-width:1.5;" x1="6" x2="55" y1="28.2969" y2="28.2969"/><text fill="#000000" font-family="sans-serif" font-size="14" font-weight="bold" lengthAdjust="spacing" textLength="36" x="10" y="20.9951">view</text></g><!--MD5=[874877035222f5bcc888af269290427c]
class IView--><g id="elem_IView"><rect codeLine="2" fill="#F1F1F1" height="210.9688" id="IView" rx="2.5" ry="2.5" style="stroke:#181818;stroke-width:0.5;" width="347" x="22.5" y="65.5"/><ellipse cx="172.75" cy="81.5" fill="#B4A7E5" rx="11" ry="11" style="stroke:#181818;stroke-width:1.0;"/><path d="M173.7031,78.2813 L175.4219,78.2813 C175.8125,78.2813 176,78.25 176.125,78.1719 C176.3906,78.0156 176.5313,77.7344 176.5313,77.4375 C176.5313,77.1719 176.4219,76.9063 176.1875,76.7344 C176.0156,76.625 175.875,76.5938 175.4219,76.5938 L170.2813,76.5938 C169.8438,76.5938 169.7188,76.6094 169.5625,76.7031 C169.3125,76.8594 169.1563,77.1563 169.1563,77.4375 C169.1563,77.7188 169.2969,77.9688 169.5156,78.1406 C169.6719,78.25 169.8594,78.2813 170.2813,78.2813 L172,78.2813 L172,84.7969 L170.2813,84.7969 C169.8438,84.7969 169.7188,84.8125 169.5625,84.9219 C169.3125,85.0781 169.1563,85.3594 169.1563,85.6563 C169.1563,85.9063 169.2969,86.1719 169.5156,86.3281 C169.6719,86.4531 169.875,86.5 170.2813,86.5 L175.4219,86.5 C176.1719,86.5 176.5313,86.2188 176.5313,85.6563 C176.5313,85.375 176.4219,85.125 176.1875,84.9531 C176.0156,84.8281 175.875,84.7969 175.4219,84.7969 L173.7031,84.7969 L173.7031,78.2813 Z " fill="#000000"/><text fill="#000000" font-family="sans-serif" font-size="14" font-style="italic" lengthAdjust="spacing" textLength="38" x="193.25" y="86.3467">IView</text><line style="stroke:#181818;stroke-width:0.5;" x1="23.5" x2="368.5" y1="97.5" y2="97.5"/><line style="stroke:#181818;stroke-width:0.5;" x1="23.5" x2="368.5" y1="105.5" y2="105.5"/><ellipse cx="33.5" cy="119.1484" fill="#84BE84" rx="3" ry="3" style="stroke:#038048;stroke-width:1.0;"/><text fill="#000000" font-family="sans-serif" font-size="14" lengthAdjust="spacing" textLength="225" x="42.5" y="122.4951">void retrieveLogic(ILogic logic);</text><ellipse cx="33.5" cy="135.4453" fill="#84BE84" rx="3" ry="3" style="stroke:#038048;stroke-width:1.0;"/><text fill="#000000" font-family="sans-serif" font-size="14" lengthAdjust="spacing" textLength="186" x="42.5" y="138.792">void createAndShowGUI();</text><ellipse cx="33.5" cy="151.7422" fill="#84BE84" rx="3" ry="3" style="stroke:#038048;stroke-width:1.0;"/><text fill="#000000" font-family="sans-serif" font-size="14" lengthAdjust="spacing" textLength="126" x="42.5" y="155.0889">void startTimer();</text><ellipse cx="33.5" cy="168.0391" fill="#84BE84" rx="3" ry="3" style="stroke:#038048;stroke-width:1.0;"/><text fill="#000000" font-family="sans-serif" font-size="14" lengthAdjust="spacing" textLength="124" x="42.5" y="171.3857">void stopTimer();</text><ellipse cx="33.5" cy="184.3359" fill="#84BE84" rx="3" ry="3" style="stroke:#038048;stroke-width:1.0;"/><text fill="#000000" font-family="sans-serif" font-size="14" lengthAdjust="spacing" textLength="129" x="42.5" y="187.6826">void resetTimer();</text><ellipse cx="33.5" cy="200.6328" fill="#84BE84" rx="3" ry="3" style="stroke:#038048;stroke-width:1.0;"/><text fill="#000000" font-family="sans-serif" font-size="14" lengthAdjust="spacing" textLength="321" x="42.5" y="203.9795">void generateMapImage(char[][] mapMatrix);</text><ellipse cx="33.5" cy="216.9297" fill="#84BE84" rx="3" ry="3" style="stroke:#038048;stroke-width:1.0;"/><text fill="#000000" font-family="sans-serif" font-size="14" lengthAdjust="spacing" textLength="114" x="42.5" y="220.2764">void clearMap();</text><ellipse cx="33.5" cy="233.2266" fill="#84BE84" rx="3" ry="3" style="stroke:#038048;stroke-width:1.0;"/><text fill="#000000" font-family="sans-serif" font-size="14" lengthAdjust="spacing" textLength="225" x="42.5" y="236.5732">BufferedImage getMapImage();</text><ellipse cx="33.5" cy="249.5234" fill="#84BE84" rx="3" ry="3" style="stroke:#038048;stroke-width:1.0;"/><text fill="#000000" font-family="sans-serif" font-size="14" lengthAdjust="spacing" textLength="100" x="42.5" y="252.8701">void saveHS();</text><ellipse cx="33.5" cy="265.8203" fill="#84BE84" rx="3" ry="3" style="stroke:#038048;stroke-width:1.0;"/><text fill="#000000" font-family="sans-serif" font-size="14" lengthAdjust="spacing" textLength="112" x="42.5" y="269.167">void winPanel();</text></g><!--MD5=[c045e12321b83266d36d22b9096c24ea]
class View--><g id="elem_View"><rect codeLine="15" fill="#F1F1F1" height="210.9688" id="View" rx="2.5" ry="2.5" style="stroke:#181818;stroke-width:0.5;" width="347" x="22.5" y="410"/><ellipse cx="174.75" cy="426" fill="#ADD1B2" rx="11" ry="11" style="stroke:#181818;stroke-width:1.0;"/><path d="M177.0938,421.6719 C176.1563,421.2344 175.5625,421.0938 174.6875,421.0938 C172.0625,421.0938 170.0625,423.1719 170.0625,425.8906 L170.0625,427.0156 C170.0625,429.5938 172.1719,431.4844 175.0625,431.4844 C176.2813,431.4844 177.4375,431.1875 178.1875,430.6406 C178.7656,430.2344 179.0938,429.7813 179.0938,429.3906 C179.0938,428.9375 178.7031,428.5469 178.2344,428.5469 C178.0156,428.5469 177.8125,428.625 177.625,428.8125 C177.1719,429.2969 177.1719,429.2969 176.9844,429.3906 C176.5625,429.6563 175.875,429.7813 175.1094,429.7813 C173.0625,429.7813 171.7656,428.6875 171.7656,426.9844 L171.7656,425.8906 C171.7656,424.1094 173.0156,422.7969 174.75,422.7969 C175.3281,422.7969 175.9375,422.9531 176.4063,423.2031 C176.8906,423.4844 177.0625,423.7031 177.1563,424.1094 C177.2188,424.5156 177.25,424.6406 177.3906,424.7656 C177.5313,424.9063 177.7656,425.0156 177.9844,425.0156 C178.25,425.0156 178.5156,424.875 178.6875,424.6563 C178.7969,424.5 178.8281,424.3125 178.8281,423.8906 L178.8281,422.4688 C178.8281,422.0313 178.8125,421.9063 178.7188,421.75 C178.5625,421.4844 178.2813,421.3438 177.9844,421.3438 C177.6875,421.3438 177.4844,421.4375 177.2656,421.75 L177.0938,421.6719 Z " fill="#000000"/><text fill="#000000" font-family="sans-serif" font-size="14" lengthAdjust="spacing" textLength="34" x="195.25" y="430.8467">View</text><line style="stroke:#181818;stroke-width:0.5;" x1="23.5" x2="368.5" y1="442" y2="442"/><line style="stroke:#181818;stroke-width:0.5;" x1="23.5" x2="368.5" y1="450" y2="450"/><ellipse cx="33.5" cy="463.6484" fill="#84BE84" rx="3" ry="3" style="stroke:#038048;stroke-width:1.0;"/><text fill="#000000" font-family="sans-serif" font-size="14" lengthAdjust="spacing" textLength="225" x="42.5" y="466.9951">void retrieveLogic(ILogic logic);</text><ellipse cx="33.5" cy="479.9453" fill="#84BE84" rx="3" ry="3" style="stroke:#038048;stroke-width:1.0;"/><text fill="#000000" font-family="sans-serif" font-size="14" lengthAdjust="spacing" textLength="186" x="42.5" y="483.292">void createAndShowGUI();</text><ellipse cx="33.5" cy="496.2422" fill="#84BE84" rx="3" ry="3" style="stroke:#038048;stroke-width:1.0;"/><text fill="#000000" font-family="sans-serif" font-size="14" lengthAdjust="spacing" textLength="126" x="42.5" y="499.5889">void startTimer();</text><ellipse cx="33.5" cy="512.5391" fill="#84BE84" rx="3" ry="3" style="stroke:#038048;stroke-width:1.0;"/><text fill="#000000" font-family="sans-serif" font-size="14" lengthAdjust="spacing" textLength="124" x="42.5" y="515.8857">void stopTimer();</text><ellipse cx="33.5" cy="528.8359" fill="#84BE84" rx="3" ry="3" style="stroke:#038048;stroke-width:1.0;"/><text fill="#000000" font-family="sans-serif" font-size="14" lengthAdjust="spacing" textLength="129" x="42.5" y="532.1826">void resetTimer();</text><ellipse cx="33.5" cy="545.1328" fill="#84BE84" rx="3" ry="3" style="stroke:#038048;stroke-width:1.0;"/><text fill="#000000" font-family="sans-serif" font-size="14" lengthAdjust="spacing" textLength="321" x="42.5" y="548.4795">void generateMapImage(char[][] mapMatrix);</text><ellipse cx="33.5" cy="561.4297" fill="#84BE84" rx="3" ry="3" style="stroke:#038048;stroke-width:1.0;"/><text fill="#000000" font-family="sans-serif" font-size="14" lengthAdjust="spacing" textLength="114" x="42.5" y="564.7764">void clearMap();</text><ellipse cx="33.5" cy="577.7266" fill="#84BE84" rx="3" ry="3" style="stroke:#038048;stroke-width:1.0;"/><text fill="#000000" font-family="sans-serif" font-size="14" lengthAdjust="spacing" textLength="225" x="42.5" y="581.0732">BufferedImage getMapImage();</text><ellipse cx="33.5" cy="594.0234" fill="#84BE84" rx="3" ry="3" style="stroke:#038048;stroke-width:1.0;"/><text fill="#000000" font-family="sans-serif" font-size="14" lengthAdjust="spacing" textLength="100" x="42.5" y="597.3701">void saveHS();</text><ellipse cx="33.5" cy="610.3203" fill="#84BE84" rx="3" ry="3" style="stroke:#038048;stroke-width:1.0;"/><text fill="#000000" font-family="sans-serif" font-size="14" lengthAdjust="spacing" textLength="112" x="42.5" y="613.667">void winPanel();</text></g><!--MD5=[c5fcb541aa6533668a14cc3743bb76b5]
class GameGUI--><g id="elem_GameGUI"><rect codeLine="28" fill="#F1F1F1" height="227.2656" id="GameGUI" rx="2.5" ry="2.5" style="stroke:#181818;stroke-width:0.5;" width="294" x="405" y="57.5"/><ellipse cx="514.75" cy="73.5" fill="#ADD1B2" rx="11" ry="11" style="stroke:#181818;stroke-width:1.0;"/><path d="M517.0938,69.1719 C516.1563,68.7344 515.5625,68.5938 514.6875,68.5938 C512.0625,68.5938 510.0625,70.6719 510.0625,73.3906 L510.0625,74.5156 C510.0625,77.0938 512.1719,78.9844 515.0625,78.9844 C516.2813,78.9844 517.4375,78.6875 518.1875,78.1406 C518.7656,77.7344 519.0938,77.2813 519.0938,76.8906 C519.0938,76.4375 518.7031,76.0469 518.2344,76.0469 C518.0156,76.0469 517.8125,76.125 517.625,76.3125 C517.1719,76.7969 517.1719,76.7969 516.9844,76.8906 C516.5625,77.1563 515.875,77.2813 515.1094,77.2813 C513.0625,77.2813 511.7656,76.1875 511.7656,74.4844 L511.7656,73.3906 C511.7656,71.6094 513.0156,70.2969 514.75,70.2969 C515.3281,70.2969 515.9375,70.4531 516.4063,70.7031 C516.8906,70.9844 517.0625,71.2031 517.1563,71.6094 C517.2188,72.0156 517.25,72.1406 517.3906,72.2656 C517.5313,72.4063 517.7656,72.5156 517.9844,72.5156 C518.25,72.5156 518.5156,72.375 518.6875,72.1563 C518.7969,72 518.8281,71.8125 518.8281,71.3906 L518.8281,69.9688 C518.8281,69.5313 518.8125,69.4063 518.7188,69.25 C518.5625,68.9844 518.2813,68.8438 517.9844,68.8438 C517.6875,68.8438 517.4844,68.9375 517.2656,69.25 L517.0938,69.1719 Z " fill="#000000"/><text fill="#000000" font-family="sans-serif" font-size="14" lengthAdjust="spacing" textLength="66" x="535.25" y="78.3467">GameGUI</text><line style="stroke:#181818;stroke-width:0.5;" x1="406" x2="698" y1="89.5" y2="89.5"/><ellipse cx="416" cy="103.1484" fill="none" rx="3" ry="3" style="stroke:#038048;stroke-width:1.0;"/><text fill="#000000" font-family="sans-serif" font-size="14" lengthAdjust="spacing" textLength="155" x="425" y="106.4951">Image BLUETRUCKUP;</text><ellipse cx="416" cy="119.4453" fill="none" rx="3" ry="3" style="stroke:#038048;stroke-width:1.0;"/><text fill="#000000" font-family="sans-serif" font-size="14" lengthAdjust="spacing" textLength="164" x="425" y="122.792">OtherConstantImages;</text><ellipse cx="416" cy="135.7422" fill="none" rx="3" ry="3" style="stroke:#038048;stroke-width:1.0;"/><text fill="#000000" font-family="sans-serif" font-size="14" lengthAdjust="spacing" textLength="183" x="425" y="139.0889">Image BLUETRUCKDOWN;</text><ellipse cx="416" cy="152.0391" fill="none" rx="3" ry="3" style="stroke:#038048;stroke-width:1.0;"/><text fill="#000000" font-family="sans-serif" font-size="14" lengthAdjust="spacing" textLength="164" x="425" y="155.3857">OtherConstantImages;</text><ellipse cx="416" cy="168.3359" fill="none" rx="3" ry="3" style="stroke:#038048;stroke-width:1.0;"/><text fill="#000000" font-family="sans-serif" font-size="14" lengthAdjust="spacing" textLength="215" x="425" y="171.6826">int[] MIDVEHICLEDIMENSIONS;</text><ellipse cx="416" cy="184.6328" fill="none" rx="3" ry="3" style="stroke:#038048;stroke-width:1.0;"/><text fill="#000000" font-family="sans-serif" font-size="14" lengthAdjust="spacing" textLength="158" x="425" y="187.9795">OtherConstantArrays;</text><ellipse cx="416" cy="200.9297" fill="none" rx="3" ry="3" style="stroke:#038048;stroke-width:1.0;"/><text fill="#000000" font-family="sans-serif" font-size="14" lengthAdjust="spacing" textLength="184" x="425" y="204.2764">Image FOXSTAYTEXTURE;</text><ellipse cx="416" cy="217.2266" fill="none" rx="3" ry="3" style="stroke:#038048;stroke-width:1.0;"/><text fill="#000000" font-family="sans-serif" font-size="14" lengthAdjust="spacing" textLength="171" x="425" y="220.5732">OtherConstantsImages;</text><line style="stroke:#181818;stroke-width:0.5;" x1="406" x2="698" y1="227.875" y2="227.875"/><ellipse cx="416" cy="241.5234" fill="#84BE84" rx="3" ry="3" style="stroke:#038048;stroke-width:1.0;"/><text fill="#000000" font-family="sans-serif" font-size="14" lengthAdjust="spacing" textLength="249" x="425" y="244.8701">void paintComponent(Graphics g);</text><ellipse cx="416" cy="257.8203" fill="#84BE84" rx="3" ry="3" style="stroke:#038048;stroke-width:1.0;"/><text fill="#000000" font-family="sans-serif" font-size="14" lengthAdjust="spacing" textLength="126" x="425" y="261.167">void triggerWin();</text><ellipse cx="416" cy="274.1172" fill="#84BE84" rx="3" ry="3" style="stroke:#038048;stroke-width:1.0;"/><text fill="#000000" font-family="sans-serif" font-size="14" lengthAdjust="spacing" textLength="268" x="425" y="277.4639">void actionPerformed(ActionEvent e)</text></g><!--MD5=[e38b17d196f165252812d500b61d38fc]
class GeneralGUI--><g id="elem_GeneralGUI"><rect codeLine="42" fill="#F1F1F1" height="162.0781" id="GeneralGUI" rx="2.5" ry="2.5" style="stroke:#181818;stroke-width:0.5;" width="248" x="734" y="90"/><ellipse cx="813.75" cy="106" fill="#ADD1B2" rx="11" ry="11" style="stroke:#181818;stroke-width:1.0;"/><path d="M816.0938,101.6719 C815.1563,101.2344 814.5625,101.0938 813.6875,101.0938 C811.0625,101.0938 809.0625,103.1719 809.0625,105.8906 L809.0625,107.0156 C809.0625,109.5938 811.1719,111.4844 814.0625,111.4844 C815.2813,111.4844 816.4375,111.1875 817.1875,110.6406 C817.7656,110.2344 818.0938,109.7813 818.0938,109.3906 C818.0938,108.9375 817.7031,108.5469 817.2344,108.5469 C817.0156,108.5469 816.8125,108.625 816.625,108.8125 C816.1719,109.2969 816.1719,109.2969 815.9844,109.3906 C815.5625,109.6563 814.875,109.7813 814.1094,109.7813 C812.0625,109.7813 810.7656,108.6875 810.7656,106.9844 L810.7656,105.8906 C810.7656,104.1094 812.0156,102.7969 813.75,102.7969 C814.3281,102.7969 814.9375,102.9531 815.4063,103.2031 C815.8906,103.4844 816.0625,103.7031 816.1563,104.1094 C816.2188,104.5156 816.25,104.6406 816.3906,104.7656 C816.5313,104.9063 816.7656,105.0156 816.9844,105.0156 C817.25,105.0156 817.5156,104.875 817.6875,104.6563 C817.7969,104.5 817.8281,104.3125 817.8281,103.8906 L817.8281,102.4688 C817.8281,102.0313 817.8125,101.9063 817.7188,101.75 C817.5625,101.4844 817.2813,101.3438 816.9844,101.3438 C816.6875,101.3438 816.4844,101.4375 816.2656,101.75 L816.0938,101.6719 Z " fill="#000000"/><text fill="#000000" font-family="sans-serif" font-size="14" lengthAdjust="spacing" textLength="80" x="834.25" y="110.8467">GeneralGUI</text><line style="stroke:#181818;stroke-width:0.5;" x1="735" x2="981" y1="122" y2="122"/><ellipse cx="745" cy="135.6484" fill="none" rx="3" ry="3" style="stroke:#038048;stroke-width:1.0;"/><text fill="#000000" font-family="sans-serif" font-size="14" lengthAdjust="spacing" textLength="130" x="754" y="138.9951">int JFRAMEWIDTH;</text><ellipse cx="745" cy="151.9453" fill="none" rx="3" ry="3" style="stroke:#038048;stroke-width:1.0;"/><text fill="#000000" font-family="sans-serif" font-size="14" lengthAdjust="spacing" textLength="135" x="754" y="155.292">int JFRAMEHEIGHT;</text><ellipse cx="745" cy="168.2422" fill="none" rx="3" ry="3" style="stroke:#038048;stroke-width:1.0;"/><text fill="#000000" font-family="sans-serif" font-size="14" lengthAdjust="spacing" textLength="201" x="754" y="171.5889">HighScoreGUI scoreWindow;</text><line style="stroke:#181818;stroke-width:0.5;" x1="735" x2="981" y1="178.8906" y2="178.8906"/><ellipse cx="745" cy="192.5391" fill="#84BE84" rx="3" ry="3" style="stroke:#038048;stroke-width:1.0;"/><text fill="#000000" font-family="sans-serif" font-size="14" lengthAdjust="spacing" textLength="184" x="754" y="195.8857">HighScoreGUI getHSGUI();</text><ellipse cx="745" cy="208.8359" fill="#84BE84" rx="3" ry="3" style="stroke:#038048;stroke-width:1.0;"/><text fill="#000000" font-family="sans-serif" font-size="14" lengthAdjust="spacing" textLength="202" x="754" y="212.1826">void keyTyped(KeyEvent e);</text><ellipse cx="745" cy="225.1328" fill="#84BE84" rx="3" ry="3" style="stroke:#038048;stroke-width:1.0;"/><text fill="#000000" font-family="sans-serif" font-size="14" lengthAdjust="spacing" textLength="213" x="754" y="228.4795">void keyPressed(KeyEvent e);</text><ellipse cx="745" cy="241.4297" fill="#84BE84" rx="3" ry="3" style="stroke:#038048;stroke-width:1.0;"/><text fill="#000000" font-family="sans-serif" font-size="14" lengthAdjust="spacing" textLength="222" x="754" y="244.7764">void keyReleased(KeyEvent e);</text></g><!--MD5=[7ebaccd3afbe177df898a33f21406b1c]
class HighScoreGUI--><g id="elem_HighScoreGUI"><rect codeLine="52" fill="#F1F1F1" height="259.8594" id="HighScoreGUI" rx="2.5" ry="2.5" style="stroke:#181818;stroke-width:0.5;" width="307" x="1017.5" y="41"/><ellipse cx="1118.25" cy="57" fill="#ADD1B2" rx="11" ry="11" style="stroke:#181818;stroke-width:1.0;"/><path d="M1120.5938,52.6719 C1119.6563,52.2344 1119.0625,52.0938 1118.1875,52.0938 C1115.5625,52.0938 1113.5625,54.1719 1113.5625,56.8906 L1113.5625,58.0156 C1113.5625,60.5938 1115.6719,62.4844 1118.5625,62.4844 C1119.7813,62.4844 1120.9375,62.1875 1121.6875,61.6406 C1122.2656,61.2344 1122.5938,60.7813 1122.5938,60.3906 C1122.5938,59.9375 1122.2031,59.5469 1121.7344,59.5469 C1121.5156,59.5469 1121.3125,59.625 1121.125,59.8125 C1120.6719,60.2969 1120.6719,60.2969 1120.4844,60.3906 C1120.0625,60.6563 1119.375,60.7813 1118.6094,60.7813 C1116.5625,60.7813 1115.2656,59.6875 1115.2656,57.9844 L1115.2656,56.8906 C1115.2656,55.1094 1116.5156,53.7969 1118.25,53.7969 C1118.8281,53.7969 1119.4375,53.9531 1119.9063,54.2031 C1120.3906,54.4844 1120.5625,54.7031 1120.6563,55.1094 C1120.7188,55.5156 1120.75,55.6406 1120.8906,55.7656 C1121.0313,55.9063 1121.2656,56.0156 1121.4844,56.0156 C1121.75,56.0156 1122.0156,55.875 1122.1875,55.6563 C1122.2969,55.5 1122.3281,55.3125 1122.3281,54.8906 L1122.3281,53.4688 C1122.3281,53.0313 1122.3125,52.9063 1122.2188,52.75 C1122.0625,52.4844 1121.7813,52.3438 1121.4844,52.3438 C1121.1875,52.3438 1120.9844,52.4375 1120.7656,52.75 L1120.5938,52.6719 Z " fill="#000000"/><text fill="#000000" font-family="sans-serif" font-size="14" lengthAdjust="spacing" textLength="97" x="1138.75" y="61.8467">HighScoreGUI</text><line style="stroke:#181818;stroke-width:0.5;" x1="1018.5" x2="1323.5" y1="73" y2="73"/><ellipse cx="1028.5" cy="86.6484" fill="none" rx="3" ry="3" style="stroke:#038048;stroke-width:1.0;"/><text fill="#000000" font-family="sans-serif" font-size="14" lengthAdjust="spacing" textLength="80" x="1037.5" y="89.9951">Font FONT;</text><ellipse cx="1028.5" cy="102.9453" fill="none" rx="3" ry="3" style="stroke:#038048;stroke-width:1.0;"/><text fill="#000000" font-family="sans-serif" font-size="14" lengthAdjust="spacing" textLength="83" x="1037.5" y="106.292">JLabel text;</text><ellipse cx="1028.5" cy="119.2422" fill="none" rx="3" ry="3" style="stroke:#038048;stroke-width:1.0;"/><text fill="#000000" font-family="sans-serif" font-size="14" lengthAdjust="spacing" textLength="138" x="1037.5" y="122.5889">JButton buttonYes;</text><ellipse cx="1028.5" cy="135.5391" fill="none" rx="3" ry="3" style="stroke:#038048;stroke-width:1.0;"/><text fill="#000000" font-family="sans-serif" font-size="14" lengthAdjust="spacing" textLength="132" x="1037.5" y="138.8857">JButton buttonNo;</text><ellipse cx="1028.5" cy="151.8359" fill="none" rx="3" ry="3" style="stroke:#038048;stroke-width:1.0;"/><text fill="#000000" font-family="sans-serif" font-size="14" lengthAdjust="spacing" textLength="152" x="1037.5" y="155.1826">JTextArea nameArea;</text><line style="stroke:#181818;stroke-width:0.5;" x1="1018.5" x2="1323.5" y1="162.4844" y2="162.4844"/><ellipse cx="1028.5" cy="176.1328" fill="#84BE84" rx="3" ry="3" style="stroke:#038048;stroke-width:1.0;"/><text fill="#000000" font-family="sans-serif" font-size="14" lengthAdjust="spacing" textLength="109" x="1037.5" y="179.4795">void setStyle();</text><ellipse cx="1028.5" cy="192.4297" fill="#84BE84" rx="3" ry="3" style="stroke:#038048;stroke-width:1.0;"/><text fill="#000000" font-family="sans-serif" font-size="14" lengthAdjust="spacing" textLength="161" x="1037.5" y="195.7764">void saveHighScores();</text><ellipse cx="1028.5" cy="208.7266" fill="#84BE84" rx="3" ry="3" style="stroke:#038048;stroke-width:1.0;"/><text fill="#000000" font-family="sans-serif" font-size="14" lengthAdjust="spacing" textLength="186" x="1037.5" y="212.0732">void loadSaveHighScore();</text><ellipse cx="1028.5" cy="225.0234" fill="#84BE84" rx="3" ry="3" style="stroke:#038048;stroke-width:1.0;"/><text fill="#000000" font-family="sans-serif" font-size="14" lengthAdjust="spacing" textLength="143" x="1037.5" y="228.3701">void loadUserBest();</text><ellipse cx="1028.5" cy="241.3203" fill="#84BE84" rx="3" ry="3" style="stroke:#038048;stroke-width:1.0;"/><text fill="#000000" font-family="sans-serif" font-size="14" lengthAdjust="spacing" textLength="112" x="1037.5" y="244.667">void loadBest();</text><ellipse cx="1028.5" cy="257.6172" fill="#84BE84" rx="3" ry="3" style="stroke:#038048;stroke-width:1.0;"/><text fill="#000000" font-family="sans-serif" font-size="14" lengthAdjust="spacing" textLength="202" x="1037.5" y="260.9639">void saveBest(String name);</text><ellipse cx="1028.5" cy="273.9141" fill="#84BE84" rx="3" ry="3" style="stroke:#038048;stroke-width:1.0;"/><text fill="#000000" font-family="sans-serif" font-size="14" lengthAdjust="spacing" textLength="138" x="1037.5" y="277.2607">void setExitMenu();</text><ellipse cx="1028.5" cy="290.2109" fill="#84BE84" rx="3" ry="3" style="stroke:#038048;stroke-width:1.0;"/><text fill="#000000" font-family="sans-serif" font-size="14" lengthAdjust="spacing" textLength="281" x="1037.5" y="293.5576">void actionPerformed(ActionEvent ae);</text></g><!--MD5=[921e977f1705bf10a2a72382eb00841d]
class MapGraphics--><g id="elem_MapGraphics"><rect codeLine="68" fill="#F1F1F1" height="113.1875" id="MapGraphics" rx="2.5" ry="2.5" style="stroke:#181818;stroke-width:0.5;" width="347" x="404.5" y="459"/><ellipse cx="527.25" cy="475" fill="#ADD1B2" rx="11" ry="11" style="stroke:#181818;stroke-width:1.0;"/><path d="M529.5938,470.6719 C528.6563,470.2344 528.0625,470.0938 527.1875,470.0938 C524.5625,470.0938 522.5625,472.1719 522.5625,474.8906 L522.5625,476.0156 C522.5625,478.5938 524.6719,480.4844 527.5625,480.4844 C528.7813,480.4844 529.9375,480.1875 530.6875,479.6406 C531.2656,479.2344 531.5938,478.7813 531.5938,478.3906 C531.5938,477.9375 531.2031,477.5469 530.7344,477.5469 C530.5156,477.5469 530.3125,477.625 530.125,477.8125 C529.6719,478.2969 529.6719,478.2969 529.4844,478.3906 C529.0625,478.6563 528.375,478.7813 527.6094,478.7813 C525.5625,478.7813 524.2656,477.6875 524.2656,475.9844 L524.2656,474.8906 C524.2656,473.1094 525.5156,471.7969 527.25,471.7969 C527.8281,471.7969 528.4375,471.9531 528.9063,472.2031 C529.3906,472.4844 529.5625,472.7031 529.6563,473.1094 C529.7188,473.5156 529.75,473.6406 529.8906,473.7656 C530.0313,473.9063 530.2656,474.0156 530.4844,474.0156 C530.75,474.0156 531.0156,473.875 531.1875,473.6563 C531.2969,473.5 531.3281,473.3125 531.3281,472.8906 L531.3281,471.4688 C531.3281,471.0313 531.3125,470.9063 531.2188,470.75 C531.0625,470.4844 530.7813,470.3438 530.4844,470.3438 C530.1875,470.3438 529.9844,470.4375 529.7656,470.75 L529.5938,470.6719 Z " fill="#000000"/><text fill="#000000" font-family="sans-serif" font-size="14" lengthAdjust="spacing" textLength="93" x="547.75" y="479.8467">MapGraphics</text><line style="stroke:#181818;stroke-width:0.5;" x1="405.5" x2="750.5" y1="491" y2="491"/><ellipse cx="415.5" cy="504.6484" fill="none" rx="3" ry="3" style="stroke:#038048;stroke-width:1.0;"/><text fill="#000000" font-family="sans-serif" font-size="14" lengthAdjust="spacing" textLength="255" x="424.5" y="507.9951">BufferedImage mapBufferedImage;</text><line style="stroke:#181818;stroke-width:0.5;" x1="405.5" x2="750.5" y1="515.2969" y2="515.2969"/><ellipse cx="415.5" cy="528.9453" fill="#84BE84" rx="3" ry="3" style="stroke:#038048;stroke-width:1.0;"/><text fill="#000000" font-family="sans-serif" font-size="14" lengthAdjust="spacing" textLength="321" x="424.5" y="532.292">void generateMapImage(char[][] mapMatrix);</text><ellipse cx="415.5" cy="545.2422" fill="#84BE84" rx="3" ry="3" style="stroke:#038048;stroke-width:1.0;"/><text fill="#000000" font-family="sans-serif" font-size="14" lengthAdjust="spacing" textLength="225" x="424.5" y="548.5889">BufferedImage getMapImage();</text><ellipse cx="415.5" cy="561.5391" fill="#84BE84" rx="3" ry="3" style="stroke:#038048;stroke-width:1.0;"/><text fill="#000000" font-family="sans-serif" font-size="14" lengthAdjust="spacing" textLength="158" x="424.5" y="564.8857">void clearMapImage();</text></g><!--MD5=[60c954521a55b8f4de8658faab37847f]
class StatGUI--><g id="elem_StatGUI"><rect codeLine="75" fill="#F1F1F1" height="308.75" id="StatGUI" rx="2.5" ry="2.5" style="stroke:#181818;stroke-width:0.5;" width="168" x="787" y="361"/><ellipse cx="839.25" cy="377" fill="#ADD1B2" rx="11" ry="11" style="stroke:#181818;stroke-width:1.0;"/><path d="M841.5938,372.6719 C840.6563,372.2344 840.0625,372.0938 839.1875,372.0938 C836.5625,372.0938 834.5625,374.1719 834.5625,376.8906 L834.5625,378.0156 C834.5625,380.5938 836.6719,382.4844 839.5625,382.4844 C840.7813,382.4844 841.9375,382.1875 842.6875,381.6406 C843.2656,381.2344 843.5938,380.7813 843.5938,380.3906 C843.5938,379.9375 843.2031,379.5469 842.7344,379.5469 C842.5156,379.5469 842.3125,379.625 842.125,379.8125 C841.6719,380.2969 841.6719,380.2969 841.4844,380.3906 C841.0625,380.6563 840.375,380.7813 839.6094,380.7813 C837.5625,380.7813 836.2656,379.6875 836.2656,377.9844 L836.2656,376.8906 C836.2656,375.1094 837.5156,373.7969 839.25,373.7969 C839.8281,373.7969 840.4375,373.9531 840.9063,374.2031 C841.3906,374.4844 841.5625,374.7031 841.6563,375.1094 C841.7188,375.5156 841.75,375.6406 841.8906,375.7656 C842.0313,375.9063 842.2656,376.0156 842.4844,376.0156 C842.75,376.0156 843.0156,375.875 843.1875,375.6563 C843.2969,375.5 843.3281,375.3125 843.3281,374.8906 L843.3281,373.4688 C843.3281,373.0313 843.3125,372.9063 843.2188,372.75 C843.0625,372.4844 842.7813,372.3438 842.4844,372.3438 C842.1875,372.3438 841.9844,372.4375 841.7656,372.75 L841.5938,372.6719 Z " fill="#000000"/><text fill="#000000" font-family="sans-serif" font-size="14" lengthAdjust="spacing" textLength="55" x="859.75" y="381.8467">StatGUI</text><line style="stroke:#181818;stroke-width:0.5;" x1="788" x2="954" y1="393" y2="393"/><ellipse cx="798" cy="406.6484" fill="none" rx="3" ry="3" style="stroke:#038048;stroke-width:1.0;"/><text fill="#000000" font-family="sans-serif" font-size="14" lengthAdjust="spacing" textLength="80" x="807" y="409.9951">Font FONT;</text><ellipse cx="798" cy="422.9453" fill="none" rx="3" ry="3" style="stroke:#038048;stroke-width:1.0;"/><text fill="#000000" font-family="sans-serif" font-size="14" lengthAdjust="spacing" textLength="106" x="807" y="426.292">JLabel lvlStats;</text><ellipse cx="798" cy="439.2422" fill="none" rx="3" ry="3" style="stroke:#038048;stroke-width:1.0;"/><text fill="#000000" font-family="sans-serif" font-size="14" lengthAdjust="spacing" textLength="112" x="807" y="442.5889">JLabel storicHS;</text><ellipse cx="798" cy="455.5391" fill="none" rx="3" ry="3" style="stroke:#038048;stroke-width:1.0;"/><text fill="#000000" font-family="sans-serif" font-size="14" lengthAdjust="spacing" textLength="128" x="807" y="458.8857">JLabel presentHS;</text><ellipse cx="798" cy="471.8359" fill="none" rx="3" ry="3" style="stroke:#038048;stroke-width:1.0;"/><text fill="#000000" font-family="sans-serif" font-size="14" lengthAdjust="spacing" textLength="71" x="807" y="475.1826">JLabel hp;</text><ellipse cx="798" cy="488.1328" fill="none" rx="3" ry="3" style="stroke:#038048;stroke-width:1.0;"/><text fill="#000000" font-family="sans-serif" font-size="14" lengthAdjust="spacing" textLength="89" x="807" y="491.4795">JLabel coins;</text><ellipse cx="798" cy="504.4297" fill="none" rx="3" ry="3" style="stroke:#038048;stroke-width:1.0;"/><text fill="#000000" font-family="sans-serif" font-size="14" lengthAdjust="spacing" textLength="98" x="807" y="507.7764">JLabel points;</text><ellipse cx="798" cy="520.7266" fill="none" rx="3" ry="3" style="stroke:#038048;stroke-width:1.0;"/><text fill="#000000" font-family="sans-serif" font-size="14" lengthAdjust="spacing" textLength="123" x="807" y="524.0732">JButton startBut;</text><ellipse cx="798" cy="537.0234" fill="none" rx="3" ry="3" style="stroke:#038048;stroke-width:1.0;"/><text fill="#000000" font-family="sans-serif" font-size="14" lengthAdjust="spacing" textLength="139" x="807" y="540.3701">int timeRemaining;</text><ellipse cx="798" cy="553.3203" fill="none" rx="3" ry="3" style="stroke:#038048;stroke-width:1.0;"/><text fill="#000000" font-family="sans-serif" font-size="14" lengthAdjust="spacing" textLength="127" x="807" y="556.667">Timer levelTimer;</text><line style="stroke:#181818;stroke-width:0.5;" x1="788" x2="954" y1="563.9688" y2="563.9688"/><ellipse cx="798" cy="577.6172" fill="#84BE84" rx="3" ry="3" style="stroke:#038048;stroke-width:1.0;"/><text fill="#000000" font-family="sans-serif" font-size="14" lengthAdjust="spacing" textLength="118" x="807" y="580.9639">void setLabels();</text><ellipse cx="798" cy="593.9141" fill="#84BE84" rx="3" ry="3" style="stroke:#038048;stroke-width:1.0;"/><text fill="#000000" font-family="sans-serif" font-size="14" lengthAdjust="spacing" textLength="122" x="807" y="597.2607">void setButton();</text><ellipse cx="798" cy="610.2109" fill="#84BE84" rx="3" ry="3" style="stroke:#038048;stroke-width:1.0;"/><text fill="#000000" font-family="sans-serif" font-size="14" lengthAdjust="spacing" textLength="126" x="807" y="613.5576">void startTimer();</text><ellipse cx="798" cy="626.5078" fill="#84BE84" rx="3" ry="3" style="stroke:#038048;stroke-width:1.0;"/><text fill="#000000" font-family="sans-serif" font-size="14" lengthAdjust="spacing" textLength="124" x="807" y="629.8545">void stopTimer();</text><ellipse cx="798" cy="642.8047" fill="#84BE84" rx="3" ry="3" style="stroke:#038048;stroke-width:1.0;"/><text fill="#000000" font-family="sans-serif" font-size="14" lengthAdjust="spacing" textLength="129" x="807" y="646.1514">void resetTimer();</text><ellipse cx="798" cy="659.1016" fill="#84BE84" rx="3" ry="3" style="stroke:#038048;stroke-width:1.0;"/><text fill="#000000" font-family="sans-serif" font-size="14" lengthAdjust="spacing" textLength="142" x="807" y="662.4482">void setTimer(int i);</text></g><!--MD5=[e13f419059df30e1bf13564bc870fc1f]
link IView to View--><g id="link_IView_View"><path codeLine="94" d="M196,276.622 C196,318.918 196,367.638 196,409.929 " fill="none" id="IView-View" style="stroke:#181818;stroke-width:1.0;"/><path d="M188.9289,350.3484 A10,10 0 0 0 203.0711 350.3484" fill="none" style="stroke:#181818;stroke-width:1.5;"/><ellipse cx="196" cy="343.2774" fill="#FFFFFF" rx="6" ry="6" style="stroke:#181818;stroke-width:1.5;"/></g><!--MD5=[5f32bc515dbeef698e6ecb3a46a51a8b]
@startuml
package view {
  interface IView {
    +void retrieveLogic(ILogic logic);
    +void createAndShowGUI();
    +void startTimer();
    +void stopTimer();
    +void resetTimer();
    +void generateMapImage(char[][] mapMatrix);
    +void clearMap();
    +BufferedImage getMapImage();
    +void saveHS();
    +void winPanel();
  }

  class View {
    +void retrieveLogic(ILogic logic);
    +void createAndShowGUI();
    +void startTimer();
    +void stopTimer();
    +void resetTimer();
    +void generateMapImage(char[][] mapMatrix);
    +void clearMap();
    +BufferedImage getMapImage();
    +void saveHS();
    +void winPanel();
  }

  class GameGUI {
    +Image BLUETRUCKUP;
    +OtherConstantImages;
    +Image BLUETRUCKDOWN;
    +OtherConstantImages;
    +int[] MIDVEHICLEDIMENSIONS;
    +OtherConstantArrays;
    +Image FOXSTAYTEXTURE;
    +OtherConstantsImages;
    +void paintComponent(Graphics g);
    +void triggerWin();
    +void actionPerformed(ActionEvent e)
  }

  class GeneralGUI {
    +int JFRAMEWIDTH;
    +int JFRAMEHEIGHT;
    +HighScoreGUI scoreWindow;
    +HighScoreGUI getHSGUI();
    +void keyTyped(KeyEvent e);
    +void keyPressed(KeyEvent e);
    +void keyReleased(KeyEvent e);
  }

  class HighScoreGUI {
    +Font FONT;
    +JLabel text;
    +JButton buttonYes;
    +JButton buttonNo;
    +JTextArea nameArea;
    +void setStyle();
    +void saveHighScores();
    +void loadSaveHighScore();
    +void loadUserBest();
    +void loadBest();
    +void saveBest(String name);
    +void setExitMenu();
    +void actionPerformed(ActionEvent ae);
  }

  class MapGraphics {
    +BufferedImage mapBufferedImage;
    +void generateMapImage(char[][] mapMatrix);
    +BufferedImage getMapImage();
    +void clearMapImage();
  }

  class StatGUI {
    +Font FONT;
    +JLabel lvlStats;
    +JLabel storicHS;
    +JLabel presentHS;
    +JLabel hp;
    +JLabel coins;
    +JLabel points;
    +JButton startBut;
    +int timeRemaining;
    +Timer levelTimer;
    +void setLabels();
    +void setButton();
    +void startTimer();
    +void stopTimer();
    +void resetTimer();
    +void setTimer(int i);
  }
  
  IView -0)- View
@enduml

PlantUML version 1.2022.13beta8(Unknown compile time)
(GPL source distribution)
Java Runtime: Java(TM) SE Runtime Environment
JVM: Java HotSpot(TM) 64-Bit Server VM
Default Encoding: UTF-8
Language: en
Country: US
--></g></svg>